<mxfile host="app.diagrams.net" modified="2023-08-12T08:34:45.901Z" agent="Mozilla/5.0 (Windows NT 10.0; Win64; x64) AppleWebKit/537.36 (KHTML, like Gecko) Chrome/115.0.0.0 Safari/537.36" etag="9qX0biwUd4Y5pZ1dDrZL" version="21.6.6" type="device" pages="2">
  <diagram id="yN46sAstZ_d4-nb0Iu_E" name="Page-1">
    <mxGraphModel dx="1434" dy="790" grid="1" gridSize="10" guides="1" tooltips="1" connect="1" arrows="1" fold="1" page="1" pageScale="1" pageWidth="850" pageHeight="1100" math="0" shadow="0">
      <root>
        <mxCell id="0" />
        <mxCell id="1" parent="0" />
        <mxCell id="AwFqjpOiwZPIhQZgIsiM-3" value="" style="edgeStyle=orthogonalEdgeStyle;rounded=0;orthogonalLoop=1;jettySize=auto;html=1;" parent="1" source="AwFqjpOiwZPIhQZgIsiM-1" target="AwFqjpOiwZPIhQZgIsiM-2" edge="1">
          <mxGeometry relative="1" as="geometry" />
        </mxCell>
        <mxCell id="AwFqjpOiwZPIhQZgIsiM-1" value="Estimate row and column of Rx symbol" style="rounded=1;whiteSpace=wrap;html=1;" parent="1" vertex="1">
          <mxGeometry x="80" y="160" width="160" height="80" as="geometry" />
        </mxCell>
        <mxCell id="AwFqjpOiwZPIhQZgIsiM-5" value="" style="edgeStyle=orthogonalEdgeStyle;rounded=0;orthogonalLoop=1;jettySize=auto;html=1;" parent="1" source="AwFqjpOiwZPIhQZgIsiM-2" target="AwFqjpOiwZPIhQZgIsiM-4" edge="1">
          <mxGeometry relative="1" as="geometry" />
        </mxCell>
        <mxCell id="AwFqjpOiwZPIhQZgIsiM-2" value="Use standard lookup table for identify the symbols for euclidian distance calc" style="whiteSpace=wrap;html=1;rounded=1;" parent="1" vertex="1">
          <mxGeometry x="320" y="160" width="160" height="80" as="geometry" />
        </mxCell>
        <mxCell id="AwFqjpOiwZPIhQZgIsiM-7" value="" style="edgeStyle=orthogonalEdgeStyle;rounded=0;orthogonalLoop=1;jettySize=auto;html=1;" parent="1" source="AwFqjpOiwZPIhQZgIsiM-4" target="AwFqjpOiwZPIhQZgIsiM-6" edge="1">
          <mxGeometry relative="1" as="geometry" />
        </mxCell>
        <mxCell id="AwFqjpOiwZPIhQZgIsiM-4" value="Calculate the euclidian distance from symbols found in prev step" style="whiteSpace=wrap;html=1;rounded=1;" parent="1" vertex="1">
          <mxGeometry x="560" y="160" width="160" height="80" as="geometry" />
        </mxCell>
        <mxCell id="AwFqjpOiwZPIhQZgIsiM-9" value="" style="edgeStyle=orthogonalEdgeStyle;rounded=0;orthogonalLoop=1;jettySize=auto;html=1;" parent="1" source="AwFqjpOiwZPIhQZgIsiM-6" target="AwFqjpOiwZPIhQZgIsiM-8" edge="1">
          <mxGeometry relative="1" as="geometry" />
        </mxCell>
        <mxCell id="AwFqjpOiwZPIhQZgIsiM-6" value="Calculate LLR" style="whiteSpace=wrap;html=1;rounded=1;" parent="1" vertex="1">
          <mxGeometry x="560" y="320" width="160" height="80" as="geometry" />
        </mxCell>
        <mxCell id="AwFqjpOiwZPIhQZgIsiM-8" value="Soft decode and calculate the BER" style="whiteSpace=wrap;html=1;rounded=1;" parent="1" vertex="1">
          <mxGeometry x="320" y="320" width="160" height="80" as="geometry" />
        </mxCell>
        <mxCell id="AwFqjpOiwZPIhQZgIsiM-10" value="&lt;font style=&quot;font-size: 28px;&quot;&gt;General overiew of algorithm&amp;nbsp;&lt;/font&gt;" style="text;html=1;strokeColor=none;fillColor=none;align=center;verticalAlign=middle;whiteSpace=wrap;rounded=0;" parent="1" vertex="1">
          <mxGeometry x="250" y="78" width="370" height="40" as="geometry" />
        </mxCell>
      </root>
    </mxGraphModel>
  </diagram>
  <diagram id="eabJNN8lx0mLwgZr8e5d" name="Page-2">
    <mxGraphModel dx="1834" dy="1190" grid="1" gridSize="10" guides="1" tooltips="1" connect="1" arrows="1" fold="1" page="0" pageScale="1" pageWidth="850" pageHeight="1100" math="0" shadow="0">
      <root>
        <mxCell id="0" />
        <mxCell id="1" parent="0" />
        <mxCell id="2AID36fqUqGkAKmChoYP-28" value="Decoding" style="swimlane;whiteSpace=wrap;html=1;" vertex="1" parent="1">
          <mxGeometry x="-160" y="880" width="881" height="480" as="geometry" />
        </mxCell>
        <mxCell id="2AID36fqUqGkAKmChoYP-34" value="" style="edgeStyle=orthogonalEdgeStyle;rounded=0;orthogonalLoop=1;jettySize=auto;html=1;" edge="1" parent="2AID36fqUqGkAKmChoYP-28" source="2AID36fqUqGkAKmChoYP-30" target="2AID36fqUqGkAKmChoYP-33">
          <mxGeometry relative="1" as="geometry" />
        </mxCell>
        <mxCell id="2AID36fqUqGkAKmChoYP-37" value="" style="edgeStyle=orthogonalEdgeStyle;rounded=0;orthogonalLoop=1;jettySize=auto;html=1;" edge="1" parent="2AID36fqUqGkAKmChoYP-28" source="2AID36fqUqGkAKmChoYP-33" target="2AID36fqUqGkAKmChoYP-36">
          <mxGeometry relative="1" as="geometry" />
        </mxCell>
        <mxCell id="2AID36fqUqGkAKmChoYP-33" value="Run the algorithm to find the best candidates and decode to bits" style="shape=process;whiteSpace=wrap;html=1;backgroundOutline=1;" vertex="1" parent="2AID36fqUqGkAKmChoYP-28">
          <mxGeometry x="540" y="225" width="120" height="80" as="geometry" />
        </mxCell>
        <mxCell id="2AID36fqUqGkAKmChoYP-35" value="" style="group" vertex="1" connectable="0" parent="2AID36fqUqGkAKmChoYP-28">
          <mxGeometry x="11" y="80" width="470" height="370" as="geometry" />
        </mxCell>
        <mxCell id="2AID36fqUqGkAKmChoYP-30" value="" style="shape=process;whiteSpace=wrap;html=1;backgroundOutline=1;" vertex="1" parent="2AID36fqUqGkAKmChoYP-35">
          <mxGeometry width="470" height="370" as="geometry" />
        </mxCell>
        <mxCell id="2AID36fqUqGkAKmChoYP-31" value="" style="shape=image;verticalLabelPosition=bottom;labelBackgroundColor=default;verticalAlign=top;aspect=fixed;imageAspect=0;image=data:image/png,iVBORw0KGgoAAAANSUhEUgAAAncAAAIHCAYAAAD96HqjAAAAAXNSR0IArs4c6QAAAARnQU1BAACxjwv8YQUAAAAJcEhZcwAADsMAAA7DAcdvqGQAAIq5SURBVHhe7d0HgBTl3QbwZ+v13uHoSBFRwUax915jr4mJJuaTRCMRNcFEY6Ixamyx94gVjQU7KCBYABtN6e2A671t/fZ52SXn5e64stzt7T2/ZOVudnd2ZnZu5pn/+86MpaKiwg8RERERiQrW4L8iIiIiEgUU7kRERESiiMKdiIiISBRRuBMRERGJIgp3IiIiIlFE4U5EREQkiijciYiIiEQRXedOREQkQjQ0NMDn8wV/A5xOJxwOB/z+tnfVLpcLHo8n+Fv7cNx2uz34W+tCn+12u+H1es30tOd9zfG9HEfT+bPZbGZ8VmvHa03hHl9zHDfHw3H2Ngp3IiIincTgY7FYgr91HsfBkPLJJ59g06ZN5ncGvdGjR+Pggw82IaOtgDd37lysXLkS8fHxwSFtYxgcNmwYjjjiiOCQ/8XwVFtbax78ecWKFVi3bh1GjhyJsWPHmnAYGxtr/m1LaF7Wrl2L77//HtXV1TvnJTk5GaNGjTLTEhMTY4btSrjH1xyXNcf51VdfmZ/33XdfM666ujrzHfHnuLi44Ksjk8KdSC/Djdr8+fNRU1NjNmB777138JkduMHjRj4/P988t379+h/93toRLTdaq1evxtKlS80GPyMjI/jMDtzAL1++HAUFBWbDtueee2LAgAH/s2PjRpbj4E6AO4QQHv2mpqZi6NCh6N+/f7cdDTdfHq3Nf2dxfrlcOL+DBw/+n++jp1RVVeHLL780y/nAAw9EQkJC8JmO2d3Lr7crLCw0fw9JSUn/87fQEXwv/wY3bNhgAhorY9999535GzryyCPN99hWuPvwww/NOMaPH9/m60K4zjLAnHTSScEhP8ZxbNu2zaxDJSUl5vPr6+vNcP4cWp/GjBmzM+hR88/mNHFb9e2335p5S0tLM+tSZmammV+GMy5D/u0wRHG8bU1/a+Pj9orLatWqVR0aX3Oh8X/99ddme0gMsxw/l9n27duxzz77YPLkyea5SGWbNm3an4I/i0gvsGTJElx//fWYMWOG2YHzqJ5HzyFvvPEGbrvtNtOkcPjhh+Ott9760e8t7Zy58du4cSNuvfVW/Otf/8IxxxxjAhg3dMRg9/jjj+Ouu+7Cyy+/jI8++gibN2/GiBEjzEa6KW5gH330Udx+++14++238d577+Hdd981/7IqwR3W8OHDkZOTs3P8u9Obb76Jv/3tb23Of1dwB/XEE0/gjjvuMDvktioh3Ynf5+9//3ssWrQIhx12mNkJdkbz9Unhbsc6vnXrVhNMGHgqKiqwZcsWU9Fpb+WsOf4t8O+QFTX+baSkpKC4uNgczA0ZMmSXy50HFwyYDFsMNG09+LqysjKz/eDfcGsYnrge8fP5/TMMcrvAaeT6xFDL8M8wxYM+4gFcU3yO2ywuMx4Q7rHHHujXr5+ZN84vtwUcF6eH25TQNLamtfFxHKzaMYSlp6e3e3xNcb44Pzw4JVYABw0aZMJe6Ptlky+/Yw6PZPorFelFuEFjQOIGlxsi7rgZlpriaxobG83GuKXfm+POg0epDHYffPCBGS8DSwh/fuedd/DII48gMTERf/3rX02AWbBggQltLQl9Jo9w//jHP+IPf/gDpkyZgtzcXFNheO6558wGM4SfySYPvqelo2xOO3eifHDcLeF7OQ6Oq6m99toLl112mQk4xOeb903i+PloOt+tjS+Eyy00PRwff2+rzxOf4+tbGmdLn8+fm05r6GcOD3126PV8L8fLf0PLLxQUOIzTyPfw0fQzQvh8aPk2n4fQd8nxNNXW/EQzzjOb6xgwuDxZNRo4cKAJPp999pkJLZ3F74wPfkeh77qlv4fWhN7H74w/t/Tgc6Hn28KwyTDDA0cGOs4j//45jOGQVXv+PZeWlppgxxYCVs2aW7NmjQm/DIihChirfAyOrAwylDHgsRWCFUIO5zy3duDX0vg4TcT3MFx2ZHzE57gOM6wvXrzYhMH99tvPNInzM1ix5kEsP5fzzFAZ6Qc5qtyJ9CLsi/Pkk0+apoGDDjrINBOw+WHcuHHmiJK441m4cKHZKB199NH45ptvfvR7840Sw+KNN95oNs7ckLNKd/7555udFjd63FmwYsdAefnll+O0004zG1Z+Jh/c2DXdcHKnwf4/DIxHHXUUrr32WvM6Ng1yI/vxxx+bZp0zzjjDbJS5gWd4fO2118z8cFzckLIKxtdzAz179mzz/Lx588wGljsEboD5Wn4edyqsMLFKyfngeHn0zs/h+4uKipCVlWWWEcMldxBcbvydOzpWIrmz5hE5dw5tjY+fx2bKmTNn4v333zfVjx9++MH0R2IzEOe5Oe7w58yZg1dffdV8FpcllzXHyXngDoXLjAGKVQgO43f8+uuvm+nn6xikOS38PFZEOR98PZcTv0NOD6s3XDas+rBywXnguLgj5ufydXwPK0Ocdz7H5clQws/iODmtrMhwHFxXmq9PHNbW/ET6Tq8r+LfAvyeuT6yQcd3nOsP1lN8Xwx6XdXsrRU3xu+ABD0NiaNmzOlheXm7WiabV+ab4PoZvVpz4vbGixN9DBwPNH8R1huPmZzWv3HFeuI6Fgj63OZweBjsO598AP5PD+DvXJ4YdDuODlbSm+DfNMMjP4Txx2vhg6OJ0ZGdnm8/k+sh1nZ/Jv83W1qOWxtd0/vig9o4vtPw4Xv5dc/kxzHH+QrjsuV3ggQyXG9/DaQiFykikcCfSS4RC0/PPP4/9998fF198sdlZV1ZWmkpaqDmko+GO/Uq4Uzr77LPNc9zINQ13HD+bWRn6eDTMPjgMGWyyaBoqQ0LTyelg/zpW77gTYYj79NNPTZCZOHEiTjjhBLOTZMXw6aefNjsKBiyGGO40+Vncsd1999245557zGv5uQx5rBYwLHLHyvm76aabMGvWLLNz5DJhVZFH3dwpcvg///lPsyPhMI6PTbVcZgx8DCZsvvz8889x7LHHmp10W+Njk80NN9xgghOfZ/WUwY7Tz/5OzcMddxz/+Mc/cO+995plyHniuLkcGAYZZPnZrHByWbPCyB0olwOb3xnEuCO77rrrTGWVy5U7cgZdBix+HxwXd0wMaNwBcdnwX04jm5OWLVtmdkp8LeedzVcMJ5z+xx57zDS7ch5YgeF7uA5wfvnZDOlN1x/uzNuaH74nGjGAcPnwwIDVYIYfLieGKA7jQQKrPQwr/LvpCL6ef4P8Djm+vLw887fI9YGBnc9zPeF60Rxfz++O3zMrbPzb4TrKvyW+l+tK6MHp5Hxwved63lK4Y5jjOsbtAg8QGOQZ7BjcOc+cBv7d8SCC6zwDJQMtDxL4uubNlTxQ4ns5nPPHvxf+HXN6ue5wmXKbwb8tfhb/XrjdaC2MtTS+pvPJ5zmP7R0flx+/R84v38PtFf8+mgsFPK7z/DyOl8sgUgNey3MrIhGHG3qGAG4QTzzxRLMjZcjjhpwBhzvdzmAFcPr06TjuuONaPOuNG0hu1LmhZyWLO/sXX3zRBCAGjNZwg80TP373u9/hmmuuwW9/+1u88MILJlScd955JhQynDDEsC8X+6wxZHFH9tBDD+2cX1aH+B4GEPadYyhjUOHznK6XXnrJzP9ZZ51lQseVV15pdhxPPfWUOWrnhp7LJnQEz0DKnRL7AHKHzHlg8ORnsOmprfFxR8Dww87cnA4+z1DGo3x+TksYSlmtZLi85JJLzHxwWTBIcnlzp8Mwxh0uv0tWARnM+B5WBxgY+S+nn9/BoYceagIxO8Jzurgcrr76ahMEGSy4zFixCOE0X3jhhab6ytdxOlj95ff6xRdf4JlnnjFNW1wH+BpWZhkM2AzP5dvcruYnWnEdYhDh98QgwzDA5j/u7Fmp43fYvIrdEQxeDGnEz2J44PfJoMd1gk2GXF+bY5jh3ySDBgMP10NOB8M4g1vowd/54PS3NY2cR65/HB+/fwZArmMMNwy1fLCyxYM/VvB5kEdczxjumuNn8Tmuv5yf0HQxoHFaeBDB4Zw3zveull9r4ws9OD0dGR+XH5ctwzODXdOKXVNcrnyOr+F8sz8fv5dIpXAn0ktwo8swxA0Xj9C5c+WOnzsBVmNYhekMHo3ySLW1jSA3agxqDGMMgKyiTZ061QQiVooYlFrC8fGoljt87rgYXBisWDnjSSChSgV3jgwvbKYJVQJ4ZMwNLo+oGWYZpCZMmGDOUPvzn/9sTtbgzoUVPO5kuSHnDpY/c6PPwMRqFaexKU4LzzzkPLMix6odwxDfc+qpp5odWVvj4/Rwg855Y8Dmhp7TxB17a8GGy5ahkYGAFcSbb77ZVEdY5eFOguPijoVVMU4PP4PTzeDFHRV3pqHvhq9j1ZPNYNypcThDPj+f4ZTrBpcJl20IP4MnyPA9nHdWRFm14bJnhYYd1E855RQTFjnuc845x+x4GRi4A2tuV/MTrbhMua4y5PBvkcufy5vVHv4dMgx1Bb8TfhfsQ8u/Kz7Y5M1ly/WBBzQtVe74N8PpYrAKNQdzPWHzaNMHgyjDD6eZ601rByMMXPxb5/wccMABpipH3N4wNPLB8fNvlusBD5i4DeLy4d9uc1xeXCe5vjCocj1koOP4OR7+znHyeT52VQlraXxNH/w76Mj4uPw4H1y2/F5Df2vEn5v/ztcQ56G1ZRgJFO5EegEegbJJjTt/7gCuuuoqUylhdYXhg0GAgWh3bGzYzMYdB5tiGDa4MWfTITf23CFxA9oSbghZZXrwwQdNVY47Ce64GCgYnvjgToH/ct7+/e9/m5DKkMRAw+e406LQToMhi+EitCPlETyXDSsNDL48UYP98zjNDDFcNs1xh8UdAIMLK4mcJu6oOZyvb2t8rGSEwl5oR8r55LJpDaeXTarsY8hlxtDKM505jDtwfmd8P8Md551hk8uBQZOhgTueEO50Q83goZ0Od3bcMfF3Thenr+l6wJ1bKBSE3s/nuWz54M9Nwz132pxOjoffQXPtmZ9owu+B1Ur+3XHdCB3M8G+Cy4jrQeg1fLRU7dwVHjzxweZDfudNwwoDN8MZnw99R01x3WVwY/jjOs3XcJ3+z3/+Y6rMTR/8fniQ1dq4iOsbv2Me2HB+efDAdZ/rKN/DR+g7Dq1PoXluKeDyQJTPM6RyfeJ7+flcJ/ng7wyGfJ7/8vVNP6O5lsYXGicfHR0flzEP0rgtCW3L+Hp+t3x/6G8+NJyv4TBuC7nsI5XCnUgvwJ0HTzrgjvqQQw4xFRj+G6rIsNmEzzMohVuoHw03cAxz3AiyksANP4NFW0fGDCts8mPl7dJLLzUbSwZS9s9iMODOgDuHCy64wDQPPvzww6Zp9je/+Y0JW6yKcAfAAMENKkMX+xzeeeedZhh3rJw+VuLY9MuQwWoSgwYDcPP+P8RpZqWK43vllVfMDpG/c1o4rrbGFzprjjsR9u/h8mbFlKE7tANoLlRBOP74480lU0JnG/M9PJEhtKPlDpxN5OzfxqZoNgHxO+Zy6gru9Flt4LSyWZcPLgMuG1Y/ufwZBriO8TWssjL08fM5r821Z36iCQ9G+OBy4bxxveG6z9+5DrJZj82pfPC7YwW6I/jdszrN5c9/GUqaPtg/jZWq1vDvi4GQwZ5N7cSKFitLLT1YuWsL1w1W+IhVav5dMDwy3LUUkPg3ycDL7UBLTZpcz1gN5MEnlxWXH8fDAziu8/ydVWR2heBnsOrGeWlNS+PjesvlSNzGdGR8rFLzgCb0/tC/DMHshsKTl/hzczzgbK0JNxIo3IlEOG4I2ceLOxhunP/yl7+Ya9GFHr/61a/MBpnNjM2bIcOB4Yr9z7jxfvnll03fLPZ940aQTXHcuewKQ9i5555rQik3yjxBgxthBjhufFlBe/bZZ838TJs2zZz5SexTyB0A+8ex+sfPZQBkcxU32PzsSZMmmWnkOFn9Yz84XnqFr2kJ38f38HO58+TOjtURhpxdjY87C1Yj+S+nl8GP08UdSWuhhjvtBx54wDRls3rC4MRlx++MO6nQjoc/c9ysEDE4cCfGnXZX8fPvv/9+3HfffeYkCI6boZE77FATL8+SZUj7+9//bl7LHSabqbmMmmvv/EQLzhurV/wuGGoZjlmxYfWafUWbPkIVNuJreQCwK/z7ZjDmQRMrd00frJjxAIdBIhQ6WsJ1mNW20AEG38MDEV5cuOmDw0Ina7RWyeJwVqo5LwybXB+bVn+b4jQx3PHBaeQ60ByHh05S4DaMJ0Bwfvk3xGXFVgceXPAgiQep/DwOb21+WxofAzXfy8ppR8fH50LLIvQa/s5xcZ754M8hTV/T2jKMBDpbViTC8aiUnfx5NModCIMWgwg30HzwyJqVMHaiZ5MpNz7sH8ZmA+6AePTd9PfWdr5s4uDGkpUCNrmFzpblgxt7BjSGGH4WN5w8u/bnP/+52cg2xY0lO+SzWYc7FFZ1iO9neOJwhio203J+WCXj57I5ktUPhhqexMCdC1/PgMGdJKsifJ7VJFbVQlUtvp6fyfeHmqcZCn/2s5+Z6eZyazr/3Fhz+TGk8Dn2NeODOw0um12NL9TfkX3SON38fhgIWV1hNYKf0RTHy++Iy5VnEbMJmpU09l/k8mPlgDhdrAjxMxmYWOlkfz5OE8MWz0jlzpNn43LnzaoFx8WAzf6IDAc8gYWhmcGMr+WJD2yC5nLkmbZcF9g/j5enYfMbP5v95LgD5Hv5/dIVV1xhTpbgDrj58uP32J75iRYMIpxnVmk4b1xuXAf5fTFMNX2wcsbvi2GIJ+rwu9hVP0SGRYYRric82OH4GZL5nfHB75EVc443VFFrjn+j/D5YKQ+tv609GEg4LlZ0+TfQ0jg5b/zuGe54wBiqbjXHz+V2h98/1wl+dks4b5wnTl/o4IXrL/+uudxCJ0KwAsj5CP3NcPwtaWl83K7wb7Uz4yO+l+Pj8ucyYmDk8g81vzNsc7lx28W/U/4eyXT7MZFegFWA0NExN1JNcYPNYMENDjfA3DCHmkn42qbNJs3f2xQ3aHwdgwU3anx9Uwx/3NBzR8OdW6ha0BKOhwGQO6amO3tuJLnD4LRyo8n3cwfIHQTP/ORnMlRyOkPNkXwtd4Chzv18nuPkhjiE08yNPHdYfI6BMLQxb2n+Oa8MTJwW7rg5Hdxwh7Q1PuI4uUNjZYDTw3FwR9nS90Ocb84Dlx0/k+/hMmZg4DgZEDlOViF4mRVOG6uZrKrxeU4vp4c4fs4LX8NxhqafrwutBxw3lx+XK//lvPG743u48+I4uJ4Qpy1U4eA8MDjy/dy5U0vLb1fzE014MMNlF1pebeFy4UELAyHXZwbr0MFNU6FlxOXNcMzKEA+EGAQ5jN8H/+a53Pkd8l9W7VnZ5brQElZf+TfFgx5uE9rC9YHzxXW4rduPMeCwqZ3TxYOI5pU5zgcPCBjUeGDDQNXa9PG13IZwvvj3xWXFZcpp5nrDAy4uN/4NcPp5QMXKZWvrU7jH13T58e+Rv/Nvizh+doHh+EO3fuTvkWy3hbvQxpMb4NBGWkR6v9DGu7WNZGftarx8no+mIaw5bsT5/nBN267Gx+fbmp7mQvPQdJz8ncGV/ftYLeSDVTM2f3NnE06hz25NOOYn2nCZcB7bg0GDFTseFPA9rYU7jpMhjn25WP3lAQSbSxmkGZYZWnjQwwd/5sEUzzBnAGxtWhhGGL5YxeX428LviqGMlcbWwh1fw89muOPreKY7DwyajpvPs9LM6WQoYhW+LaH1JPQIrT+heWJAY6WNVXHmBs4Ll0trwjm+psuP72NVmiGRGLZZteY4uDw4330y3HHBcmVgPxn2seFRXUv4B8C+NWxO4BdDPELgQgv3Rk1EJBJxe8kdEE8i4Q6fO3CevMEqSGi7KL0Dq5ms2IUwtDXf/7EqxEogm7pZ8WIViFVShmqGOwYLCgUWhik2AbJqx6pgKLg0x3DC5smWToJpCauBDDq8pE9bWNFlYOXrGXaafj6nlcGOFWY293d1feX7uXxCgYytA5zvzurI+ELLj829XOb8LtnPkuNgNxNWpomVVPZX7XPhjl82V1x2ROZRCS/wyXJyc1xBmPjZyZdniIXCHFde9jMJlUNFRKIdD3C5AyLunNn82ZEKmvQe3PeFmrqbFjbawvDHqlhbrWAMIzw4aC9+LrtxtNSNoCmGI46bTZMtTSubPxn6uA9vLXh2BD+DXQtYLePPDMhd0d7xNV9+odcy6LEi23TeOL9cbuGY390lrOGOM8qOoWxe4MJk4udZZi2FO67UvI0QO/jyiDXUls8FyqZc/isiIiIiHRPWQ0OGO5ZoWYnjmV5tVd9Y4WP5mqmYJU+e1cVrBnEcCnYiIiIinRP2ZlmWcBnOeBYO73/ISxa0VLljiZT3pmTHRLZfs0zNSh87d/LimCz1Nse2bt6Hkv/K7sfgraah7qPl3b20vLuXlnf30vLuHsw7vDwSs0voDPNIsNvOluXZX22FO55Jy4uCsoMjr2fFZlz+vmDBAvMeDmuO17jiCRi86bjsXgzfzz77LH75y1+2GLQlvLS8u5eWd/fS8u5eWt7dhwWtp556ytxZJ3TSRSTosXDHBcLOi0y6oetVsVmWNxXnhTB55k1zPLuI93nkJQJk92J1lDcE5xX4tXHY/bS8u5eWd/fS8u5eWt7dh4WpKVOmmDu2RFK467GaLVc+XjGdZ9YS+9pxIZFWRhEREZHO6bZwx/Z/nhnLC3Syfx1/50UCeUsdXrSRVzqfM2eOub0PL4ciPU8ntnQvLe/upeXdvbS8u5eWd9+228IdVyxe9ybUoZNVueXLl5sAx+vl8FpO7DvH24PccsstuP32282tcy644IKIKm32VbzVUOi+lrL7aXl3Ly3v7qXl3b20vGW39bkLXfiQF15kMyubXXkSBS+VwgsA8h5tfA07foaaY9n3js+1tkKqz1334ffFCqsuJt09tLy7l5Z399Ly7l5a3t2nz/W5Y3jjbTxC/edYyePJE7ziM58j/svf2RTLh67KHjn4fWnD0H20vLuXlnf30vLuXlreoiQlIiIiEkUU7kRERESiyG7rc7c7qM+diEjvxhPnioqKzBUTRCIVu4jxxE92L2tLpPa5U7gTEZFu88ADD2DTpk2IjY0NDhGJPLyqB++Uxbt8tEXhLgwU7kREejde+urUU0/FvvvuGxwiEnm++eYbvPnmm7vMG33ubFkREZHuwiqFx+dHo8cHn7/X1CxEdguFOxER6dWKa1xYsqkaH35bhpnzigL/lmP59lpU1HuCrxDpWxTuRESkV3J7/fi6oBr3vLIZT1y7FV/8rgrlN3jw2XWVePrmbXjhjUJ8X1SnSp70OQp3IiLS6zCuLVhfiYcfKsDe/0zEva+PwJ8+HoJff5mP6XOG4PfPDULi7TY89lwBVmwPX8Dj3R94pm/zx+7CcfMzw4HjCde42qOzn7c7l2dfoXAnIiK9ztrierzxYjFOfDETZy7PgtP33xvlWwN5IqvegbMCwyc9k4qX/lOIktodt7nsqk8//RR//etf8Ze//GXn4x//+AcWL15sbqkZbu+88w4WLly48zadXbFo0SJzkgBvBdodOvN5XIZPPfUUVqxY0a1BNNoo3ImISK/i8vqwaGkV9pgVh+M3pMPpbXlXFu+x4eC1KbC9a8G85RXw+roeFngW5VdffYX8/HyMGDECAwYMMJd2+fOf/2yu6BBuvB+7x+MxtxTrqqVLl5pw2tjYGByye3Xm8xju3n77bbNMFe46T+FORER6lXq3D6t+qMNeWxMR00qwC8mqd+K479Lx2YpKhCHbmfDRr18/nH766Tj77LNx8cUX48YbbzQXvWWlilhlYyVv5syZePfdd3detJmP9evX46233sLrr79uqlMMblRdXY358+fjlVdewZw5c1BRUWGG77nnniZArlmzBlu2bDHDGHo4ztD7W/s8TuuqVavMZ3300UdmeEsVQL527dq1Zrpee+01E16rqqqwfPlyFBcXm9fwM/n569atg8vlMq/57rvv8J///Afvvfcetm3bZqbh1Vdfxeeff25ew8+vrKw0AS80XobV0PgKCwvx/vvvm3nme3htOWIY5Hv5+xdffGHGyfnavHmzeV52zTZt2rQ/BX+OeFwx+Ydx2GGHBYeIiEhvMnfuXIwcORK5ubnBIR1X5/LivTmlOHx+GjLrHcGhrauK8eLjSeU4ef9M2Kxdq4AxhPAuG0ceeaS5EDNDCkMOr8E6ceJEE8ZefvllvPDCCybIrFy50jSr7rPPPti4cSPuvfdebN26FQUFBfjkk09MUExPT8fTTz9tmmAZ1hgSN2zYgL333hsPP/ywCUEMWqyETZgwwQQ0Bp6vv/4aBx10kPm5pc9jIOTnMaBxfFz2XO6HH374jy4izdB0xx13oLy83LyWTamcplmzZplwNmbMGBM+2VzKfzkOXtyXQW/79u2m0sbp++GHH0xI5Pu5HDifnDYGX473gw8+QGJiIoYOHWqe47R9++23ZpxcFvyX6wbfM27cOBNMuSwpFCbHjh2LhIQEM2x34nxxfnaVNxiMGTwnT56M+Pj44NCep8qdiIj0KizAeQP/bU9M42ti3VY0NvoC7+h66Y5hjhW2Sy+9FKeddhqOO+440yTL0HX00Ueb0Magdeihh+JXv/oVfvGLX5iqFitUrHDFxMTgt7/9LX7/+9+b97BoweZcVs3OPfdcXHnllbjggguwYMECLFmyBGVlZaaSxYDFMMfmSgauefPmmSDE97f0eQyKDF0Mab/73e9w1VVXYfTo0cG5+C/OD4smDIVnnnkmrrjiCjMdDHAMYZwOhlnOF18zePBg8z4GwQMPPBDXX3+9WQasInKZsIrJ23ax4sbg079/f1x22WW44YYbcMABB5j55PRxvAyc1157La677jqcccYZJiR9//33ZvwMqpz/lJQUXHjhhSZM8v3SPgp3IiLSq8TYrBgyNA7fZ+xoxmuLz+LHokFVGDM0EbYw9FujYcOGmcBx3nnnmfA0fPhwXHLJJeZnNl2yEsaK1EMPPYQZM2agpqbGVIEYZhiwGHgYgBjiWBnicFb1Pv74Yzz44IOm8sVww+oRsfLF/n0MOhwvq1h1dXWYNGlSq5/HqherYwyAOTk5pmmXdwXhuJpiXz5OP5+/+eabceedd5rwyOkbP368CXas0LFqGBcXZypylJSUZAIn78rA/of8nbfr4r1Y+eA0EF8zaNAg8zznnc3NDIYMqVwOXJacL47X6XSasEqs8HH+GBoZhNm0zNdFUnUskinciYhIrxJjt2LYHnFYNqwWVc62L1RcEePB/L0qMHF0MqxhCHcMQwwlrFadf/75+MMf/mCqWm+88cbO/mRs8mRzKZs/2Xx70UUX4ZBDDjHBitUsVsuIwYnBjP3LGJL4miOOOALHHnusqXaxCTIkOzvbhCNW71j9YtUsdLurlj6PlbzQ5xE/M/S5zSUnJ+Omm24y1bG0tDQTEJ999lkT+thszOZcViv5mQxYITabLfjTjuUSOumD/7b0WZzPULjkdIWmjULLJTQO/s5KHc9G5rLmMmbwZLCVXVO4ExGRXoX95sYNT4L3VD8+GVgBN6990oJ6uw/Pjd2O3JOcOGBIciA4BJ/oIgYQhhSGGwYwVu14YsFnn31mmi3ZpMnLf7DZlU2bPNHAbreb6hvDGZsl2Qft0UcfNScbsOLFqhXHy75bDG1skmwafhwOhwlXbBr98ssvTeDhOFv7PE4bwxl/5ucxHHH6mo6TGKhYVXzuuedMPz02s+6///5YvXq1CY0MiZxGvobhMRS+2othjFU6Ni+zqTYvL88E1VGjRpnmYPbVYyjmdLK/ISuIxGGsYLLJmieusCmbyyh0goe0TeFORER6FZ4TMSA1FmeenIXvf1GLpycGwktiI6qdXtTZvaaatzq9HvcfsxkbrmzA2UfmIMH53ypTV7Azf9MO/QxRRx11lAlEPFuVYYl933iCBatvvKk8T4Bg8+Spp55qgts111xjXsPQxfDEJkkGxCeffNI09/Jm9fyMgQMHmqoaQw1xHKykMYSF+r4xKLX0eQyd7MfGShuHsTLH5tbmzZoMaxwnm1H/7//+z0wHm3Q5HQyPDJsMWvxsNr+G3sPxhip37EfIZtcQ/sxgyM/ia3myBvvysXmXTdlstmWVkuP+05/+ZM44ZpBjJZThlM3bbJYdMmSI6avIvnyskDKs8qQV2TVLRUVF13uYdhMmeK7AXPFFRKT3ueWWW0zIYf+vrvIGgtSW0kbM+aocS2ZXIaHIhrQKB4rTXSga4saRB6fhtAMzkRJnD1t/O4YgXuaDASSEgY6XDmEICjWVssLEMMUAxP5rbO7k6ziMVSyOg6/lePga/s7+ZhwP+7bxPQxJ7J/G5xnyiL+z+hb6HGLFq63P43gZEBkY+XxqauqP+t7xdewLx3Fw3PwshkYGM56py9DHB5uMOYyvYX8+vobjZdWQ08WQSKHLuPA5zg/njX0EOU2cboZG4qVOSkpKzHJjmON0MyhyejnvfB2f57g5nO9vPu27C69nyMC5q7zBIM3wPHXq1B99Jz1N4U5ERLpNOMMdcQfm9vqwvdKFwioXiqvdyEtxYnhOPGLtVjhsYWqL7SQGJwai5jo6vL1aen9Hxhl6LQMjLz3CaiJDFitsDFad1dY07Gr6OjL94dLbw52aZUVEpNfiLt9ps2JgeiwOGJyME8dmYNzAJCTF2Ho82FFroaSjw9urpfd3ZJyh17LCRzzblpdXCVUOO6utadjV9HVk+mUHhTsRERH5EQYqXkj417/+telv1x1NoRI++rZERKTX87td8NZWwlO6Fd6qMvg9ruAz0lkMeAp1vZO+NRER6bX87kbUr/gCVe88jaonb0flHb9D1aN/QfX7M9C4YTn83ravgycSjRTuRESkV/LVVqHyvWdR/ZffAL/7HZy33YPEx2Yi5s5/wXPDtai8exqqPnkFvrqq4DvCgx38ecYoL8rLf/l7uHR2fHxfuIRzXCG7Y5zNcbn19LKLFAp3IiLS6/hdDaj59E247r4NKe8sQcraGiQUNiKmwo34okakrqxA8oyP4HngLtQungO/xx18Z9fwPq9z5swx113j9dl431Zei42X8wgHnqHJiw3zbNX24uVZeFN/Xqi4KU4rb2vGS5W0FwMrx8XbfoUrtLY2feG2aNEic/eOnp7fSKBwJyIivU7jhhVwP/MI0hZtQUzV/wYhq8eP2NIGJCxcgfoXHoKncBNLO8FnO4+34rr33nvNZUFOO+00c623u+++Gx9++GFYKkCffPKJuY8rQ0d78Xpxr776qrkmXFO8kwXvVduRuzrwc99++21zV4lwhZ3Wpi/ceLk03iaNoba9dsf8RgKFOxER6VV8jfWoX/AeHF9+B0dtIAS1sU+OKalHzKdfo/bTtwI7766HL1bVeIusyy+/HD/5yU/M3SZOOeUUcystXryX14bjBXuJYe/77783FwLmc7z1GKtLr732GhYsWGCGM4zwd96Gi6/nddN4z1le05X3q+Vtv1jFY/Dg6z/44AMTlHgrr9Dn8DlWq5qGSz7HsMPx8tZerCy29v7m+NotW7bgnXfewaxZs8zPHDc/h5VADuPt1jh+Tm9LeKFmzgNfxztesHrHcfDBKhnnjVU2LjcGLI6bFy9mSOb08fZroZDGf7nceAeQ9957z8wHx8P38TZp/Ax+FoeHpofjY6j96KOPzPgYdEMVPf67cOFCs9x5Pbvq6uoOhenewDZt2rQ/BX+OePziuSIcdthhwSEiItKbsPLFa6fxfqid5WuoRc1L/0Lipytga2w7sFkY/AI7+rrR/ZAw6QRYrF27DRmDDoMEwwDPJuX13/bee28zTwww99xzj7lTAx/bt283VT6GQd6pgUGQAYQB6fXXXzf3iV27dq0JSVwu48ePN/dxnTdv3s4gxTDGe88y4Nx333349ttvzbhY4WMo4a3LGMYYYI4//nhz71bitDAIMWxyGKeHVbyW3h+6YwRxvthMyc9mqGQVkdPGy6KwWZXTwCoX5+Pjjz828z9o0CCzLEIYGh966CHzPKt2/JfvOf30003Q43MMsBzG6eD88S4WDzzwgAnAnC4uY04Xn3vmmWfM/HGeOD8MxlzmvJ0ZpyeUDTidXK94D1zemeNf//qXCbYMc3yO08X7+3J8DIScNoZGLpNjjz3WfFZoPvjdMVjvKm8wZL777rvmVmrNb+3Wk1S5ExGR3sXrhnfbJtjr2tcvzVYfeH1FSZsVvvY64YQTzH1XGcKuu+46XHTRRSZEMBT179/fNNcymDBQhKp4bLpleGE4Oemkk8z7Ro8ebQLSVVddhWuvvdYEGoYMYuDi9eWmTZtmbrnFChMrUAwwfC3vhsCgxMoaK4MtYeji/W4ZZo4++mhzA//2vp+XP+H9a3mzfr6WVUcGGDZfsjL285//3NyOjDf/ZwWuaXMrQynnm6GN88DPO/nkk82tzxi4XnjhBROi+H7Ou8PhMEGXy5PBj3d74Ht4FxOGNg5jxY73yeXy4LJjMOR7OD1cPnw9x8XpIX4XrNRxef7sZz/DlVdeaZYB55f9JTnNZ599Nq6//nrzb1cv0ByJFO5ERKR3sTlgGzAE7kRHcEDbPMkxsOcO4IXbgkM6h1UaVnYYCP75z3+aqhybZFn9Yb87hopDDz3UVJ9Y5WLTIsNVqErJfxlseON83oSfv7PqlZOTY0IKgyCD1X777WeqbbzXKgMLK1R88D3Dhg0zN+3nhYV571YGoJbwDhO8Ry1v4M9/N2/e3O738z0HHXSQmSYGVt7An82XDFqs6M2YMQMPP/ywafJl82vT5l2GO1bkOA5+BsMub/bPaWAI3LBhg6mIPf744+bWZtu2bTPTtmbNGrM8uLz4HgbCc889d+f9bg888EATwlgF5TywoshlHKoCcziri1x+DNJsrmWVlUGO4ZvN6azUcZr5PXEZc3wHHHCA+T6aVh6jgcKdiIj0KhaHE44x+6MxPSY4pA2BfXZjehwc/Yd1eQfOcMAmSwYd3keU98dl37srrrjCVKsYdCZMmGCCFfuOMciwesZgQwweoYsCc1pCD+JwBqOQ0M9sGuX4GHD4COHPfE175omvY6DpyPtD00ms1oWmleGLTZVs+mT175xzzjEhsClOL8cdmofQv8TxcrmFxnHeeefhxBNPRExMzM5pIlY5ufzYHM1pb6rp9ITmqennEX9mMGXY5uccd9xxuOSSS0xQbfrapu+JJgp3IiLSq1gcMYjd71A07rMHPHFt96FrTHGgcb/RiBt/GJNFcGjnsNLF/mrs58VmRDZXsnrEqhDDXlJSkqmKHXzwwaZixFAyduzY4Lvbh2GF42aVK1T9Yxjig82qPBmBfew4nCGHFavWMEgxkPL1rHC19/0MVJwGBixW61hpY58yVhE5/wx4rHgxzDKANcXAxc9iNY8nbXBcDLpskmXz9ODBg828cX7Yb47j5zTyPZxfTh+btNkUzSZcVjbZpMs+c5xuVvjYR5GVRU4H54P947Zu3YrPP//cLD829XJaGYxZ/eS0M3Cy2sfPT0xMNP0aOT6eWMH3R1vIU7gTEZFehSdFxAzbG86zL0Hlvv3gTrDB36wA5Q/s3dwJdlSNzUXseT+Hc/CegaFdq9yxunTZZZeZUHHHHXeY/nbsz8VmyKuvvto08zFEHHXUUSb4sekvPT3dvJeBgyGF4YfY+Z5NlyEMHHwNx8FQxf5g7JfGwMj+Z+wzNmnSJNx8882mAsXweMEFF2Do0KFmnAyV/OymeBIFw85dd91lwk5r72+OzaIMdKxIsp8bgxT7Gp511lmmCZl93NiXjX3eOF7OVwinhc2mbFK9//77zWfxBAiOkw/212NTK/vjcfw8qYT9Dw855BBTZbvlllvMe9jHkJ/J6ePreGbtpZdeihtuuMEsV16GhpVDLh8u+xtvvBHl5eVmufJEDAbsI444Arfddpv5nngSB4Mi+zNyfJx/jo8BktPPZR9NLIEVsNfEVaZ1dlSdPn16cIiIiPQm3HkzrLBy01XeylJUvfcc3DOfR9yS1YgpqQV8gWBnt8CVlYS6CaMQc8aFSDrqPNiSd4SsrmKFhyc/sPrEB8MEAw8rdww2rNZxX8X91O23327CBHE4Qw0rSQxhoYoaf+c4OS4237KaFjr5gpUn9gdjKOK4+R6+ju9jqOF7Q82ZrFyxMsbqYgjfz5MPWD1jfztW01p6f3M80YNVP4Yl/sv54+s5nazAsWLHcXC6OI6mnxnCz2R/Os4PgyfnidPHeef7GX5DlTUG4NAy4fRxOhly+XqGLo6Dy47LnZ/FZc3nOd+cHj4XCs8MdpyuUNWS4+OyZHjm+ELLmNW60Odwvti0HGo+Jza984LSu8obHBdPAuGJJ5yuSKFwJyIi3Sac4Y68NRWoX/45Gr6ZD/+mDbxIG/w5WbDnDUL8QcchZuhYWMylPrpWtWtJqCkvVI1joOFZoi+++CIGDhxo7mLRlYoQxx8ad1OtDW+vrr6fduc4OjruXb2+M5/T28OdmmVFRKTXsiWmIvGg45H5i1uQPu1+pN30ALKuuQ/pF9+A2BHjA8GO4ar9QaEjGAyahgNWjVhNYvMnm/662tTXWvBobXh7dfX9tDvH0dFx7+r14fqc3kThTkREej+rDbakdNjT88zZtD2BTYs8K5P9ynimpkhPUbOsiIh0G56IwDMj+RCJVLxOHs/c5QklbVGfuzBQuBMR6d14hwDeT5U7RZFIxTOZeQkVnnHbFoW7MFC4ExERkUihEypEREREZLdTuBMRERGJIgp3IiIiIlFE4U5EREQkiijciYiIiEQRhTsREenz6t0+bK1qxPrSeqwsqsXaknpsqWxEeb0HPn+vuaiEiKFwJyIifVZBIMC9s6IUz324HY8/vBWP3FGAR2/aikf/WoBHHirAQ29swcxvirGxvAHKeNJbKNyJiEif4/b6sWhTFf76+ga8+ddiOK634MS7M3DFo/3xh38Pxq8fz8cp92Yi569OfHZrJe57ZjP+810xGjy+4BhEIpfCnYiI9Clsgn3ruxLc98AWTLonBX94cwguW5aH/QuTMbQyDhkNDgysjsWB25Nx8fI8XPfhQEx6OAVzHirHq18Voc7tDY5JJDIp3ImISJ/BptVZK0rwwaOl+PW/++Mny7ORXx0DS/D55pw+C/rVxODU1Vm4+pV8fP9AHf79+XYTEEUilcKdiIj0Gcu312Dhq5W4/I1+OGB7MmK87dsNOgIhb4+yeJz3XjZWPl+HpZtq4FMfPIlQCnciItInsL/c059tx4Q3UjCuMAk2f2v1upbx1XuWJODk2Zl47pPtKKxu3PGESIRRuBMRkT5h6bYa+Ob7sf+mJNh9HQt2IdZAIBy7LQFYEPj/usrgUJHIonAnIiJRj9eq+3ZjDQZ8Hou82pjg0M5Jr3fgqC/SsXxjra6BJxFJ4U5ERKJeVYMXVRs8GFkYjzhP13Z9rPoNLo5FzRYvKgPjFYk0CnciIhL13F4f3DV+JLhtwSFdEx8IiM4SCyrr3cEhIpFD4U5ERKKex+eHu86P2C5W7UJ4MobNZYHLq2ZZiTwKdyIiYcA7HhRWu8ztrNaW1mNVcR02lTegsMYFr66Z0ePinTbEZltRFhueSpvP4ofXAditnTsxQ2R3UrgTEemCRo8P3xfV4dkvtuGOFzbisQe34uHbCvDQ9AI8du9WPP30Nry2pBgrC2t166oeZAuEMEecBQ328HwHVU4v6gd4kZvctZMzRHYHhTsRkU6qrPfg8YVb8ew927FlWiMm3ZWC0+/NxNWP5+PGZwbjvAdyMOmOFBRPdeOlB4rw6KdbsblC10brCXF2K7LynVg/oB61jq6dBOGx+lGQ14icAU7EO7QblcijtVJEpBM2ljXgobcKsOWuRpzzRDamLRyEn6zKxr5FSea+pFn1DowpTcAhW1Jx2YI8nPNwNhpu9+HRtwuwIfBe6V6s3B0wLAmbjm7A9+l1waGdUxTvwpxJ5ThiZFpwiEhkUbgTEekg9q17+PUCZN/jwO/fH4S9SxLbvI0Vz6zknQ1+Oi8PY+5JwHMvbseG0gaoJ173GpoehzEHJ+LN/UtMQOuMOrsXL4wtRMrhNoztlxgcKhJZIibc1dfXw+3WKeUiEtl4w/gXvihEzCtWnLc4F2mNdljbmdJYzTt2RTrSXrTjtU+KUFHvCT4j3YHVuzPGZ8Fzkg+zRpYGglrH+t+xOfajQeVYd0Y9Ljo8F3FqkpUIFRFrZm1tLWbOnIk1a9bAr6t9i0gE+3xDJVa/XI8Lv8gxFbmOSm9w4Oyvs1H1hgdzV5UHh0p3yUhw4LzTcvD5uZV4buy2dlfw6gNB8M1hJXj//FJc9pM8DMuMCz4jEnl6NNz5fD6UlpbilVdewWuvvYbi4uLgMyIikYeXNPl4WTkO+SwFQ6o6v3NPr3Ng3FdJ+HxNFWpdusNBd7JYgNG5CfjNJQPgnerHU4duw5LsatQ4vKYyFyov8F+vxW+aYVdn1OHfE7dj7lXluPDyXOw7MAlWjkgkQvVYuGOFbuvWrXj44YfxzTffmKAnIhLJeP06LAbGFXT+xvPkCLx3TEEifJ/58UNR1zr3S8fx2nR75iXgnJNzMOwPcXj2V9vwr5O24O29S7BwUAW+zarBV7nVmDOiHI8cuRUPXlOA+D9bccPlg3HgwGQ4bAp2Etl6tHLX2NiI/Px8XHHFFejXr19wqIhIZOJlTJLW2pHR4AgO6bzcWifyljsD49SZsz0lM8mB0ydmYepvBmHPPyfgh9vq8Ortxbj/js147I6tmPe3CqRPt+P3vx6Icw7NQW6SUxctll7BUlFR0WOd3ELVOva5u+GGG3DOOefgkEMOgaWVcveyZctw991346CDDgoOCWwgc3Nx7LHHmn9FRHanmd8VoeDaRvx8Xj/Ed/EepY02Hx6ftBXp9zpw/ric4FARiWSrV6/Ghx9+iJqaGvO71+vFl19+ibvuugsZGRlmWCTo0cqd1Wo1j47IyckxATD0GDduHJKTk4PPiojsPm6fHxa3BbYuNMmGsGnWXmcxZ9+KSO+Qnp6OAw88cGcGOfjgg5GUlBR8NnL0aLjrDFboJk6cuPMxduxYxMfHB58VEdl9kpw2uFN8purWVY02P1xJfiTGdK0CKCLdh9W5/ffff2cGmTBhAhISEoLPRo5eF+5ERHpKSpwD1dle1Dq6Hu54dmZDPx+yErref09EpCmFOxGRdhqYFoOK4R6UxXb9guvlgXGUDHIhO9EZHCIiEh4RE+7YZm2zqXlCRCJXv+QYDNw3Bgv3qERDs7sb8My09p6d5rL58OUeVUibbMceWboYroiEV0SEu8TERFx33XXYb7/9Wj1TVkSkp/EyGMfsk47lR9VgbXr9j8IcL4Bb62jfBYl/SKvDd5NqcNK4TDhtakARkfCKiK0KAx07KcbGxgaHiIhEplE5CZh8WiqeOG4rNif/9xp1PPs1xms1Ia8t2xNcuO+oLRh0aqwZl4hIuOmQUaSLuCv3+v3mJvDbqhoDDxfcXj90m+ToxOrd4aPT0O+cGDxy8FZsSWoMPrNjXWjrKimbA699ZHIBBp4Zg8sm5+lOByKyW/ToRYw7ihcxnj17NqZPnx4cItJzeE/QzeWN+PC7Uny9qgb+csDZaAkcMVlQne5BTrYTJ47PxEHDkpHoVH/SaMLgXlTjwgeLyrDsjRqM/TgRx61NR0qjHQ4v14BgHzyLH26rH3UOH1Zl1uGlwwsx8uJ4nDYxCzlJTvM6Eem93G43pkyZgqlTp0bURYwV7kQ6gfcDnTGnEMsW1uCg5ck4bnkG0uvssPh37K4b7T5sTm/EvAPLUXWwF6cek4kDhyYj1q5iebTghrPB7cNn6yrx0edlqFvkw9hlCRi1IQFpNXZzwkVNvBcb8hqwaN8qWEcBRx2cjqPGpCFBYV8kKijchYHCnfQ0j8+Pr7ZU45UXijD0P3E4Y2kW0hrscAarNU0x51U7PVjcrxrvHFOKA36WhCMCO3Zd+iK6BFYJNHp82FBaj4WrK7FsSy3qS31AIpAUb8Pw7DgcPioN+ekxiAmEe92bVCR6KNyFgcKd9LRvCqrxxOPbcNzz6Th+bQbs7bgNFUPe9xm1eOWIIqT8yo6fTsxDcqw9+KxEI95SjFVanfwvEt0iNdypjUiknTaWNeD5twtxwH+ScMy69HYFO7IEDp9GlSTgkg/zsOm5BsxeVR58RqJVnEPBTkR6jsKdSDu4vD7MX1aBjJcdOGt5trnkRUdwPz+wMhYnzcnEJ2+XY0MgKIqIiOwOCnci7VDr8uHrhdU4aWkGEtyd6wzPy59NKEhB4hd2/LCtzvTfExERCTeFO5FdYARbWVAL1xI/Rpd27aKz8R4rDl6egk8XVphLqYiIiISbwp3ILvh8fixZXY0D1yeb6ltX7V2UiIJ1jXB5VbkTEZHwU7gT2QVGsLJqNzLqHDsGdFFGvQO1ZV643D++8byIiEg4KNyJ7ALvRlBS4UZ2lXPnRYq7wuazwN5oQb1L4U5ERMJP4U5kF3hJi6xUB0qTXOZ2Ul3FcdTF+JAYp7sUiIhI+CnciewCa3V5aTEoSAmEux2DumRjcgNych1w6qbxIiKyGyjcieyCxWLBqMHx+GaPatQ7ut6UuiC/ErnDY+Cw6c9PRETCT3sXkV3grUDH9E9AwkE2LM6rCg7tnGqnF+v3aMCRB+jm8SIisnso3Im0Q2IgiI0/KAlvTyjFlsTG4NCO8Vj9+GBQGTzH+jCif7wJjSIiIuGmcCfSDmxCPWx0KnLPcOLVUUWodnTsAsQ+ix+r0uvw7enVOO2ELGQmhOeyKiIiIs0p3Im0gzljNtGJkw/LQMFFjXh3ZCmK4tt3ggUrdvPzK/HYaVsx+JRYjM9Pgl1lOxER2U0U7kTaiXFsZE4Cfnlhf/zw2zr888jNWNC/wvSjawmrdYWBAPjOqFK8+9NSHHl1Gi6YkKtgJyIiu5XCnUgHsII3LDMOV5zTD8lT7Hj1N8W499jNeG7P7XhzWAkW5VZhXn4F3h1SirsmbMYD52zBhj834KJf5eKkvTMQ69CfnIiI7F6WioqKcFy6q1ssW7YMs2fPxvTp04NDRHoG71rBG/8X17qwblsD1q+tR3WVF+WFbjhirchMcyBugBVjhyRiRFY8kmJ0ZqyISLRxu92YMmUKpk6dioyMjODQnqcygkgnsIKXGAhsQ9LjcPjoVJx/fA4u/0kerr4yH1dd1h8XnpmD8ybmYL/8JAU7ERHpVgp3Il1ks1rMNeuSY+3mpIuMBIf5OdauPy8REel+2vuIiIiIRBGFOxEREZEoonAnIiIiEkUU7kRERESiiMKdiIiISBRRuBMRERGJIgp3IiIiIlFE4U5EREQkiijciYiIiEQRhTsRERGRKKJwJyIiIhJFFO5EREREoojCnYiIiEgUUbgTERERiSIKdyIiIiJRROFOREREJIoo3PUC/sCjrM6DuWsr8Np3xXj0swK8+HUh3lpegg1lDTteJCIiIhKgcBfB3F4/lhbU4M//WY+b7l2LT/5cjs1/aIDz91ZU3ODBmj/W4+F7CvCnwPNzVpWj1uUNvlNERET6KoW7CFVe58Hri4tx3z1bkHS3DVfd0x9Xv5KPy97Pw7mf5+CiObm4fFYerniwH0beGo/Z95fh+Y+3o7DaFRyDiIiI9EUKdxGossGDR2cX4NN/VOD6Jwfi/xbmY6/iRKQ3OJDisiPOY0Wi24bkwM9Dy+Nw9jfZ+Onz/bDxvgY8PnMrNlWoqVZERKSvUriLMI0eH577cjtqn/Dimg8HYHh5PGK8VliCz7fE7rNgaEUcpnwyAIkP2/D0O9tM5U9ERET6HoW7COLzA4s2VKH8aTcunpuLwZVxwWd2zRp4b06dE2cvz0btTC9eXVKEhkBQFBERkb5F4S6CFNe48MVHVTjk41QMCwS7tqp1rcmtjcF5C3Kw6L0qlNS4g0NFRESkr1C4ixB+P7C2uB7lC9wYW5gIq78z0W5HBW9McSL2WByHb9ZUw8cRi4iISJ+hcBchXF4fVq2rQ+YqJzLqHcGhnWMPBMNJq1Mxf0UlAqMVERGRPkThLkK4vH5s3+TCmOKE4JDOs/iB9BoHSipd8JtLIIuISHfilpfXKuXVDzaVNmB5QS3e+64U81ZVYGtVI2oaveZ5kd1B4S5CsPm0usaLJJctOKTz2KCbVmeHtziwYanXhY1FRLoTI9uW8kbMWlSC6+9fi5v+uA4P/XELFv+xGu/+oRRT/7gG0+5bi5fnF2F1cR08PJtOJIwU7iKEL/DH7Wr0IcYTnq/EFthWuAObGJu+YRGRbsPLWc1fU4HHn9yK1TfU4xf/7IcHnhyBv/97OKbOGoibXx+Chx4eiV/9vT+KbnXh2Ye2480lJYEDcV2+SsJHu/4IYbNakJJuR2l8eM5w9VqAujgfEmO6XgkUEZFdq2rw4InPt+G9u0px6AOpuO6TgdhvaxJSGu2Id9vMNUtjAwfwvAD9mJIE/HpuPs69P8dcsP6pT7fpDkMSNgp3EcJptyJ/YAxWpdd1uZccT7T9tn81Rg2Mh9XSubNuRUSk/RrcPrzxTQm+v68WF7ySiyM3pLV5OSu31Q+X1WdC3tUf5CPhDhue+3S76Ysn0lUKdxHCYbUgN9+JxSOqUZDYGBzaOV6LHx+OLMNBo5MV7kREusGKbbVY/GoVLpyfiz3L4nd5nVLeWYi3kuTrhlTE4ZTPM1HxuMecdOHVJaykixTuIgSbZcflJ6H/oTH4JrsaPp7y2kmr0upQNMaNg4anBMJdcKCIiOwWtS4v3ptfigM/SMb+hUntuk4pX2Fr8rrcWidO/iwT382uwbYqNc9K1yjcRZDMBAcOnpyKjw+twLaEzv1xVzk9ePWQIhx/agYyAuMTEZHdh4fh64vrsenjBhy9Nv1Hga2j9ipJgG8esGJTrc6glS5RuIsgrN4dPDIFgy+IxYxDC1EUz+vUtV95rBsz9ilEwxk+HDM2DU6bynYiIrsTr3SwYEUl9l+WjKwuXoA+0W3DPhsS8cU3Vahzqe+ddJ7CXYRJcNpw+v5ZwM+Ah44vwLKsGrhsbd9mgn3sNiY34NnJ27FtSiMuOyFPVTsRkW7AA/DtFS70q4rZMaCL9ixJQOGmRlXupEsU7iJQfmoMzjsqB7n/58RTF27DK3sX4dtAyCuN5ZXrduC/NQ4vNgRC3dujS/HY2VvhmuLHVaflY3imzpIVEekOPPdh3dZ6DC2O6/Q9wZvKq3GivNSjcCddonAXgZjLBgQC3k8PzcP51+ag7G8evD6lGPecvhm3TFqPvx+wEX88eB1uP2EjHrm4AD/8uRZHT0vDb08agJwkp06iEBHpJoxg3kAQi/FYOtSNpjWJLhvqan1QtpOuULiLYE6bFQcMSMYVR/XDpVfl4aS/ZWD8Q0kYen8cJj6cgmPvScd5N+bglyfn4/DhaXCoj52ISLfiVjcn1YntKa4dv3QRL4WVk+PQ9ly6ROGuF4ixWzEkPRYTB6fgpLGZpk/eiXtm4NChqdinXyKSY3UXChGRnsCWliHZcdiU3gBfGGp369Ia0K9/jLn2qUhn7ZZw5+dN8Kur4XLpWj3hxr93e+CITl3qRER6ni2wMd5vRBK+HluNqpiuneHqsfrxaX4F9tgzHrEOHbRL54U93JWUlODVV1/Ffffdh8ceewxfffUVvN6WV/jt27eb1zz44IM7H7NmzUJtbW3wFSIiIpHLVO5y4xB/iA1L8qqCQztnTWo9Nu3diDHDE3QpK+mSsIY7VuvefPNNfPvttxg/fjxiY2PxwgsvYOXKlcFX/Berexs3bsTs2bNRV1cX+ANhNUors4iI9C4Z8Q6M2z8Jb00oMZel6ozKGA8+2qsM409PNFc8EOmKsIY7VuK+/vprHHPMMTj22GNx2mmnIS0tDYsWLUJj44/vl+p2u024GzlyJC6//HJceuml5nHUUUchPl4rtoiI9A48+eGwUWkYcUE83hpbgopAUOtI77sGmw/vjijF6gvrcPL+mYh3qDu8dE3Y1iBW4oqKiszPgwcPhs1mQ0ZGBkaMGIHVq1ebql5THo8HmzdvhtVqxffff28CIMOeKngiItLb8MS2Uw/ORPmv3Hhh/0KsTqtrV8ArjXPj33ttxzc/q8FPT+qHAamxwWdEOs82bdq0PwV/7hKGtcWLF2Pbtm047LDDkJiYaELa2rVrsWzZMkyaNAnJycnBV8M0xc6cORNlZWXmwabbefPmISYmxoRDhr7mGB7feOMNbNmyBZ999pl5rFu3Drm5uUhISAi+SkREpPulxNqx59AEfD+wDm9bSlHociGnzokklz34iv9ide+tYSV47sDtcP/Sj8vPysOonARdpzTCrVmzxpxXMHfu3J055IcffjCtlZHU6hi2cMeTJjiDDF4HH3zwzrC1atUqszAOOeSQH4U7n89nAuHkyZNx/PHHY//990dDQ4NZYKNHj0Z6enrwlf/FcMdxHXfccejXr5955Ofnm3DndDqDrxIREekZvIXkyIEJyNrbga1jXXgzvgSfpldiVWYdNqc2Ykl+Nd7eswQzDi7EltMaMfnCVJx/cA76p8SE4zJ5spsx6zBv5OTkmAySl5eHpUuX4ogjjoiocBe2ZllW6eLi4kxoa3p2LH93OBz/U4ljhY796w466CBkZWWhf//+mDBhgrl8SmlpafBV/4sL89BDD935GDdunKkSioiIRIKkGBsmDUvFxcfn4hd/DOyz/p6K2L9Yse7melT/2Yu970jE9XcMws2XDcFZ47ORqXuB9xrMK8wqoQzCYlZSUlLw2cgRtnDHADdgwABTjQv1r2NQKy8vN4GsebMpA9wnn3yCwsLC4JAdiZjs9v8tYYuIiPQWrMKxije6XwKO2jsNFx6Ri/87Ix+Xn5iH48dnYFR2vLldpC55IrtD2MIdZWdnmxC3cOFC1NTUmCbZ7777DmPGjDFVPTap8rp39fX1JgS+9957ePfdd00YLC4uNk2ymZmZpqlVRESkt2N044WOeUYt7zbE20ra1bFOdrOwhjsGs5NPPhkrVqzALbfcgieeeMKcHDFx4kTzPIMeAx2DH0ub55xzjjmT9tZbb8Xtt99uTsY4//zzzXMiIiIi0nGWioqKrt8Mrwlev45nv7JJlv3weBJFqD2aoY5VO54swaZXVu/YPBu6TRmre3yupTNliWfd8qLH06dPDw4RERER6RnMPFOmTMHUqVPN5d8iRVgrd8S+dzyLhP3v2LzKcBe6dh1DHptuQ33q+G/otXyw8tdasBMRERGRXVOSEhEREYkiCnciIiIiUUThTkRERCSKKNyJiIiIRBGFOxEREZEoonAnIiIiEkUU7kRERESiiMKdiIiISBRRuBMRERGJIgp3IiIiIlFE4U5EREQkiijciYiIiEQRhTsRERGRKKJwJyIiIhJFFO5EREREoojCnYhIL+Dz+1Hn8sHj8weHiIi0TOFORCRCFVQ24uVvCnHrhxtw86z1+NtrG3Dn+xvxz3mb8c7KUhTXuIKvFBH5L4U7EZEI4vcDpbVuPDlvG3772GosuLMSI38bj0lTUnDk79Ow17WJyL7Wic9uq8S0x9biwblbUKSQJyJNKNyJiEQINrku3VaD+1/egoq/eXD9Pwbhpv8Mxlkrs3DC+gwcsTkNJ/6QgZ98k40prw3AT+/Jw9r76vHcf7ZjdVEd1GArIqRwJyISAdin7ust1fjn45vR/4EYXP5xHvYrSkJ2nRM2vyX4KpifnV4LsuodmLw5Fde/NwgD/x6LR57YivUl9cFXiUhfpnAnIhIBtle58M5/SnHKc5m45NtcpDTaYdlFKY6RLycQ/k5ZmYmxMxPxzKxt2FrVuONJEemzFO5ERHpYnduHF+YVIv4NK05cn4EYb8c2zTEeK45fmY74mTa8/m0x6lze4DMi0hcp3ImI9LDC6kasm1uPM77K7nCwI1bw2Hx75OI0rJvTgEKdYCHSpynciYj0IK/fj4+/LcdeXyRicFVscGjHMeCNKU5A7NcWbClpNH34RKRvUrgTEelBPh/w1Zpq7L8hCTbff0+c6Ix4jw2j1iVgxfe1aPAERiwifZLCnYhID2KFraTcjewqp6m+ddXAqlhs2+qC26vKnUhfpXAnItKDqhq8cFRZEe+2BYd0TWqDDTXVXvh0mzKRPkvhTkSkB9ksgNfqh39X1z1pp1qHD3FxVlit4agDikhvpHAnItKDEmPtsKQGQpnTF5Y7TJTEuZGW5oBd4U6kz1K4ExHpQcxgIwfEY9HAKvi6WL3zBt6/MqcW2QMccCjcifRZCnciIj3IarHgkLGpWDC2Ag32rp3huia1HoXjXRg7LBFOuzbvIn2V/vpF+gielck7IRTVuLC6uA6bKxpQUuvWJTN6GAtsew9IRMxBVnzevzI4tOM8Vj+W9K9C7sFODErv/PXyRKT3U7gT6QPK6tx47ati/P31jfjXMwWYcX8hnnh0Gx54bjPufWcz3v+hzLxG51f2jORYO448Mg0fHVuODckNwaHtx+9tWUYtFh5diUMOSEVqnH3HEyLSJynciUQpVuq2VjbiXx9twR8eWIfVt9Zj8u9TcOJfMnDOg9k47a5MHHdLBva6PgHL/1SLO1/ehHmrKuDRJTS6ncNmwcHDUzHk7DjMOHK7CXj+dnaZYz+7H9Lr8P6xpTjqp+kYn58UfEZE+irbtGnT/hT8OeIVFRVh/fr1OOyww4JDRKQljGffbKnBE69tRcJDNpz3nxwcsTINY0oT0L8mBln1TuTVxmBATSyGlcZh5Np4JHxrw0cbyrE2tR575MUjVn22upUjsLwHZMWgeogXL9sLEb/dhrQGO5w+a4sXN+Z3XOP04sv8Kjx21lbs87NEnLJvpr43kW7k8/nw7rvvYvLkyYiPjw8O7XnaCohEoQ2l9bhrxiaMfTgRV87vjz1LEkxQaInNb0FmvQNHrEnDhW/nYM3D9XhhQSHq3N7gK6Q7MMDlJDlx2sRMHPazNLx9ZQn+feR2zM0vx8r0WmxOajCXOWFVj79/MLQMTxyxFW/8phhn/ToLpx+QpWAnIoaloqKi17TBLFu2DLNnz8b06dODQ0SkOZ4wcfd7m5F+rx2/WzDQhLeO2BgIDw+dVICjb0jDkXulmbM5pXuxZZzf49yV5fh+SR38WwMDSwKPqsATGRb40gDnXhYMHhqLI/dIQ7/kGPM+EelebrcbU6ZMwdSpU5GRkREc2vN0mCcSRfyBff+7y0sR87wFF32d2+FgRwOqY3H6/Ex8NLMMG8s63rlfuo5n0OYmOXHW/tn41cX9ccGUHJz2h0wcd1sGzrwhC5denYvfnT4QF+2Xq2AnIv9D4U4kivCM18+XVeGor9LRr7ZzO31rICDuWZSIgQtisXBtVXCo9ATeZSI70YkRWfEY1z8JEwenYO+8RAzLjEOcQ5tvEWmZtg4iUeSrgmokfmrDkPK44JDOSXBbMXpdAlauqUVNo/reiYj0Jgp3IlGElz4ZtjwOebXO4JD240Vw64N3SGBz7qDSWLi/9WF9Wb0ZJiIivYPCnUiUcHn9qK30IbHGBruv433trIFAZ2vyvgS3DalFDlQ2qHInItKbKNyJRAmXxwc3w10glHUG+9o5m4Q7hj2rG/DqosYiIr2Kwp1IlIixW+FIsaDGEZ5Km8/ih8+xo1O/iIj0Hgp3IlGCt7BKSLGhKNUFl21H37muYP87V7oPybGdqwSKiEjPULgTiSK8RMb2vV0ojHcHh3ReSYIL1aO9GJrRtTNvRUSkeynciUSRvXITYRlnwbq0enTinIqdGuw+LNqrGmP3SkCCU5U7EZHeROFOJIqkxtkxfr9EzDqwBFsTGs3N5TtjQf9KzDmyHAfvkRocIiIivYXCnUiUOXGvTKScYcfrexfBy1NgO2h9Sj1eOaEQPzkmC0PT1SQrItLbKNxJ2DBGeHx+NHp8qHf70BD4l7/rQhrdKzHGhvOOzcHGixrx+H5bUR7jCT7TNl7EeEVmLR45fismnZ+KM/fNhkUnyoqI9DoKd9JlvA4a72m6qrAOc74rxzMfbMddr27C/TO34PWFxfhqQzW2VjWawCe7HwPZkIw4/PSMPKz7RT3uPH4jvuxXhfJYT4tB22vxozjOjVl7lOJfF27BQb9LxlkTsszZtyIi0vtYKioqek1hZdmyZZg9ezamT58eHCI9rdblxfx1Ffj60xps+bIBWRucGFwai1i3FU6vFevT61EwoBH2fSwYMyEBx+ybjn4pnbuhvXRceZ0Hb31bjG8+q0G/eTHY59tEJDXaEOuxwe63BEKdC0Wpbqzdqx7FR7vwk0OzccCQZDgV7EREdsntdmPKlCmYOnUqMjIygkN7nsKddFpprRszPi/E6hl1OOaTdBxSkIrURnvw2f+qdXjxTVYNPt6zHNbTLTjm1DSM758Emy6O2y34B14W+K7m/FCOFWtq4S8J/OFXBR4uwDcMSOhvw7h+iThsWJqqdSIiHaBwFwYKd5GDzbCPvrUVeBo4b2EOBlbHmNtVtYYrWVWMB7OHluOjc8tw3sU5mDwkBTZ16uo2vIsY+0HWNHrQ4PbBHRiQk+REoi51IiLSKZEa7tTnTjqMfedeWliExud8+MXcfhhcFdtmsCM+m9Jox4mrMnD6v7Pw2rPFWF/coJMtuhELpfEOK7ITnRiYFothGXEKdiIiUUjhTjrs03UV2PhiA674pB8y6h3Boe0T67XiiHVpmPSfFLz6bhEq69t3JqeIiIi0j8KddEhJrRsfzCvDsXPSkVPnDA7tGLvPgkPWpKLxXR+WbKwODhUREZFwULiTDvluaw0cCy0YWRy/y6bY1vBdmfUO7LMyEYvXV6lpVkREJIwU7qRDNpQ3IH9ZDHJrO1e1C3H4LBi6LQ6VKz0oqnYFh4qIiEhXKdxJu/FuEw01XiTW2WHrZNWuqSSXHY5CqznzVkRERMJD4U7arc7lRWORD+kN/3stu86I81gRU2pBhU6qEBERCRuFO2k3h80Ke4IV9fbw3EaMt73y26CLGYuIiISRwp20G0OYNQYm3IXjJAiOpyHbh7T48FQCRUREJELCXX19PRobG+H367zJSMb7jaZk2LE5r8HcUqwr+E1vSQyMZ5AX/ZJ1r1kREZFw6dFwV1tba24n9q9//QuPPPIIPv30U7hcOnMykh04MBllkz3YltgYHNI5rNp9M6oGw0fEIUF3SRAREQmbHgt3Ho8H8+bNw6xZszBo0CBkZ2fj9ddfx8KFC4OvkEg0NCMO/Q5y4t09S1Ht7Hz1bl1qPb45qAbH7Rk59+ITERGJBj0W7li1mzt3LsaPH4/TTjsNJ510EsaMGYP58+ejulp3LYhUdqsFpx+QhXXHNmBBfgV8lo43pRfFu/DKpEIccWKqucepiIiIhE+PhbuSkhLzGD16NBwOB5KSkjBu3Dhs2bIF27dvD75KItHgjFic+JMMvHtSKZZm1cJjbX/AY7C7c/Im4ALg1HFZcNh0pqyIiEg49Ui444kTDHD8NzExMTgUiI2NNSdXtFW5W758OR588MGdj1deeQXFxcXBZ6U78KzZw0ak4uDLUvHAuVswc4/iXTbRMv6tT27AY4dvheNyC644vj/S4nSWrIiI9B7r1q3D008/vTODPPTQQxGZQXr0hAqyWv93Eto6azY1NRWjRo3a+WB/PYZC6V4xditO2TsTl12dhxXX1uDm09bh1T2LUJDYiBqHFw12nzmjtioQ+ubnV+APx67Fv67YgpE3xeN3pwxE/xSdISsiIr0LC1LDhw//UQ6JiYm8/ZmloqKi452muojh7ZtvvsEDDzyA6667zjTNEqtyd955J6655hrss88+ZlhTy5YtM2fXTp8+PThEepovsPaU1rqwZls95i6uwNdLqpFYa0N2mRM18V4UZDbCkgocckAqTtg3A0PSY+EMBEMREZHezu12Y8qUKZg6dSoyMiLnBMEe2ctaLBb069fP9LUrLy83wxj4ysrKTGUuMzPTDJPIx5tLZCU6MWF4Cq45ewDuu3kEbrxlME66NQNX3toPT906Gk/9bjR+dWR/jMyOV7ATERHZzXpsT5uQkGCaVHltO4a6bdu2mUujDBs2DFlZWcFXSW8RyOumqTYnyYlhWXE4eEQq9spPREqsHcmBB58TERGR3a/H9rhxcXE49dRTUVlZib/97W+46667zAWMeUkUp9MZfJWIiIiIdESPhTubzWb62v3mN7/Br3/9a1x99dXmMWTIkOArRERERKSjerStjGfK8s4UgwcPNg/2tWN/PBERERHpHHWEEhEREYkiCnciIiLyPzw+Pxo9PjS4fahzeVEf+Je/e3kNLIloCnciIiKyk9vrR0FlI975uhSPzdqKu1/ehJufWI9bn16Pf71RgHeWlGJtST1qGtu+M5H0HIU7ERERMQqrXXhzcQkeeaIAX/6xChk3OzDuliSc/ddsnHBbBvL/FIOlN9Tg/r9uwYyPCrG+rMFczF4ii8KdiIhIH8cm2G+3BkLb61uw/qZ6nPiPDNz67lCc/20OTliVgQO3JOOQjak4e1k2ps0ZjOseGwjPLT48/9R2zPm+zDTXSuRQuBMREenj1pfW46mXt2LQ/bG4cn5/TNiWgtauXWH1A/k1MfjZV/1wxINpeP3RYsxaVmoCokQGhTsREZE+rLTOjf/MKcYeL8fjwm9ykOSyBZ9pW6zHigM3JuP813Mx991yLN1aE3xGeprCnYiISB/FYtsHy8pQ/7wPly7OQ7ynfcEuxOGz4IAtSZj0QgreWFCCGpdOsogECnciIiJ9VFGNC7M+K8EZX2Qhwd2xYBcS47Xi4PWpqP3IiyWbq4NDpScp3ImIiPRRn62rxMj5CRhSHtdqH7v2yKlzYtzniVi2vAZ1blXveprCnYiISB/13ZYa7L8iCXGersUBu8+CPUriUf6DBxV1nuBQ6SkKdyIiIn1USY0bqZV22Pxdv697eoMDDUU+1Ll1WZSepnAnIiLSB7k8PtgaLKbqFg5xbis81T64vAp3PU3hTkREpA+yWgOhzgaEKduh3uGDI9EKhy1MI5ROU7gTERHpg+yBcJecYkN5khteS9cvQFwW44Yjy4I4e+fOupXwUbgTERHpo0Zmx2PdwHo02rrelLo5uRH2wRYkxijc9TSFOxERkT5q0vAUfDWpGptSGtGV2l1ljAdrhtZjxOh4pMbZg0OlpyjciYiI9FG5yTHY/+BkzB9dAXcnq3c+ix9Lcqux4fh6TBiYEhwqPUnhTkREpI+KtVtx6F6p+OHkOnwwvAxua8frd6vT6vHukaU46oh09EtxBodKT1K4ExER6aMsFmBETjzOOjMLi0+pxtzB5e3uf8eTML5Pr8W9x21G/nkxOHHPDFg5QulxCnciIiJ9GM+aPXBYMk64IgPvXVqGp8dtw6akhjb74NU6vHhjeAnuO28Lxl+RhF8e2R9xDkWKSKFvQkREpI+zBQLefsOScPal2dj2Gxf+cv4G/GPyRiwcUImieBdqAmGuJN6N9akN+M+exbjm9NV478pSnHp1Ji6cnIsYu+JEJLFUVFR0/eI23WTZsmWYPXs2pk+fHhwiIiIi4eLx+VFW58ayrbX4ckUVtm1qRMl2NyzVgeeS/EhIsGH08ATsNz4Je2THIzfJaSp/fZXb7caUKVMwdepUZGRkBIf2PIU7ERER+ZFAxoPb6zNhz+X1o67Bi8Q4m+lTxzAXY7eof11ApIY71VFFRETkR1iMY1NrgtOGtDg7+qfFICXWjqQYm+lbp2AX2RTuRERERKKIwp2IiIhIFFG4ExGRH6l3+7CquA7z1lXgnZWl5jFnTTkWbqjEpooG0w9LRCKXwp2IiBjVjV58uKoM9721Gc/fXYgPry3Dgl9UYuGVlfj4N+V44w8lePSJrXjokwIs3lxlOt2LSORRuBMRERRUNOLx9wrwwR1lGHlTPC54JAfXvzMIty0YilvnD8UNHwzGta8PwCl3ZSJtmh1PPbsNC9ZUqIonEoEU7kRE+jg2wd77wmY477bidy8NxCk/ZGJkeTwS3TbzPM+LjPdYkVPnxEHbknHm19k4/cksvHd7GZ6cvw117s7dcF5Edg+FOxGRPmxrVSMemlmAUU8m4LLP8pBb64TN3/ZlLhj0jlqfjvPezMbSx2rw8bJyuL2q4IlECoU7EZE+qqbRixnzCjF6Rjwu/DoHCcFKXXtYA1lubEkiLpudh49eKMPKrbXwK9+JRASFOxGRPmplYS2q3/Xi+G8yEOPt3O5gz5IETHg/Ga/OL4Lbp+ZZkUigcCci0gd5fX4s21SLAV/EoH9NTHBox8V5rDhkXSqqvvBgXXF9cKiI9CSFOxEJC540WVrrxorCWizaVIW5ayswf30Fvi6oxqbyBhMmJHIU1bhR+JULo7cl7LKP3a6kNNoxZHWcudm8iPQ8hTsR6bLyeg/e/LYYD88owEt/L8JbfyjBh9eU4f3ryvD6LcX41zMFePaL7Vi2vdbchFx6XnWjB9XrPehf4wwO6Tyn14pBBbFYo8qdSERQuBORTnN5fVi4thJ3PrkRy2+txSG3pOKSJ3LxfzPzccN7gzD17YG4YkZ/nPqPTGAq8NI/C3Hvx5uxraoxOAbpKQ1uHxrL/EhpdASHdJ7dZ0F6uQNF1a7gEBHpSQp3ItIptS4vXltUjBkPbsexd6Xjl+/0x6FbUjGsMg7ZdU5z5mWKy478mhhMLEjB+Z/n4JLH8lB7rxdPvr8N2yoVBHqSzWqBLSYQ0G1dPwmCjboMeGp6F4kMCnci0mE+vx8frSzDF09V4Zf/zschG1KR0dB6BYg7/1ivFXuUxeGXH/dHzKNWvDq3CFUNnh0vkG63I9xZwhLuPFY/StLdyE3p/IkZIhI+Cnci0iGszawqrMPbz5bgtHczsVdxxzrk59Q6cfHnuWh8wYePvi8PDpXulhhjg3WABQWJXW8ibwwExBUDa9Evtev990Sk6xTuRKRDXB4fXpxbhMM/SsOhW9KCQ9uPMTC7xonj5qTj83cqsaZEnfB7QlqcHRkjHfi8XxXq7N7g0M6pcXixaY8G7JufFBwiIj1J4U5EOuTrLdWomOvGEevSzF0KOoMBb1hZPPJnx2LJxird2aAHxDttGLdnElYfWIdNyQ2mItsZ7sBKMHtEOQZOjsWonPjgUBHpSQp3ItIh326uwfilycio79pZlrw/6ch1cdiyrBEV6nvX7RiwDxiUhPzDY/H2mFLUOTpXvVuWWYP3ji3FYfunwmnTLkUkEugvUUQ6ZG1xPQZtiYXT1/XNR7+aGFRv8OrEih6S4LThvKOyUXi+C3OHVcBr6Vj9jhW/5w7bjpPPyMT+A5JhaX/XSxHZjRTuRKTduOuvd/kQ02hFB3NAi3hnA1epD/Vu3ZO0pwxKj8NZx2dj3pUVeGr8NlTEeNDW+TH82hvsPnyVW417T9iMYZfH4YRx6XDYlOxEIoXCnYi0Gy98a6uzwOELz46cZ9n6vYHAoE53PcYa+CrHD0zCT8/Pw9b/a8Q/A4Hto8Fl2J7gQpXTg1qH1/Sr479lsW6szKrFs5O24/7Lt+CA3ybjksPzkBRjD45NRCKBwp2ItFucwwprIlDv9Ha6A35TDA/ONCti7NoU9SSnzYKROfG4+pwBOPDPyXj198V46IICPHvsdrxwSCFeHVeE5w/ZjkfP2Ipnf7sdzlssuPE3g3HG/lmBYGcLjkVEIoW2qCLSIVnJDpSmus2Fa7uqKN4NS/aO0Cg9Ly3ejhP2zsDtlw7DiTdlIPc2Jxy3W7D9bhect1ux35+S8H+/zsdlh+Vhj6w4hXKRCKW/TBHpkIlDU/DNPjWodnbtJAhz4dvsWqSNtiM9vuv3N5XwYIM7r4F30KBk/GTvbFx6QB6uOXQALgv8e8yIdOTrLhQiEU/hTkQ6ZHReAlyH+fBd/xp0pesdz7Rce3A9JoxMUQVIRCSMtEUVkQ7JTHDgiIlpeHdCKbYn/O+tq9j5flehj69ZOLwSqUfbMSYnIThURETCQeFORDqEN5yfMDwFKWfZ8fiErSiMdwWf2WFHuGu9Px4vs/HWiBIsO7cWPz+sn7nHqYiIhI/CnYh0GC9+e+mRecDPgccO2YrNSQ07Ax3vPGFvoXTHC+SWx3jw8phCzDqnBGeemYXcZN1oXkQk3BTuRKTDeCeCfikxuPz4fhhyfRzuuXQz3h9ZhoLERnMTeVbviBmPJ06UxLkxb3AF7jhlIxZeXYmrfpaPCUNSzGtERCS8LBUVFeG4XFW3WLZsGWbPno3p06cHh4hIT2v0+DBvTQXmfV2B2sVeDFsah5xiJxIqbfA4/KhI82DTkAYUHuHCKZMyMW5IEtLj7bDqXlUi0su53W5MmTIFU6dORUZGRnBoz1O4E5Gw8Pr8+L6oDos3V6G41o2yOjccNiuyEx0YmRWPw4al6RZVIhJVIjXcqVlWRMKCJ1qMyU0w10W77vCB+OuJw/Dn44bg15PzcfQI3XtURKS7KNyJiIiIRBGFOxEREZEoonAnIiIiEkUU7kRERESiiMKdiIiISBRRuBMRERGJIrst3Hm9XpSXl5trwIi0h8fnx/qyBny6vgKvfluEJ77YipnfFeHzjZXYWN5grqMmIiIibQv7RYx9Ph9WrFiB999/H9u2bTMX9Tv++OOxzz77wGr9cZbctGkTnn76aXg8HliCV6vfY489cOqppyI5Odn83pQuYhx9uPLxDgerCuswf1kFNi5oQOpmO1K22xFXaUVDig/l+R4UDG3EsHFxOGqvdIztl2CuqSYiItKT+sxFjAsKCvDSSy8hKSkJF154ITIzM/Hiiy9i8+bNwVfswBDIYWvWrMHgwYMxZswY8xg0aBAcDkfwVRLN/IFkV1jtwqMfFuCBu7bAdpsFV97fHz9/uR8umZOHC7/MxcVzcnH5C/1w8YO5iPmbFY/dX4AZnxeiutEbHIuIiIg0FfZwt3LlStTW1uKYY47BuHHjcPLJJ5sm2uXLl5sKXQh/3rBhA0aMGIFzzz0XZ5xxhnlMnDgRsbGxwVdJNNte3YjHZ21F3b0+3PjUYFz2WR6GVcQhu86JJJcNMV5r4F87cmudmLA1BT8NPH/+87lYdl8NXllYhMqG/65PIiIisoNt2rRpfwr+3GWNjY1YuHChqcodeuihJqQlJibi22+/RVlZmQl7oapcQ0ODaWKtrq42YfC7774z/2ZnZ8PpdJrXNFdUVIR33nkHFRUV+Oqrr8yDTbusDsbHxwdfJb1Bg9uHlz4sAu4Ervy8P3ICAc7ua72plc84fVYMrI7F2A2JmF1ejuKBbozJT9AN6EVEpFuwKDVr1ix8+eWXJoMsWbLEFK9Y0IqkHNLlyp3f79/5cLlc5iQKhjqbzWaeZ186/lxZWWlCXwgrdwxmfH1hYaHpn/fcc8/hjTfeMCGxNQyL/fv33/loKwxKZPIF1pXHFhTg+5dq8dPv8pDssgefaR8GwQs/zsGKp2sxd1WF6bcnIiKyuzHf9OvXb2cGGTBgAOz2ju3DukOnwx3DHKtx7DO3evVqrF27dmezKwNd6AQJavpzSExMDM4880xcddVVuOSSS3D55Zeb5PvJJ59g/fr1wVf9Ly7IE044Yedj0qRJLZ58IZGrrM6DRQurccnsPKQ1dLx/JdemwRVxmPRZCmYtKsG2qtYPBkRERMIlNzcXRxxxxM4McuyxxyI1NTX4bOTodLhjle6zzz7DPffcg7vvvhtPPPEE6urqkJCQYM4eCVXpGALZ547lyqZnyzLpjh8/HiNHjjQnX6SlpWGvvfYyr2eVT6LX698WY9TCeIws73wJ2+GzYP+NyYj/0IaVhXXBoSIiItLpcMem0MmTJ+O6667D73//e/zyl79ETk4O8vPzTZ849qmjqqoqE9aGDx++s78dAxz7z7322mumaTY0rL6+3vzMqp5EJ5fXh3Ub63HoslTEe3Y03XdWdp0DI5fGY92mejNeERER6UK4Y1MrS5FDhw41D17ChNU4hjgGOzavMsDNnz/fBLzRo0ebZtsFCxZg0aJFprK3dOlS08eO/e3YSfGDDz4wza68NIpEp+3VLljWAVnVTli62FnO5rcgvdKOqkKPOUFDREREwnBCRXMMeieeeCIWL16Mv//97ybk8fdhw4aZ5lpe4PiHH37YeR08Vvn4uvvvv9+8n8NSUlLMzxJ96lw+OKqtcHjDc4ZreoMDriI/al267p2IiAiF/Q4VxD52rN6xOscKH5tZQ02yPBOWw0PXsuPrQidi8KzauLi4Fk/AIN2hovdbtr0Wr95VhMsezcPgqq5fz3BufgU+v7ESP704D9mJOmtaRES6T5+5QwUxpPHEClbneOmSpnecYNALBTg++DNfxwdPumgt2El0yE1yojbfi2pneC5AXBMYjzPVihj7blmVRUREeh3tEaVbxQZCmD8eaLB3vY8cS85FiW74s3eMV0RERBTupJvFO60YMjQWn42sRJ29a/3kiuNdKNrLhbEDEuC0aVUWEREh7RGlW/FWYcftk46lh9VifVpDp+8uwfctz6lFyeFu7NMvEWrNFxER2UHhTrrdkPQ4HHp0Kl7YvxAlca7g0I7ZnuDCW5NLMPHAZJ1IISIi0oTCnXQ7m9WC4/fNgP8sP2bsXYgqZ/ubZ30WoDDehVcOKsTgS2Jx1Mj04DMiIiJCCnfSIzISHbjopFxsubQRDx6yBetS63fZRNto82FVeh3+ccIm+H4DXDQ5FymxkXfDZhERkZ6kcCc9wmoBRucmYNolg5A5xYHXTyvG/MEVWJdSjxqH11ToyGvxo8rpwdpA+Ht57yI8e9k27Pu7RFx8dC7S4/97iR0RERHZYbdcxHh30UWMo1NNoxeLN1bjwwVl8H3lR8o6O5IKbbB4A88l+ODJ8KFxuB/2Iy04c78sjAmEQhERkZ4WqRcxVriTiOAPrIUVDR6sK6lHSa0LpWUeeH1+JCTbkBxrQ15yDEbnxJuzbUVERCJBn7pDhUhHMbOlxdmx34AkHDcqA2cflI3zJubgzL2zcPSIdFOtU7ATERHZNYU7iUgOm8U8REREpGMU7kRERGS3Ybeb6kYv6t1dv+2ktI/CnYiIiISNx+dHVYMHX2+sxr/mbMHVz63C9Q+vwbSn1uD3L6/BA7O3YMHaShP2GPwk/BTuREREJCxYoZv5VRF+99AaPP/nQqTcZMclN+Riyi0DcNnNeTjphkyk/tGOV+4oxM3PrMOC1RVo9KiiF24KdyIiItIlPj+wvdqF5+Zuw5L7qnH2A9n444zB+MmibBywNRmjyuIxbnsSDlmfgnO/yMH054bg8DvSMPPeYrz4eSEqGzzBMUk4KNyJiIhIlxQFgt1Db21B4T0uXPPaABy7Lh0pjXbEeK1oemqc1W+Bw2dBeoMDR61Pw0Uzc7HywTq8ubjENOdKeCjciYiISKfVub14Z1EpfM8D/zd3APJqY4LPtI3Bb3xhEi7/IA8rnq7FvB8q1AcvTBTuREREpFMYxj5fV4UVM2rxq7n9kVXfsdtCsqo3uCIOR3ychvf/U4rVJXU7npAuUbgTERGRTvEG0t3sr8px5MI05NW1r2LXHJtpJ25OQeYHDixaU2XuTiRdo3AnIiIinVJQ0YjSJW4ctDEZli5ksiS3DZNWpeKHz+pQVOMKDpXOUrgTERGRTlm8sQpjViYgztP1ODGwOga1a7wor9eZs12lcCciIiKdsqW8ETnFTth97btdpNfiR2sFvtRGB/zlgEvXvesyhTsRERHplOoGL+LqrOYSJ+1RZ/fBY2053iW5bHBV+tHoUZ+7rlK4ExERkU5JjLGhPs4LXzs73LFvHU+gaInL5ofdaYFVyaTLtAhFRESkU/JSnCjMcMPdSjWuI7YlNCJ+kBVJMfbgEOkshTsRERHplD3zErBueD2qnd7gkM5bn1IP6xCLqQZK1yjciYiISKfkpcbAt68fS/Kr2t002xJW/lbk1yJ/vxhkJXTsQsjyvxTuREREpFPS4+044YAMfLZ3FUpjO3cJE0bC5Rm1WHNoPSYOS0GMXdGkq7QERUREpFOsFgsOHJaMzDMdeGHv7ah1dLx5tjzWjTcnFmPwCbEYkRUfHCpdoXAnIiIinZaW4MBJR2Vg7YX1+Hcg4FXEeFq9ll1TPGm2OM6N5ycWwnW2DxcdkIs4h2JJOGgpioiISKdZAiFtj6x4/OzMflj/ywa8FAhrKzNrUdNGFa868NzinCrcf9Jm+Kf4cfVpA5Aer7524aJwJyIiIl22T/9E3HjhIDivt+LJy7bh/smbMXOPYnyTVY2CxEbzWBQIdK+OKMKjxxTg1d8UYcT18fjpCf2Qk+QMjkXCwVJRUdH1i9N0k2XLlmH27NmYPn16cIiIiIhEkppGL1aX1GHJhmoUrnPBs9mP6kIP/IG0kZxvh7O/BXvtk4i9A2Gwf0oM7Nb23d0iErndbkyZMgVTp05FRkZGcGjPU7gTERGRsGv0+FDr8qLe7TMPindaEeewIS0uOi5UHKnhTs2yIiIiEna8pAn70bE6Nzwzzjz6JcdETbCLZAp3IiIiIlFE4U5EREQkiijciYiIiEQRhTsRERGRKKJwJyIiIhJFFO5EREREoojCnYiIiEgUUbgTERERiSIKdyIiIiJRROFOREREJIoo3ImIiIhEEYU7ERERkSiicCciIiISRRTuRERERKKIwp2IiIhIFFG4ExEREYkiCnciIhJxvD4/qhq8cHn9wSEi0l4KdyIi0uM8gTBXUefBp6sqcM8Hm/CbZ1fhxkfX4oZ/r8GNM9fiuc+2Y11JfSDs+YLvEJHWKNyJiEiPKq11Y+aiIlxz72q896cy5N8Yi8um5eGqW/rjnD/k4Kgb0lH3Ry/uuX0z/vLqBizdWgO/CnoirVK4ExGRHsGm17Wl9Xh4VgG+u6MGv3qgP66fOQinfZ2J/QuTsWdpAg7ckowj1qTisk/y8IeHByP37hg8+fg2fL6uEo0eVfFEWqJwJyIiPWJVcR3um7EZqf+046a3BuOArclIctng9P1312QJPKx+C2K8VuTUOnHxN7k46ekMPH9vIeaurtjxIhH5EYU7Eel+fj/8Hhe8NRXwFBegYeWXqF+2EK7NqwLDKuH3esxrJHoVVbvw+sfFGDEjHpcuyUO8x2aC3K4w/B2+MQ3nv56DT14ox9JtNcFnRCRE4U5EupWvvgYNq79BxYy7UTT1TJRcdw5qrv8Faq+/EhVTL0LJHy5CxQv3oGHdUvgaaoPvkmji9voxd3kg2P/bj4u/ykViILB1hN1nwfjtSRj1dgLe+KDE9NkTkf9SuBOR7uH3w1tZjMrXHkb1dZfC/pe/I/PZech+4XOkv7sU6R8sR+Zri5H++Huw/eUOVP7l/1A98xF4Sreqihdlal1eLFlQjRO/ykCyyx4c2jFxHiuO+yEdJe+5sGp7HXxaRUR2UrgTkd3P70PjhuUof/hPsNxzjwlySavL4ajzwur2werx73i4/XDUegLPlSLttc+A225D5aN/QcOab3Y01Uqvxwy2prAOFYs92KcwacfATsqpc2LC0hTMX1SBukBgFJEdFO5EZLdzbd+Iisf+AufDTyP5222wNbZ9lqMl8LSzyoPkVeWIe2QGqp+6E+6iTYFnVJ7p7Xw+P774vgoT1ibDGoavc3RxAjaua9D170SaULgTkd3K11CH6reegvPND5C4ud5U6NrL4vUjbnMVYl//ENUvPWD660nvxm9/U3EDBpfGBnZA7TmFom3ZdU7UVnqhbCfyXwp3IrJb1S9dAP9bbyJ5bSWsnbiVlMXnR/y6MuCtWahdMic4VHordp+sqfMiucEelkJser0dVQx36pcpslPEhDt/4A+zpqYGbrfOehKJFqza1X3xPuK+WbvLpti22Nw+xC/fjMYl88w4pfeyWICEOBtqYrzwd71wh0abD06nBdYwjEskWkREuGOwKygowIwZM7B169bgUBHp7Vxb18KyaAmcZfVdq9IE3muvdsH/9VeBca4JDpTeKj8jBttTA99nGEp3a9PqkT8gFk6bGqJEQnr8r8HlcmHNmjV4/PHH8fHHH6OuTkflItHCV1sJW3F5h/rZtYbVO9vGAnjLi4JDpDeyWizYa3AivhtUDZet6+vF0qxaJOTYVLkTaaJHw53P58PSpUvx0EMPoaGhAXZ75653JCKRyVNRBEvBtrCEO55cYS2tgLe2KjhEeiM2y+Znx2D7Pm4sy+raCTL1dh/WDanHYeNTkRjTsQshi0SzHq/cWa1WHHPMMbjkkksQFxcXHNq6VatW4Zlnntn5ePvtt1FaWhp8VkQiD4NdGMKdL/CoqYXfpep+b8YC24DUWBwwIQmzh5Sj1tG569N5LX58PKAc7qP9GDkg3lQERXa3TZs24eWXX96ZQZ599lmUlZUFn40c3Rru2Lcu9CAGu3322QfHH388kpLadzHLmJgYpKWl7XwkJyer4icSoWzxyfCnpcJv6/qO1xcYhy8jDdaElOAQ6a1i7VYcu186qs704N0hpXB14oJ3G1Ia8MFRZdj/iCRkJzqDQ0V2L4fD8aMMkpGRAUsEHlh0W7jjmbAbNmzAunXrzIN97YgBryMLZtCgQTj11FN3Pg499FCkpGhjL+HHYxCX14/qRi8q6j0oq3OjqsGDercvDHWovsGWmgVk58Afhg5RfrsF/n65sCVnBodIb8VN/qDMWJxwWgY+OKcM7w0rRZ29fRU8VuwY7GYcth1DfhKL40dlwBGGgweR9sjLyzOtjaEMctJJJ5mQF2m6JdyF+tb985//xB133IG7777bBL1QBU8k0jR6fPi+qBavLSnC029sw0MzCnD/k1vw5Kvb8PLsQsxdVY7NFY0mAErr7Bn94N1rJNxJzh3tcV3gibXCM2oYnNkDg0OkN2Mz6viBSTjl3Ex8fFk5Zo0txfqUenNpk5b4AutPeYwHHw+owL1nbEbSlXb89LA8xDl6vHeRSMSxTZs27U/Bn3cbVuZSU1Ox1157YdKkSZg4cSL69+8Pp/O/pfSqqirMmzfPPJeVFTjab0FRURHWr1+Pww47LDhEJPwWb67CawuKsfjlapQ97saQd+IwZE4cRs5LQOwCK6rnefHdolosqaxCRbwHGQkOJDjVmbslFpsdXm8D3N8tgnNrJSydDMP+wP67bnAa/OeejcSDTggOld6Oly/ZIysew0bG4bOcSsxNqsAPtjo0BFaUervXBLrSODdWpdVhSb9qvH9IKb69sAaTz03FhRNy9HcnPY7Fq3fffReTJ09GfHx8cGjPs1RUVERE7WHz5s249dZbcc0112D06NHBoT+2bNkyzJ49G9OnTw8OEQmfBo8PX6wLBLsXizD+9SRM2JiCEeXxLRacqpwefJ1bg9kHlCH2QisuOyoP/ZJjgs9KU+5t61F+57VImvEe4ooaOnVuRUNGDKouPBap198DZ79hwaESLVgBL68P/E0VVOPLVVVwrfPBU+RHXYkXtjgLEvNscGRbccDEJOyVm4isJAdsEdjPSfoe3nhhypQpmDp1qul/Fykipp7NvndcMDo5QnqC1+fHnBXlePHuQpz9ZDbOX5qDka0EO0p22XHoplT8/IN+GPCPWPztyY3YWB4ILvI/7Fn5SLzkt6idMBLu+I7/fbsSbag6ZCTizv05nHlDg0MlmjCnpQfWjSOGp+LXR/XHlZf1x8+v7Ycr/hz4+abAz1f2wy9+0g9Hj0hHbrJTwU5kFyIm3PXr1w833HADhgwZEhwi0n0Wb67GZy9W4tcz+2PC5hQ4vbv+0+DuZUB1LM76MgsD34zBzHnF5qQL+TGL3YG40QfC8YvfoPqIsWhMj23XCRa8NVVjih1Vh++J2CunImG/o3ekAIla7IeXHGtHbpITg9JiMTI7HsMy4kxVPDPBEXyViOxKxIQ79svTZU2kJxTVuHDvrM0Y+0Yi9ixNgJ0dfdqJr4zz2HDe4lxsfqEB76+IvOsdRQJLTBySj7kAMX/4G6rOPxqVI1NMcGutNGpC3fBkVJ4xCTE3/hVJR5wFa0zk9GcREYlkERPuRHrKZ+sqscfceJy4OgPWTtzJnO/oV+PEWQuz8N2iGlXvWmFxxiB+/6OQfN3tsN7xD1RfeDxKx2ejYnQaqgcnoWZQIqr2SEHxQTmoPP8oeG74HZJv/CcSDzzehEMREWkfhTvp09xeP774vgr7fZuEOE/n/xxsgVC4R2k8HAst+GpLdXCoNMezZ2MGj0HS8ReZ4Bb7wDMm6Hmn3wD3TVPhv/UWJDzyCtL+9CjSzvktYvcYZ94jIiLtp3AnfdqG8nrYl1kwqijeBLSuSG9wIHddDLZXuODT9e/aZHHEwNl/GBIOPAZJJ1yMlAuvQeqlv0fyGVcgfuxkOHIGwpqQHHy1iIh0hMKd9Gk1jV44yq1dqtqFOHwWZBc7ULbNjQZP5+6X2edYbeaEC4szducDVm2WRES6QltR6dOqGgLhrsKCWE94LoYa47XC1+CHx6vSnYiI9AyFO+nTeIV7d5IfrlZuedRRtY5AWEy2wmnXn5aIiPQM7YGkT0uNs6Mxw4d6e3jCXbXTC2eqFTEKdyIi0kO0B5I+zYS7fB82pzbA29kbnwYx2FXmepAab2/1zhYiIiK7m8Kd9GkpsXaMHpuAT/eqNE2qXbExpQFFR7hw0ECd5SkiIj1H4U76NIfNgiNHpqFkPzd+yKjrzD3tjSqnB18EAuKogxOQnxoTHCoiItL9FO6kzxuQFoNjzkzDjOMLsSW5MTi0/XgyxusjivHlGVU4ZFSKuT+miIhIT1G4kz7PZrXg8JFp6H9mDB6dUICieFfwmV1zWf14f3AZlp1fiyk/GYDhmbr/qYiI9CyFO5EAXhLl3INzkPtrJx44ews+Hlhu+uD5WijCsenWHQh1WxMb8eABWzD/qgqcf1EORufGQ0U7ERHpaQp3IgEMZfkpMbj42FyMvioBz125HdNOX4vZQ8tQEAhxhfEulMS5sTWhESuzavHvg7bj2kvWYNvVjbjy0v7Yd0CimmNFRCQiWCoqKnrNpfSXLVuG2bNnY/r06cEhIuHn9vqxoawen62vxIJllajd6kN6uR1xtVYUZbqB/sDkESmYvFcK+gcCYVKMXRU7EZE+yO12Y8qUKZg6dSoyMjKCQ3uewp1IK/yBvwx/4H+8/2xRjRtV9R70C4S5rERHIMxZYFWgExHp0yI13KlZVqQVrMaxqTU51o7hmXEYPyAJuclOcwKGgp2IiEQqhTsRERGRKKJwJyIiIhJFFO5EREREoojCnYiIiEgUUbgTERERiSIKdyIiIiJRROFOREREJIoo3ImIiIhEEYU7ERERkSiicCciIiISRRTuRERERKKIwp2IiIhIFFG4ExEREYkiCnciIiIiUUThTkRERCSKKNyJiIiIRBGFOxEREZEoonAnIiIiEkUU7kRERESiiMKdiIiISBRRuBMRERGJIgp3IiIiIlFE4U5EREQkiijciYiIiEQRhTsRERGRKKJwJyIiIhJFFO5EREREoojCnYiIiEgUUbgTERERiSIKdyIiIiJRROFOREREJIoo3ImIiIhEEYU7ERERkSiicCciIiISRRTuRERERKKIwp2IiIhIFFG4ExEREYkiCnciIiIiUUThTkRERCSKKNyJiIiIRBGFOxEREZEoonAnIiIiEkUU7kRERESiiMKdiIiISBRRuBMRERGJIgp30iK/34+ysjLzr+x+Wt7dS8u7e2l5dy8tb9mt4c7r9aK2ttb8K71LTU0NXnnlFX133UTLu3tpeXcvLe/upeUtuy3c+Xw+fP/995g5cyYqKyuDQ39sy5YtuPPOO/HXv/515+Oll15CdXV18BXSUxobG/Hdd9/pyK+baHl3Ly3v7qXl3b20vGW3hLuGhgazYj366KNYsmSJWdGaY/jbtGkTvv32W6Snp2PgwIHmkZ2dDZvNFnyViIiIiHRE2MMdy8Bz5szB008/bQJcazweDzZs2ICRI0fiwgsvxDnnnGMeBx98MOLi4oKvEhEREZGOsFRUVIS1bsvQxnAXExMDq9WK119/HVOnTkVeXl7wFTvU1dXhwQcfRFVVFSZMmGCqe/n5+Rg7dmyr4e6HH37AM888g8mTJweHyO7CpvS3334b5513niqp3UDLu3tpeXcvLe/upeXdfZh5Fi5ciBtuuAGpqanBoT2vy+Eu1KZvsVjMv/ydFTv+vmjRItOHrqVwx5XvpptugtvtxqhRo0zY27x5M4455hiccsopcDqdwVf+F0/O4DjVJ09ERER6GrNOVlYW9t9//4gK0p0OdwxxDGh88GdW6fr3779z5jjsyy+/bDXcsV/e3LlzzUIZNmyYCXmzZ8/GJ598gmuuuQYjRowIvlJERERE2qvTfe5cLhfmz5+Pv/3tb7jttttME2sgKAaf3TWHw2GaY/faay+kpKQgMzMT++67r+mz15HxiIiIiMh/dTrcMZxNmjTJVNmuu+46XHHFFSaktQerekVFRXjrrbfM5VBCw0Jn1XLcIiIiItJxnQ53bIbNyMgwZ7vywaZVu90efLZlbIplU+3XX39tOiHyZwa84uJiE/I+/PBD9OvXD4MGDQq+Q0REREQ6Yrdc5y6EZ8wmJyebIEhsymWw47XtkpKScMEFF6CwsNBcvPiuu+5CfX29uSxKWlqaeb2IiIiIdEzYL4XSFJtaeWZrQkLCzhMtGOB4Nm18fLz5nWfA8mQKYuWPrw2FQRERERHpmN0a7kRERESke0V8iYzVPz6kZ+k7CD+t2z1Lyz78tE5HDn0Pu0dvWccjunLHBVhWVmZOxMjNzW31AoG8y0Xz+9eyrx/7/EnXsRmdt4rjPYB5RnTogtXSebxod2lpKcrLy826zUsBtdYdQet3eHFZcrvCM/Z5nU0+dIZ+17ELDpcply/XaV6tv7V1mut+09tTcpvCbYu+h/BgVyfeFCAnJ8d0dZLwYCYpKCgw216eUBrJ63dEhzvu+J5//nkT6i666CJzEkZzXID33XcfvvjiC9OPjwuRffd4sgYv1bKrM3ilbbzu4KpVq/D444/jJz/5ibk2ocJd19TU1ODFF1/EN998YzYOvBvLaaedhokTJ/7P+qr1O7x4Utf7779vLpjOdZvbliOOOALHHXccYmNjg6+SjmKoe+6557Bu3TqzTHnwwXV09OjR/7O9YPjjrZp4Ml3oVpPctv/85z/Hnnvuqe1LFzHYffbZZ3jzzTfNJcp0Q4DwYLDbunUrHnnkEey333444YQTWryTVqSs37Zp06b9KfhzxOAOjYGC96XlhpiXR+HCbKlSwarGBx98YG79EdpBHnjggebSLDxi0Yai83iyCzcSL7zwAr7//nsTJniZGi3Trpk3b565E8tPf/pTE5i5DjNsjB8/HomJicFX7aD1O7xWrlyJV155BSeeeCIuu+wys/F99913MXToUFPB0/LsOG6vX3vtNaxevRq//e1vzS0k165daw5euN423wFyp8d1+tRTT8Xxxx9vDhgPOOAADBw4UNXoLmD4YEHko48+wquvvoqSkhIceuihZr2WruGl27g+86D8888/N/fA54FLS62JkbJ+R2SfOzbDvvHGGyZccMG0hSswmwP22WcfjBkzxixw/suSqTbUnccNxaZNm/DOO++YFVkbiPDgjnDp0qUYPny4OYpjqf7YY481R3s8oOHzTWn9Dh+u06wsMRTzbjg8muYBC7sb8DthVU86jsuNl7fiAfjgwYNNFwNWNbj92LhxY/BV/8VrmrJizYMUrs+hR0stM9J+XL/5PTB8HHzwwTuvSCFdx9DMTMJ1m9f15bJuTaSs3xEZ7tgufdZZZ5kyJisUbWHfGV5eZdasWbjxxhtx0003mSNxDpOuyc/Pxy9/+Uuccsop2vCGCW+tt337dtMXJnTUx+s6cp1ntaP5RkPrd/hwmbEfEpd3qLmElVI2Ia5fv94cnUvHsVLBCjPvLc4DDj64E2To4/Jujk1bbDp89tlncf311+PPf/6zaSEIXRJLOofLnQd+v/71r03FTl02wofbCV6Dl10NsrOzg0NbFinrd0SEO1Yr2P+FD/7MHR2bSdpzMWNW+bgS8/UMIayIsNll4cKF2lh3AENF6DvggxjohgwZoqaSLmq6fnN95R85m6qaVt54pNdSYNP6HT5c/qyQcvvStCM0f+ZybutoXFrHZcd1vGnzayjkcXk3x5OJuLNkNYNdDVi9fuqpp0zXD30HncflzRYWHpQr2IUXDwbZd7E9J6dEyvrd4+GOR3zsI8B+XXyw4zgXQNMdX1v23ntv03nx7LPPNkcrF198MUaNGmV2ftzoyK5xebP5ZObMmeY7YL8CNgdSe78HaVnz9Zv9NhguuMyb/qG3ts5r/Q4fLl8+2rvspX1CQbnpMg1pabkeffTRpqLBg5XDDjvMtNCwCZHb/ubdEqRjQuu4hF97l2ukrN89Hu54NM2mKpb2Q+X9ljYSLeGC4pEhK0vcYXLhM2GzPxKbBNo7HtnRZBX6DnivXwWH8Gi+fnMd5ZEcj+5C6ydfw3WZTVlNNyBav8OLy5HLOFRpIv7LCiiHt9Q5WnaN6yPPNOY2JLROsjrN0Ne89YXLms9xPeby5jrNFgJeNoV/EyK9WSSt3z0e7rijO/nkk80p23ww6TZtMmmOO0JeSoILkAuSFYwnn3zSnIrPDUvTPk0qTbcPV0A29/HsQX4Hl19+uTlDWbqu+frNy26wbxL71/FECYaLH374wazLoY66Wr93DwZkNlmxKs3lyWXPzs88mGE1tKXLGsiucefF5cr1mAcdXG+/++47s4Njtw7+znWd//J5XqLj5Zdf3rn+86CHHda5Tjc9uBHpDSJ1/e7xS6FwZrnR5VE1H013WNyZLV++3FTzeEo9n+eGmc2GDHncoLCyMX/+fFRWVpodIpvAuME+44wzTEDRxqJ9eJQR+g74aBqwucLyUh3srKtLoXRMS+s3qxws0TOo8YxwnizBwMdyPtd1rd+7DwMHz4xlNwRueLlec6PMSxbw6Fo6jusgtxe8xA+X5bZt28ylIHiGN89G5rJmlwSelcyLG/MCrwsWLDDrONd37gz5/jPPPNMcDEnXcbny++Clk3Slg/DhOst1l+sy+9Rxv8mTsSJx/Y7I69w1xZ0bN7o8AuROkr9z48EUzAXJM1f4Lxcwjxa542QnxtCCl67jTpDBYo899jArsAJF13AZ8sFrrrGTLS8fwWsihZpbtX7vPuzozFDMszgZ8lh14vLkQUtbLQbSOm4PuJ4yOPNSHLwECoMdK9bsa8RKNA/KuQ1nM+2AAQNMx/QVK1aY9Z/rN3d8HK5tS3iEqkg8IOc6L+HBghO7H3Bd5XaE24xIXb8j+g4VHcGUzCoIF6p2etIbcAPM/l/cAe4qWGj9Di8tz92DB99ctgx6u9qR8YCRr2/P+i/S2/T0+h014U5EREREIuCEChEREREJH4U7ERERkSiicCciIiISRRTuRERERKKIwp2IiIhIFFG4ExEREYkiCnciIiIiUUThTkRERCSKKNyJiIiIRBGFOxEREZEoonAnIiIiEkUU7kRERESiiMKdiIiISNQA/h+xS3LvpMUcRQAAAABJRU5ErkJggg==;" vertex="1" parent="2AID36fqUqGkAKmChoYP-35">
          <mxGeometry x="52" y="53.72999999999999" width="366.29" height="301.27" as="geometry" />
        </mxCell>
        <mxCell id="2AID36fqUqGkAKmChoYP-32" value="Select one symbol to be decoded" style="text;html=1;strokeColor=none;fillColor=none;align=center;verticalAlign=middle;whiteSpace=wrap;rounded=0;" vertex="1" parent="2AID36fqUqGkAKmChoYP-35">
          <mxGeometry x="135" y="20" width="190" height="30" as="geometry" />
        </mxCell>
        <mxCell id="2AID36fqUqGkAKmChoYP-38" style="edgeStyle=orthogonalEdgeStyle;rounded=0;orthogonalLoop=1;jettySize=auto;html=1;entryX=0.5;entryY=0;entryDx=0;entryDy=0;" edge="1" parent="2AID36fqUqGkAKmChoYP-28" source="2AID36fqUqGkAKmChoYP-36" target="2AID36fqUqGkAKmChoYP-30">
          <mxGeometry relative="1" as="geometry">
            <Array as="points">
              <mxPoint x="770" y="60" />
              <mxPoint x="246" y="60" />
            </Array>
          </mxGeometry>
        </mxCell>
        <mxCell id="2AID36fqUqGkAKmChoYP-36" value="Repeat for all 16 symbols" style="shape=process;whiteSpace=wrap;html=1;backgroundOutline=1;" vertex="1" parent="2AID36fqUqGkAKmChoYP-28">
          <mxGeometry x="710" y="225" width="120" height="80" as="geometry" />
        </mxCell>
        <mxCell id="2AID36fqUqGkAKmChoYP-29" style="edgeStyle=orthogonalEdgeStyle;rounded=0;orthogonalLoop=1;jettySize=auto;html=1;entryX=0.5;entryY=0;entryDx=0;entryDy=0;" edge="1" parent="1" source="2AID36fqUqGkAKmChoYP-17" target="2AID36fqUqGkAKmChoYP-28">
          <mxGeometry relative="1" as="geometry" />
        </mxCell>
        <mxCell id="2AID36fqUqGkAKmChoYP-17" value="Channel" style="swimlane;whiteSpace=wrap;html=1;" vertex="1" parent="1">
          <mxGeometry x="-160" y="400" width="880" height="450" as="geometry" />
        </mxCell>
        <mxCell id="2AID36fqUqGkAKmChoYP-22" value="" style="edgeStyle=orthogonalEdgeStyle;rounded=0;orthogonalLoop=1;jettySize=auto;html=1;" edge="1" parent="2AID36fqUqGkAKmChoYP-17" source="2AID36fqUqGkAKmChoYP-19" target="2AID36fqUqGkAKmChoYP-21">
          <mxGeometry relative="1" as="geometry" />
        </mxCell>
        <mxCell id="2AID36fqUqGkAKmChoYP-19" value="Take 1 symbol at a time and transmit via channel" style="shape=process;whiteSpace=wrap;html=1;backgroundOutline=1;" vertex="1" parent="2AID36fqUqGkAKmChoYP-17">
          <mxGeometry x="40" y="200" width="120" height="80" as="geometry" />
        </mxCell>
        <mxCell id="2AID36fqUqGkAKmChoYP-24" value="" style="edgeStyle=orthogonalEdgeStyle;rounded=0;orthogonalLoop=1;jettySize=auto;html=1;" edge="1" parent="2AID36fqUqGkAKmChoYP-17" source="2AID36fqUqGkAKmChoYP-21" target="2AID36fqUqGkAKmChoYP-23">
          <mxGeometry relative="1" as="geometry" />
        </mxCell>
        <mxCell id="2AID36fqUqGkAKmChoYP-21" value="Add noise and fading" style="shape=process;whiteSpace=wrap;html=1;backgroundOutline=1;" vertex="1" parent="2AID36fqUqGkAKmChoYP-17">
          <mxGeometry x="230" y="200" width="120" height="80" as="geometry" />
        </mxCell>
        <mxCell id="2AID36fqUqGkAKmChoYP-27" value="" style="group" vertex="1" connectable="0" parent="2AID36fqUqGkAKmChoYP-17">
          <mxGeometry x="410" y="75" width="460" height="330" as="geometry" />
        </mxCell>
        <mxCell id="2AID36fqUqGkAKmChoYP-23" value="" style="shape=process;whiteSpace=wrap;html=1;backgroundOutline=1;" vertex="1" parent="2AID36fqUqGkAKmChoYP-27">
          <mxGeometry width="460" height="330" as="geometry" />
        </mxCell>
        <mxCell id="2AID36fqUqGkAKmChoYP-25" value="" style="shape=image;verticalLabelPosition=bottom;labelBackgroundColor=default;verticalAlign=top;aspect=fixed;imageAspect=0;image=data:image/png,iVBORw0KGgoAAAANSUhEUgAAAfAAAAGQCAYAAABRWDK8AAAAAXNSR0IArs4c6QAAAARnQU1BAACxjwv8YQUAAAAJcEhZcwAADsMAAA7DAcdvqGQAAGV5SURBVHhe7d0HfJT1/QfwT24luew9CFM2OEAREFEQceJC696rVjtsrS3aFi3Vtn/r3lbrpIqrooKobBA3MmVvsudlj7tL/vd5uNMYkpAdLvd5+zqTPHd5uHty93ye7+/3e35PkMPhqIOIiIj4FZP3q4iIiPgRBbiIiIgfUoCLiIj4IQW4iIiIH1KAi4iI+CEFuIiIiB9SgIuIiPghnQcufqGurg7ff/893nrrLdhsNlx33XXo1auX916guroa77zzDjIzM3Heeeehb9++P/l58ODB3kcerLi4GC+//DKsVituvPFGY/0+brcbGzduxPLly5Gfn4+BAwfitNNOQ3JysvcRP+L9/Df379/vXXJAeHi48XxOOukk4zkHBQV57+k8DbdHc6+/rfh633vvPWRnZ+OGG25Aamqq957u9dlnnxl/r9GjRxt/K7PZ7L2n5bpi+4m0lypw8QuVlZX43//+h+eeew7PPPMMPv30U2Mn61NVVYVPPvkEb7zxBtLT0w/6uTE8KCgtLcWcOXPw5JNPGmHEwPbh9ytXrsSdd96JZ5991ljX3//+dzzyyCMoKCjwPupHJSUleP/99/Hvf//bWOebb75p3P7zn//gr3/9K+69915kZGR4H925+Pr53D/88EMjhDoDtx1f7yuvvILc3Fzv0u63fv16zJ49G1999ZXxN26Llrx/RLqbAlz8Ql5enrFD5Q65trbWCCYGZn0MXJfL9cNOu+HP9XHZ7t27jTB+7LHHjEDmeutjZfniiy9ix44d+NWvfmWE+DHHHIM1a9YYz6cx/DctFgt+//vf46mnnjIODPg9q/qlS5caNx8+llUsQ52tAA2fJ5+Pw+EwAoQBWVNT473nR1yWk5NjhHRZWZl3KRAaGoqLLroIt912G4444giUl5cb/waDyYfr5zbkzffam1qfDw+asrKyjMc4nU5j+/J1NIX38TWwVcK3Tt/rbOzfJx6s8Xf4lc+H3/N588a/Cbc918vfKSwsNNZbUVHxw3r5lffzxnXwfm7nhs+Tj+Pz4fbneutvG+LjG75/uKyp1yPS1cwzZsy41/u9yGGJO2pWegztUaNGITo6Gtu2bcP48ePRp08fo0mawTJ//nwj6M444wyjObf+zwMGDPCu7QDu8BnebCYdNGgQioqKEBsbi8svv9xoSqedO3cajznyyCNx7bXXIjExEUcffTROPfVU9O/fH8HBwcbjfLiOefPmGaFyxx13YMKECUZ48veXLFli7PT5/QknnGAEKp8fDxA++OADbNmyxVgfn7fJZDKCa9GiRUbT/ttvv42vv/7aCA42wdvtdiM0+Nreffdd4zFskdi7dy+ioqKQkJBgBM+qVauwZ88e4zmwKmX3A0OX3QDcZryPByUMIm4fBnxT6yOGNlsUXnrpJWPdDNINGzYYAXzppZce1K3AbcymbD6er2HZsmXGvxkfH29sa24vtlQsXLjQaKKOjIw0nvfcuXON1pCwsDAjeLmN+G+wafzVV1/FF198YTSL88CK9/F9wW3Lvwm7K7755ht8+eWXxvr4GliNf/vtt8Zr7t27t3GAxSDmengfnwPXzdcXFxeHmJiYg95P3D6Hej1d0TUiUp8qcDnsMewWLFhgBByrykmTJhlBxOBrWFW1FHe2Rx11lNGs/Ytf/MLYcdfH9bIq81V/jz/+OP74xz/itddeM0KGIdoU/i6DjU24DIb//ve/RpDwwIPhyfvZNHvPPfdg3bp1RlAx+NnM/t133xkHLB9//DH+8pe/GEHK+/m4v/3tb0aA8rWzsnzhhRfwj3/8w3ieDH0GywMPPGC0LDCAeADA0GaFydfLsHr99deNUOQBAlsD2B3B+/lzc+vjNmCw33///di1a5fxHBlwfF2N4QEGD0r+/Oc/G+GZlpZmPIfnn3/eOGhgiwdDmOvic2AY8jnwYIKvkc+bB1K+kObzYnjyeTCwPYWH8TdhsG/evBlPPPGE8Xx8lTy3EYOcfwO2fvB3Zs6ciRUrVhjPjV+5ffn35Lbcvn278W88+OCD2Ldvn7GO+lryekS6mgJcDnsMNVbcrPBOPvlkYzAYw5BVFne8bRESEoJzzz0XF154oVFBNayeGLKsMLnjZkAwKPg4Vou+EGsKQ4aB8pvf/MZoeme/OddzxRVXYPLkycZ6WflzGe+/++67jQqfFT+DhoHCoGVFfOuttxq//89//tP4XVaPDDr++ww5VuSs9hlo06ZNM0KO24Xr9uFrY9P/sGHDjIGAPLhg/zUPiljxjxs3zqg+m1sfQ5/VOatxjgmYNWuW8frqD/irj9uP4c4KNSkpyahif/3rXxsHIVdeeaVR2bNCZmsEv+fBBg/Utm7daoT28ccfb1TlfO58Lfx7/+lPf8If/vAHDB8+3KiM+V647777cPHFFxsHA+zaqP+6WTVz2/HfvOqqq4wDk48++sg4KGMlzwMTbnceCDz66KPGc+GBFA8m+Pzra8nrEelqCnA5rLHaZaXICocByqZSLmNVyr5hNk37qq7WYIXJ5lYGYlN897HaYvXNav388883mrNZEbPKawzDZOzYsTj22GON58obR83fdNNNxo6ez5shzt9nmDLMeSDCAGOIs7mbVSAD7rjjjjMOXNgcz2qYYcGDD4YPg4hhzuZsdjEwoBjMvnX5MAQZgGeffbbxGB4QrV692vh32CUwcuRII5iaWh8PnvhYhji7LNhywRBjdwB/bgy3AQOUBw2ff/650RfPbbhp06YfwpF/A/77fAyfD18ztyu3zemnn278fXyPY/M4b+zGYOsHW2PYncJtw2V8DJ+fL8B5YMHnx+6DlJQUjBkzxnhOrPC5zXmgwFYXjlJnszqfw8SJE41mclbaDfv/W/J6RLqaAlwOawwWNlmyAmZYs2K+7LLLjJ0slzFsWD12NDbfMpwY4uwTZR8ng8LXBM6QaerAgeFy/fXXG4H7y1/+0tj5s6mWFSJ/hyHDG4OdocOg5O+wH5lVJf9N3+N8LQP8nv8mA5W/5/u3Wa1zOStSVsdXX321EVwMtPoY+lw3D0bYfMxmfa6b4wj4e4daX/0DHd9zoob/jg8fw0qZLQesctkCwAMENtNzUB8PQIin1/Eghf8uK3z2S/M58uDHNxaBGvv3fff7fq7/9/BtYx/f86z/WN7Pvw1xeVOtCdTS1yPSlRTgctjiTpYVGZt9WW2x2ZY7UN7YX8ydP+/nraNxh83A7tevn1EZsvmUocbqlmHACtS382+Iv8vHREREGAccbG5lP/PTTz9trItVI+/jjRU1X8/06dONwXQMyyFDhhiPYUAw9Nkkz9d41113GafRcfAXq0bfoDdWg2xKnjp1qrGOESNGGKPQG2IwTpkyxVgnWzUY0KeccorxXJtbHyt0PiceyLAFhE3c7GNnawF/bgwPcljpL1682Gia5mtkCwbDmhU9B/r5ApRjGtjawIFrrMTZRcKquT14kMNKm9udz5XPhS0e3K6sovl6uR1ZTbPq5oEU+8u5DVhpN9x+LX09Il1JAS6HLe4UeS4zmzM5eI1N0KxsebvmmmuMgOGOlwPFWJl2NPYH899lkDI8OVkJQ4bN4wzJ+lVhUxiSfL6s3Nn0zsrX15zNqpMHIuxv5o39smziZfcA+3VZNfM0NE4u89vf/tYIN4Ytg5TNyXz9bIlgHzqfHwdYsembz7cxDMkTTzzRCCceFDCIeBDEA45DrY/dFxwzwIMYHkjdfvvteOihh4wm96YwGNk9wH5iDvTiQQMDnwHKbcB/l1jNsr+bp6dxGbcv728PhinDm/35PCDhAD4eFPA1sjWFB07cHjwg4vbljeHM7cOxBo1V4y19PSJdRaeRyWGLTeO+SpHNlr5ZzHhj8ymDiFUgK1lWrgw/7nhZ0bF/k2Hk+5mVZVMYUKwqWZWx79UXzPxdBi+rRK6bO3BWXAwFNqf6mmV92O/Mf5MBfOaZZ/4wOI7Pn8+XByRcF58rm655H7sIGAIMZXYNMCT5ulj5MxTYvM4b+315MMG+dD6Wj2Fw8DlxHXx+bPLnQQ6DmRVjw9fPf4/PjeMJuG4ekPhOwzvU+vjvc1uwiuXz5Vf2GbM652tiKwNfr4+vlYJ/Bz6efyf+PVnJc/Ab+9F925lf+e+xAuaBEf/W3GbEEOaYAYY8B9vxdbHi5cENw5ivi7/rWzfDl/8eD1C4vfiVj+fj+FrOOussY5vwwIWvjweA/DeIpwfywISvkwcm9bcfWy9a+npEuoqmUpXDmm+gGEOiYWCyyuL9DCDuPLlz9zXL8rFsRq3/c1P4GN9jucNuiOtlyDPc2KzOMG5qfb7+aT6f+o/hMt7H5+p7Plwv+/HZlMvwY0jWDwH+Dg8K2CfNqpGDuvi7XIcP18kDA99zYxMwH+O7r7HX39RzpObWR7yfVTgDlBUsnwvX1fDf8OF9DEMehPB+NmH7/l3ex5YTHlBw1D7PrWZlzFYJ/rvk+9v4/sbE7cZb/fXwZ+LfxvcznxN/l9uP2863/Xy4bjav836+Hg4w5O/7ti9/t+H2a+71iHS1Ngc438jc8fBD4fuwNeT78NXHN3r9D5GIBCZWx2yi50Qq7K/mQQrPw2YfuIgcWpsCnEe3bJbiRBpspuKpGo1hsySPrBn2vqNaNtOxqbC9fVwi4t+4H+FENez7Z/XLcQE8raupgkBEfqrVAc6BNxwVzME4HHTC2aQYyg0xtDkAiR9OfjB953SyqZD9h2yyEpHAxi4QdhOwZa5hF4KINK9VHTcMZZ5KwfDmgI7mjpT5weRgGA4IYYBzgAhvPB1I4S0ixD5ntsaxP13hLdI6rarAGeAcfckBPWzyYn8VT29prALnUTWv8sR+ct+FABjmHNHZ1LSD7DNnsxq/ioiI+Jv6Ay47W6ub0H3hylM7eD5kUwHOkOfFA/hiOI0hB6zwPFaeDsLZnXjaSkNc52uvvWaEvhyMrRq8salRGscuHn54WNnJwbR9Do1nBvDURN+4HfkpbZ/mMdt+/vOfN3vqakdp8yh0ngvZXIDzVAvOn8w+b06gwMqaF0bgdIn8HZ7v2dDGjRuNi0Vw+kk5GGfj4oUWeN6pNI4TrTCgzjnnHO8SqU/b59DYssjz+BvbR4m2z6HwEsTsNu6K7dOpAc5zPHmk5ju3ltNQ8o/Pmak421JDDHDOhsTKXQ62du1aY+S/tk/TeEUt4kxmcjBtn0PjTHOcUIethXIwbZ/mcftwymJOctTZOnT2AfaR88Zmds5S9MorrxhX/fHdx2Z1UhNw27DJShNGNE/Nes3T9jk0zVPRPG2fw0eHpQEnbOEF9FkhsvJmSHOGo7lz5xqVN6trXnCfF0fgvMvSepxeklN5StP4/uJNGqftc2gcs1N/Wlj5KW2fw0ebA5xHYRxd7qum2cfNeYV5bji/53zNHKzGipET//NiAuzUv+KKK4z5mKX1OJaAcz1L0zjPeFc0XfkrbZ9D42esvVdD68m0fQ4fbe4DJ46I5oAYX7Ocrwmd4e5bxjDnMuKy+vc1pD5wERHxZ37TB15/4n9itV0/0ImBzcfx1vA+ERERaRuNiBIREfFDCnARERE/pAAXERHxQwpwERERP6QAFxER8UMKcBERET+kABcREfFDCnARERE/pAAXERHxQwpwERERP6QAFxER8UMKcBERET+kABcREfFDCnARERE/pAAXERHxQwpwERERP6QAFxER8UMKcBERET+kABcREfFDCnARERE/pAAXERHxQwpwERERP6QAFxER8UMKcBERET+kABcREfFDCnARERE/pAAXERHxQwpwERERP6QAFxER8UMKcBGRw0yNuw7Vrlq4PF9FmqIAFxHpZozp/HInPtvtwOzV2XhhSSZeWJSJlz/LwhtrcrBkexGyS2uMx4n4KMBFRLqRo9KFT74vwD9e34sVf3Wg5FcuRP7GjNjfWmG5PQgFtzux9P4i/P21PXj5yywUVji9vymBTgEuItINauvqkFNSg1cWZWH1/aU4f1Y8bnw7FTd91QtXbk7GZVuScNW6ZNy4KhU//18vTH0kFumPVOHJD9OxPa/CuxYJZApwEZFusLOgEv/3xl6E/sOEGz5IxcT0aCRW2GCtDfI+AjDXBSHEbUJaaTDO2hmHW+alwfqsCc+/lYldeZVqUg9wCnARkS5WUO7Em0tykfCaFRetSURyuc17T9MY5gkVVtzyRS8c9VI4Xl2Qjaziau+9EogU4CIiXYhN5/PWFqD6jVrcvLoXYqus3ntaJqbagjM2xSFsthnz1hd4l0ogUoCLiHShsmo3Vn7pwMWrEhHXyvD2iau04vR1sdi0qgy7Ciq9SyXQKMBFRLrQp5sL0f/zEPR3hHqXtB57yQcUhSJ5kQ1f7yiB21PVS+BRgIuIdKFv95TihLVRsLvM3iVtE+4045idEcjYWo3SKrd3qQQSBbiIHBLruypnLTZmluPNb3PwxNL9uHfebty/YA+e/ywTy7Y7UF7jRq0KwWZVerZhtaMWEeUWmDpgW0VXW1GVX+tZrwI8ECnARaRZDJ2N6WV4bO5+/Of+TOT/2Yn4GTaMvTMSR/8hHLa7gzD/n/n4y0u78P53eZoxrBm5ZTUISTchsqZ91bdPVLUZNYV1xsGVBB4FuIg0it2qPN3p9VXZePn+LPT7ewjufqkfrluSgumrE3Da1lhjNPQlnyfhrtf74mf3J2LDfWV4aM4+rNlfCrfK8YMEW0yoDa2DqyPKbw+eMh5k8dyCfjx3XAKHAlxEGpVXXoMX5mdi30NV+M3rvXHRukQkVFphd5oR7DYZ5yVbPAnCiUZ4KtS4/VG4Y34fjHk+Em+9mYsN6eVqUm8gOtSC6rg6VFo6pmLOD3UiNMmEMJt25YGoy/7qdRolKeI32J/9xtIcuF+qw68W90afkhAjsJvDe8M84T5tTRzGvhyJuQvykKmJRn4ixFOBJyRZkRFf3e4qnL+dE16DoGTPeq0d0yQv/qVLAry2thZ79uxBcXGxglzkMMeqeeH3hUh/vRrXrUxFvKfqbg2Orp6yIwapc2x456tcY+IS+dGpw2Lw5bhiFIa076IkBZ7qe+9RVThyWDjCbQrwQNTpAe52u7Ft2zY8/fTT2LRpk3epiByuiiudWLi8EGd9EdeiKT4bE1ltweS1MShc5MTG7HLvUqEBCXZUjavF5/2K4Q5q28ENf2t9UhlyJtVgVK8IqAs8MHVqgJeXl2PVqlV4/vnnjfB2OnUZPJHD3Ze7SxD/tRWjsz3B4F3WFr3LQpD0mQ2rt5bC6VYV7hMXZsGFkxPw8WkF2BbbtquK7YmqxCdTC3DqyTFIimjbQZb4v04LcDaV79+/H/PmzcOIESMQHx/vvUdEDmc81/uYLRHGYLX2CHGZcNT+cOR8X4MiT1UvB5g85fLoPpE49rxIPDcpE7uiWz4VKked74uswuOT0pF2WQhOGxbbroMs8W+dWoGnpqbi5ptvxjnnnIOIiAjv0uZVVFQgPz/fuBUWFqpqF+lC7K7OKqpGYt5PL2vZVhE1FlQ5alHjUgVeX4jVhAvGJOCY28Lx7KUZ+Ca55JAj08usbqxOKcGT09PR/7YQXDE2yTgYkO5VXV39Q2bx1pWZZZ4xY8a93u87FM9LtNlsiI2NNQaxLV682KjE+/bt2+Q5i7m5uZg9ezY2btyIZcuWYd26dUhKSjJuItL5OPp86ddFOHZhBFLKg71L267GXIsvB5dgxIQwxIe17cIdPRH3gHabGf2SQ+HqW4f5MQXINNXAVhKEKk+Qc7u5gupQ7gntwhAXNsSX4/Ux2Vj4s0JceH0izj02HpEhlgMrk261YcMGvPjii/j444+N3GJ38UknnYTExETvIzpPkMPh6PRD49LSUtx11124+OKLMXHixCYDnMG9aNEi3H333d4lniMMsxkmU5cMlhcJeKXVbtzz8i5cNTMZo3Jb1mrWnG0xFZh9czauuTMFR8S1/eIdPRlH6eeUOLF8cxHWfV6GkP0mhBSYYHMEwRlWh8r4WuQNd6LPwGCcd3QCBiWEqvI+jLC7mIO1fWdY3XfffTjttNMwcuRI4+fOdNglI8PdarX+cFN4i3QdnqccEm1Cid2N2jaOkK6PzcKWsCBYTAqcpjCMU6Js+NnYRNx+U29ccGcCxt8bhcH/tOO4WZE454/xuPfq/rhzal8MSbQrvA8zzCyLxfJDZrHo7CpKRznscO7t4iqXMY0n59Xm/NGFFU6UeKpDjWbuXFZzEHolBWNfYlW7JxphF/r+iCqE9zcjSs29h2T2BAFHlB+VGo6TBkTj7OHxOGVQDEanRRjdD4ptaUgBLoeNiho3tudV4MXPM3Hfa3tw97924hd3bsVv/7Id9z68G4+9uh8ffJuH7fkVCvJONGlIDNZPKENeWPsG4ziCnfhicDF6DQtWf61IJ+iSAGfzAjv1U1JSvEtEfiq9uBovLM7Cc//IxK77KjHmkUjc+XgfzHlhBJ58dghufTQNY/8Ric1/qsBr/8rBG6tyUOCpyqXjpUUHI3GiFSsGOto80Qir701x5aicVIvxA6KgFnSRjtclAR4aGmoMYBs0aFCTA9gkMDEetuRU4Ok30+H4hxM3v5yKfy4ZiIs3J2Jgkd24aEZMlQVDC+w4bXcs/ri0L658PglbHinHkwvS8V166YEVSYeJ8FTLE4+OwfLJRVibVNamS4Oy+v7opAIcOyUCKZHtH80uIgdTE7p0GwbDfkcV5nyYg3GPReF3X/bBYE9oN3f+Me8b5HnMbYvT0O/hELyxMgdZpTXee6UjsFoe2SsMUy+Kw5xTc7A6ubTFIc7rnRSFuPDyiVmIu9yK849KMPrVRaTjKcCl25RWHbjiVfRLFpy8MxrhLZz5i3HQqzQYZ6+Jh322GYu+K0S1q2MuzygHhAebcdaxcRhxSxjevSAXywc4UBzs8t7buAqLG+vjy/DkafvhurkOV01KRpgusiHSaRTg0i147us3O0tQM6cWV3+XjKjq1g9y4lWyrvgiCd/NLcXq9FK4dfHpDhVqNeGS45Mw7Y54zP9dPl4+JQsfDSjAzuhKFNtcxih1zg6WF+rE6qRSPHdCJl67NRtpM0Jw09m9kBiuObpFOpMCXLpFWbUbSz8vxMi14YitavsMXf2LQ9F3dQgWeqrwCqeq8I7GED9hQBR+cWkv9P1HCNbdU4bnrs3ArIt24/dn78DM6bvwwGV7Me83+Yj+pwW3/LIXrjw+GTF2jToX6WwKcOkWjkoX9q2rxsn7or1L2oZ94md9H4f931Ubp6FJx+O40wFxoTjvqATcfFEqbrgrFVc9kIzLn0zCVQ8l45r7U3DDram4dnwKBsaHqs9bpIsowKXLsfl8w+5yDNwZisia9ldqfYtDYNkThLxip3ExDukcDPI4u9WYDeyYXhE4vk+kcS3qkclhSIsK1kQjIl1MAS7dothTgUdWWtABs3XCXBeEyDIziso8Ae5dJiLS0ynApcuxSq6sciOspuNGKHNdFZ51Hjg5TUSk51OAS5djU2xMuBUloS7jvOH2YmTnRTgRE2XVREEiEjAU4NINgpAUY0N2ZE2H1MtVFjccoU5EhWrks4gEDgW4dDkWyameAHekuZAb1v5Z1HgOctRwCxIjbRpIJSIBQwEuXY4hm+AJ24GTQzF/UH67qnBes3rFAAcmnRRjzB4mIhIoFODSLew2M6aOicWaCWVYl1DmXdo6nDJ9Ze9i7JtSjeH9wnT+sYgEFAW4dAvjghkpYTjuvAjMOy4fWWGt7w/fF1GFT44vwLRz44xzk0VEAokCXLqNzWLC9BMSgWuBl8dkYWN8mVFVHwqDfm1iGV6emoXIGyw4eVA0LLrgtIgEGAW4dKuYUAuuPDUZiXdb8dT5GfjoiHzkhzqNvm2GOcOaN37Pi2eU2tz4cHA+Xro0E8PusuOWk3shxt72udRFRPyVAly6Xb/YEFxyUhLOvC0OK37rwO2Xb8OLnop8+YAifN27BJsSy7GqnwPPnZiB3169HUtvL8LFv0rCxaOTEK1Tx0QkQAU5HI72DALuUBs3bsTixYsxc+ZM7xIJJLwcaF65E2vTS7FpVznyCp0or3ajoroW8REWHNM/AmOGRCIuwoqIYDPMajYXkcPMrFmzMGXKFIwcOdK7pPMowOWww6lWecETo/m83ruTeW3y/E+xLSKHq64McDWhy2GHE72wuubANJ4a5rtxmcJbROQABbiIiIgfUoCLiIj4IQW4iIiIH1KAi4iI+CEFuIiIiB9SgIuIiPghBXgH4kQk6cXVWLWnGB9tLsCba3PwzvpcLNpWiM055XB57hcREekICvAOwODO9AT3a6uy8fQz6Vg+y4EtM8qR+xsnMn9XjTV/KcN/ns7Cwx/vw+e7ilFR4/b+poiISNsowNuB9TTDePGmIjz85H4UznLhigeTccObKbjh41TcvCoVNy5PxfUfeH5+KgVD7grDgn8V4MnF6Uh3VB9YiYiISBsowNuhtMqNV1dkY/6j+bjqyWTc7AnrEQVhSKqwIarGgmC3CXaXGXFVVgzzLJ+2IQ63vZaGsCfMePmDLOzOrzIOAkRERFpLAd5GTncdPliTh+2vVOA37/bGUTnhCHeavfc2zlwXhORyGy5fmoyEZ614e3EOisqd3ntFRERaTgHeBrzAxhe7irHqFQeu/DQZAxyhCGpFKR1TZcGF6xIR9CYwb32+d6mIiEjLKcDboMLpxvsr8zB1eSyOyYvwLm2d2EorTl8Vh+0LK7GroNK7VESkY/Csl2pXrXHjQFvpeRTgbfDN3lKYVgVh4t7oVlXe9Zk8vzegKBQRy834ekcJ3PWvmyki0gbs2sssqcbX+0rw6fpCvL08F+94bgs936/NKDVOc61x13ofLf5OAd4GGzPKcOymCGOgWnuwz/zYHRHYt6EKjkqXd6mISOuwwN6SW45nV2Tg0Rf3443f5uCb35Sg9I9uFP/Rha9+W4LX7s7GUy+n46VVWcjwBLlqBv+nAG+DPflV6JUZDKu7/ZsvuTwY5ftqjRHtIiKtxap78eZCvPCfTJTd5cJZD8fhbx8OwD0r+uMXq3vh1tVpmLm8P+56ux+mPhSL9Puq8dDb+4wJpjS5lH9TgLdSRU0t3MV1CKsyI8i7rD0iasxwFdWiyqUAF5HWqXTW4o2vsjHvyXxMfyoRv13dB5P2xxx0Rgy7+uIrrTjFc9/tn/XGaZ4gf/flXCzaVKj+cT+mAG8l9lUHuTwfCO/P7VVtqYXZHgSLSX8KEWk5Vs/z1+Xjs5eKcf27qRifEYUQ16H3I3EM8m2xuOiNRCx8rdCY+lljcPyTUqOVrOYgWMOCUBlci7oOSPEaUx1MIQzwjjokEJFAsKewCl/MK8ZN81JxVF54q4oKW20QTvZU4xMWROP9hXnIKa3x3iP+RAHeSiEWExKSbMiKq4arrUPQ68kKqwaSPOu16k8hIi3Dfu/1W8uQsNCGY3Ij2nQ2jNUT4lO2xSD0PTPW7ixTf7gfUmq0wcSBUVg7pgxFIe2bRa3E5sJXfUuQONyK+DCrd6mISPMKK5xYsqwQU3fGGkHcVlHVFkz2hPjq1aUo10WW/I4CvA2OSLDDPDEIq/uWorYdVfiuqErkTqjBCYOi1YQuIi3C7urvM8tRuwEYXhDmXfojl6muVd17I3PDsHdLJcqrFeD+RgHeBrFhFkw8NhoLJhRgT1SVd2nrVFpqseToIvQ7NRRDEu3epSIizfPEM3LyazAoxw6b++CkrjbXwt2KwoKzQoakm5BTVKNzw/2MArwNTEFBOKZfOIZND8NrE7KNSro1ajwfsDePzkHlZbW4ZnwyQtX/LSItxJDNddQgqcTW6MC1MKcZllY0q/ORiZ515XjWyYMD8R9KjjaKtVtxycRExN5ixQunZmJTXDmcnB+1Gbw/M7warxyXjc3XlePic5KM9YiItIbdZka1tbbD4rbCs65gm8kT5q1oe5du1+YAr6yshMsVuNN/8m0eG27FlackY8yMSDx7SwbeH5VnBHl+qBNVlgMfLjZllVvd2B9RjfeH5eGfl+7F3t9V4eaLe2FQQqixLhGRlgry7HySYjwVc6SnYu6AvOV+KtuzLq5T+e1fzDNmzLjX+32LFBcX44svvsCyZcuwZ88eWK1WxMTEeN5UB//lCwsLsXjxYnz//ffYsmWLcXM4HIiPjzd+r6Hc3Fzs3r0bJ598snfJ4Y/N34OS7UgYZMP6I8vwWd9ibIoqx/ex5VgXXYbVaaX4engJvpxUjMzranDhxQmYPiYRSZGNN3+JiDQvCCVVLqz43IETdkbB7vrprGutlRVeg8+mOnDu1ASEeSp7aZ/ly5djwIABSExM9C7pPK2qwMvLy7FgwQJ8/PHHCAkJwd69e/HKK69g165d3kf8qK6uzlj+0ksvYfXq1di0aZNx4+/0tMqdI8iP7xOJ20/vjVt/kYZjZ0Ug4TErgp4Fgp82od+DIZh2dzz+Or0/xg2IQnhwx0zDKiKBh7VS7/gQ2I4z4avUEu/StmH1vbRfEY4fF4lwhbffaVWA5+TkGNX3lClTcOmll+Lyyy+HzWYzltXU/HQmH4b0vn37MHToUNx2220/3M455xyEhR186kNPYPZ8svrHhuD0oXG45Jgk3DQuFdeNScH5Rybg2LQImHWqmIh0gPhwK06eFI3v+pUap421VXZYNb4YWozBw+yaTMoPtfgvxoqaTdy1tbUYNGiQ0QSekpJiBPS2bdtQWlrqfeQBTqfTCHCGNZvd09PTjccw8E3NzPtdVFSEtWvXGjc2vbPJXUREfsQpnccMjkTNeXX4ZFDhIQfQNobjdBYNLcIxl4bjqLRw71JprZKSEiOrfLmVn5/vvafztTjAWVFnZmYawR0aemDwFfu97Xa70dddVfXT86H5eDaX79y5E6+++iqef/55PPLII/j666/hdjc9YQCb3T/44APjtnDhQqPqFxGRn0qKsOGUM6PxybQCLO5TaJye2lKs2ucPyce6a0tx2slxiA61eO+R1mIuLlq06Ifc2r9/v/eeztfiQWwM3c2bNyMjIwMTJ078oRmc1ff27duNZZGRkcYyYoDzSGT06NGYNm0ajjvuOOTl5WHVqlUYOXIkoqKivI/8ESt8HgjMnDnTGMg2btw4Y8CbiIj8FOej6BUVAluyCe+48xCWY0bv4mCY6po+GYwzRxaFuIx5KDZeXY7LLkzCsOSe2aXZVZhRzCpmFm/MxMNuEBur7eDgYKMpnc3oPvzZbDYfNAqdg9zOP/98nH766ejTpw+OOOIInHLKKcZAOFXVIiLtx6b0SSOjcfXNyVj7+1LcO203FvcvRI69xrjWQpnVbdyKg13GHBQrBxRj1vl7kHNnDa6/KhWj0iK8axJ/1OIAt1gs6N27t1FZM4SJ37P9Pzk52WhKr4/93mvWrDH6tIkBz75vfm0Y9iIi0jY2iwknDIzCjZ5APuX+GHzyu0Lcd8MePPyz/Xj27Aw847n96+J9uOvXO7Ho3kJcdX8yfnleb81D0QO0qgJnkwCr8O+++86YyIXnbG/cuBHDhw83mtTZvM7mg+rqapSVleHtt982+gYqKiqMwWjs/2bTeWpqqnetIiLSXjwDhrM6Thkeiz/d0A+3/SkNp9wbgyF/tWPYLDtOnxmLv/y2P2Ze1h+j+kcgIlinjPUErZrIhc3irKKXLl1qnNvNQOYkLmeffbZRgS9ZsgSfffaZ0ccdGxtr/A77vFmJc3l2djamT59ujFxvrAr3x4lcREQOF9yt8nQwnmbWNzYEQ5LsGOy58XsGPE9lVQNo5+rKiVyCPJVxq84/YOXNUXf8yjBPSkoywpp94Ry0xuWssDlanQPSWJVzGQObg9x4H/vMG8NqnjO3cRCbiIiIv5k1a5YxVwoL2c7W4iZ0H55CxgFpfHJsOo+LizPCmWHOI46+ffv+ME0qK3bfY0eMGGH0oTcV3iIiItJyrQ5wERER6X4KcBERET+kABcREfFDCnARERE/pAAXERHxQwpwERERP6QAF5EuVVtXB3dtHapdtSivcRtfa9wtv5KWiBygABeRLuHJbZRUufDl3hJ8vKEQby3PxUvvZ+Edz9ePvirA2vRS5JU5jXAXkUNTgItIp2Nwz9+YjxfezcR7f83DF7cXo+yPLiTdY0PJH93YeWcl5vwlFy+/nYVPtxWiwlOZi0jzWj2VamfSVKoiPQur7nRHFZ5amAHX/+ow6ZtojMuKQnzlgdkafeqCgIIQJ77pXYKNx5Wj5txaXHFaMvpGh2jubvErh/VUqiIiLcGW8O25FXhhTiaSH7PhNx/1xrRd8QeFNwV5Hsvlp22PxdXvJ8P+jBnPvJuOTTnlUIO6SOMU4CLSKbJKqvHaR9kY/VQEbv46Fb1Lg733NM3sKcWTym24/ssUHPlMOOZ8mmOsR0QOpgAXkQ7HUeUfry6E+791OGlnNOyu1l3EKKragtM3x8H0JrB8vQNOt+pwkYYU4CLS4RyVLqxc4sCl65MQU3Vwk3lLxFZZMG11PLYuKkeGqnCRgyjARaRDse/7q+0lSFsTjMGFdu/S1mNz+pAiO2q+rvOsr1jnios0oAAXkQ7FiVpWfO/AcbsjYKtt3y4mosaCsTujsHdbFapdakYXqU8BLiIdiqeOZeVVY0ROGEztzFyeQdar1IaCPE3wItKQAlxEOlRZtRu1DiCqyuJd0j7xFTYUFbrgUoCL/IQCXKQJHPnMMOKArOIqF0o931e5ao0+Xmkat5vNHdRh528X2J2IibXAataMLiL1KcBF6nHX1aGg3Ilv9pXgw2/y8dw7GXjg+b34v3/vxROv7ccbS3KwfFsRMkuqjb5eOVhUqBkhKWbkRTg7JMQdwS6E2s1Gc7qI/EgBLuLFUc6rdhXj6Tcy8MqMbGz9fQUGzbLj3Aficd4DCRh7fxTK/+TGWzNz8cLLmfhko+bsbozZFIQhfUKxvlcpajnFWjttii9HWt9g2CzaXYnUp0+EiAcvazn323y883Quhv7Ljnvn9seMVX1x7rZ4jMuIwtiMSEzZE4NffpuGe+b3x4SHo/Hho/l4alkGdhVUetciZAoKwrhhUVg1qBiudo5iyw6rQf5RNTh2eASCFeAiP6FPhAQ89nM/+Wk61j5aitteSsP5OxKMebmbarJNLrdh0r5o/O69PrD8XxCe/igD+x2aaMTHU4BjYLIdISeYsWBggacK997RSm5P9b4mpRTmcUFIjQlWE7pIAwpwCWgccPXuujw43nDhlo96GROHWFuQOJxkZGBRKK79PAXh75nx/nd5qHCqOd0n1m7BOafGYe3EUmyNKTeuNtZa2+IqsGRqEU4+ORoJ4W2bzU2kJ1OAS0DbkluOVR85cM6yeKSVhniXtlxMlQWXrkjCd++VYldupXEOtBzoBx87KAp9rgzBqydlY19EVatCfGtMBV4/MQcjrgrDxEHRRrO8iPyUAlwCFsN2XUYZhi0Jw6jciDZPOjKoMBRTVsXgvc/zdK5yPaFWE849LgG9bw3BU2emY1HfQtSYa5scmc6Ad3r+CKuTS/HUtHSE3uL5/aPjFd4iTVCAS8DaX1yFNSvLcOTecIS62v5RYHP6yTtikPeFE3s1oO0n4sOsuGJiEk67OxYf3pKPv5y9G1+mFSMv1IniYBdKbG7jNLEcew1Wp5Xg76fvwUM378MZv4/Dryf1RqxdTeciTVGAS8AqLHcC38FTfYd7l7RddJUFabtCsDm7wrtEfKJCLJg8MgZ/urUfTvxrFF7/XQ7u/tVOPHDZPjx+wX7887K9uPvXO/HGX3Iw+m8R+L/fDsTUEbEID27dJUhFAo0CXAKWqxZwV9QhzNn+oLB4qvDEQitySmq8S6Q+9oknRdgw7eh4/O2WAbjnrv44Z2YcxnsC/YJ7EvC3GQPw9+uOwFmj49A7Olizrom0gAJcAhK7qsvK3QguDkKIu/0fA3NtEGIdVuSWKcCbw+7s6FAL0jwhPa5/FKYMicHYfpFIjQo2zvM2q79bpMUU4BKQmBM2WxBqbHVtPk+5Ps44VhzlQny4zbtERKRzKcAlIDGzo8MssPQKQl5o+6tmHgQUh7uM6lJEpCsowHsgXj1re34Fvt1fgm88t215Fcgsrtb1lBsIt5kRnmY2RkC3V5WlFluOqMCQZLt3iYhI51KA9xCcUWxXfiWeW5mBGbN34sXHs7Dg74X4xHOb/Wg2nnouHQ9/vA+r95cqyL0Swm2IG2/FyoEOI4DbiltzfUoZzKOBI+JDDywUEelkCnA/x8lIWHG//WUunnwwHcF3mXDTX1Jx/RMpuH52Cq7z3K55OgWX/ysZA/5kx+sP5eCvH+zWBTg8QiwmjB8ehbwTndgV1fbt4Qhx4uPjCzB1TCzCPFW9iEhXUID7MYb37sJKPPzePmx9uBy/ejYNl3yVhGNzIjDIYUevsmDjdoQjFCPyw3Deunjc8Z/eCHnchLffzcXmzPKAnvqTA9mGJNiRfKYNc07IQXYbmtIrLG78Z2wWUi4LNqb81CBqEekqCnA/lldeg9fn5iDmMSt++XEa+heHNjujGM9VTvUE+q2fp2HgE6F4Zk6GcQAQyDhZyCXjkhB3qRXvHJOL3VFV3nsOrdjmwuyjclByiQsXnBxvTFgiItJVFOB+itevfmV5FkzvAD//LhUJFS0/fSm62oJJO2Iw6H92vL4kx2iCD2QxdguuOCcZFbe78ezkDKxPKENVE3N283QxztedEVGNV07MQsavqnHNxSnoHd36C6GIiLSHAtwPsdn7m30l+GZ+Ka5clQy7q/X9rrFVVly0NhHuOXVYtr3IuzRwxUVYcf1ZqTj2jgi8clM2HpyyDyv7OZAdVmPM210Y4kS6J7RX9HfgL2fuwsxbdqHm9jrcemEvHBGngWsi0vWCHA7HYdMLunHjRixevBgzZ870LpHG8IpXf313N/o8EIIbVqfA1JrrNDbw0YACbPhzGW66JFUXjvDgaP4MRzXW7C7Fyg0OZO2vQXClCbaqIJQmuZGaHIyRR4ThpGHRSIq0GaeiiYj4zJo1C1OmTMHIkSO9SzqPKnA/lF1Sg+zVNThlR0y7wpuOzAtHxpfVyNIc3gbOwd0vLgTnHZuAB64ZiH//YSj+edcRuOvPffHiHcPwz6uOwNUTkjEgPlThLSLdSgHuh/bkVyI1Ixjxle2vmJPLPVXkfjPyi52oDeQh6Q2YPMdFFs//IkLMSPZU2v3jQo3rWzPgeWEODTYXke6mAPdDmcU1SMi3wtYBF+Gw8iIcRVYUFNQYTfMiIuIfFOB+yOWug9kdhLpGx0m3FatK1ZUiIv6i0wO8rq4OpaWlqKysNL6X9osPt6Io2okOKMANpcEuhIWZjWZjERHxD50a4MXFxZg7dy4efPBBPPTQQ/joo4+MIJf2SYy0oiDGCaep7fN3+/AqWhXBtbDbTTApwUVE/EanBbjT6cSSJUvw2WefYeLEiTj22GONU8SWL1+uSrydEiNsKBvixqbE8nZfy3pTbDkwGkiKtqkBXUTEj3RagJeVlRnhPW7cOEyaNMm4jRo1Cl988YVRmUvb8SpaE8ZEY8VgB2rMba/CXaY6fNe3FENPsWsmMRERP9NpAZ6XlweHw4FBgwbBYrEgNDQURx11FDIzM5GTk+N9lLSFxRyEicOisXdcFb7o1baDIbaBbImtwIbJZRg9LMI4RUpERPxHp+y12UTOACe73W58JavViurqapSXl3uXHGzNmjXGTDa8PfbYY9iyZYv3HvFhU3evGBumXRyPuWflYTObwVuB4V0S7MKiCYUY+bMwDEn88W8kIiItt3XrVjz66KM/5Nbq1au993S+Ti+7ghq5vmJzfeC9e/fGueeea9xOPfVUpKameu+R+mxmEyYPicHg6Xa8cko2NsWVwx106LEFfMzuqEr8Z0omTNcBF41KhF0ziomItElSUhKmTp36Q24NGDDAe0/n67QADw8PN75yMJtPbW0tzGYzbLamr5wVHx+PY445xriNGDECkZGR3nukIU7lefkJyRj7x0g8dUM6PhlaiJ3Rlai0HNwvzr7yfRFVWNa3CA9ctBdRd1pw5dRkhCm8RUTaLDo62sgqX27FxMR47+l8nRLgrLpZOTOo8/PzjWUMbzar88UxpKVj8FKY54yOx/nXJ2Dpn4vw9LXpeGlMJuYMycH8/gVY2LcQs4dl45Ex+/HC9Vn4dFYhpt0ej0vGJ+niJSIifqzTKnD2fQ8ePBjLli1DRkYG9uzZY3w/dOhQBXgH45zdpw6Oxd3n98Olv0tC2ANmFDzsxLb7yrHunjIUP+ZC0uM2XPiHBPz10gGYNjIe4cGqvEWk87HHlFf5yyt1YntOBRZuLsSKHQ5szCozrvznru3YOSUDSaddTpQV965du/DGG28YVTj7vVNSUnDNNdc02a+ty4l2DE616vJs72pXrfHhiAi2GBfhEBHpKry0Qmm1C7vzKrFivQNbvqxARL4ZkQUWOG11KI50oSa2FimjgjHl2BgcmRLeIwqLrrycaKdeD5yhzRHnHHlObFJn33hjA9tIAS4i4v8YKls91fYrn2Rh19JKTN4Wg7M3xCHcaYHZmH3KU2SY6lBhrcU3/Uqw8iQHhk4Jw5SJMegXG2Jc8c9fdWWAd+oodAY1AzsuLs64RURENBneIiLi/9hkvnBLIf7zYiaGPmzHU28OwY1fpqJ3aQhiqiyIrPFU4TUWxFZZkVYajPM2xuPOV/rCdl8QHn1lP9ZllsHNlcghdfppZCIiEhgYu1tyyvH+nDxM/k8Mrl6XgvhKKyzNzPlsqgtCSpkNF69PxIkvR2H2f7Oxp7DKe680RwEuIiIdIrukGs8vzMSIBWE4dU9Mq66vYHeZce6WBBw3JxJvz8tFYcWPpyBL4xTgIiLSbmz2XrnLgai5FlzwfQJsbbjecajLhCnbYlD9fi2+21GKWjWlN0sBLiIi7ZZf5sQ3a0px5IZwJJcHe5e2XkKlFRM3RmPFRgfc7b9ico+mABcRkXbLK3fC/VUdjs+KbNelidknPjjHjvxNTuSW1niXSmMU4CIi0m5lVW640+uQUt70VNktFVVlQa+twfg+s3UXago0CnAREWkXThjlcDgRU2qF2VNBtxdHrccXWVWBH4ICXERE2oWzrlVV1xqD0DoKm9K5XmmaAlxERNqFE6fZQ80ot7m9S9qHlz12RLsQH6ELLjVHAS4iIu1i8iR4TJQF+alO5Njb3+ztNtWhKMqJuDAFeHMU4CIi0i7s9U6KssE6Kgib4to/8CwrrAZ5w50YkRLmXSKNUYCLiEi7pUYG45jjI7A5rRxV5rafwM3m8wVH5uOksdGw2xRRzdHWERGRdrOYgjBhWBT2nVaNdYllqPUEcWtxyvSF/QuRc44TU4+OhUkXv2qWAlxERDrEEXGhmDQ9GnPOzcHuqCojkFuKlffapFJ8fHYhzj4vDkmR7T+fvKdTgIuISIfgdbwnDY/BqKsj8MT0dHydUowy66FHpteYa/FFWjFePTcbJ1wVhWP7tm82t0ChABeRHsPprkO6oxprMkqxdEcRPtlaiLWe7zOLq43JRqTzhVhMuPC4BIz7eSTm3JKLF8Zm4quUEiOkG3Ka6rA9ugJPHZuBOTfn4MzfxOHCYxNgtyqaWiLI4XAcNu/qjRs3YvHixZg5c6Z3iYhI87gDc7prsaegCgtWFyB7TQ1Cs0wILjDBXB2EyrRaVPVyI3qkBROGRuPotHCE2cwHflk6Da9OtjO/EovWF2Lv59UIWWlCRKkZiRU21Hr+arlhNchMqEH4EDP6nR6CcSOiMCI5zO8r71mzZmHKlCkYOXKkd0nnUYCLiN9iVb23qApvr8zFvlVVOO6zSIzfFoUwp9mYFcxcG4RSmwulwW7sSK3EtyeUoO404PqTUjAgLtS7FulMFU43sotrsCu7CiUlLhQUOGHyFNixcVb0Sg02zvXuEx0Cq7lnNJorwBXgInIIrPA2ZZbjyTnpGDo3DBetS0B8pa3J6Tw5SCrP7sSLx2fCfGkQzp0Wj6EpnopPna1dggdb7MVwebsyzJ4/k43/62G6MsDV0SAifocRsD2vEi++noUpL8Tipq9S0bs0pNm5uHmRjeRyG279PA1HPhyOZ9/IwO7CSu+90tk4wI1VdqjVZNx6Ynh3NW1BEfE7ZdVu/G9pLnq9E4xpO+IQ7mx5n3Z0tQWTdkVj0P/seH1JDhyVLu89Iv5FAS7SyWrr6ozAKahwIresBtmlNcgrc6Kg3Gks5/3ScmyBXbalCEVzXbhmQwrsrtYPSAv1BP6F6xLhnlOHZduLvEtF/IsCXKSTMJdLqlz4fE8JXvggE/c+shu/+ct2/OLOrfjtPdvwp//bhSffTMfCjUXGQCyd5tQyNa5aLFxTiBPXRiGuqm0Xu2C3d0q5DWPWRmLnmkpV4eKXFOAinYBZ/H1OGZ5+PwMfzspH0l9tuO2RXnj62SGY88IIPPrMYMx4vC+G3G/H53c58NpT2fh0YyEqajrmcow9GQ92yja6MX5fFEztPOY5Mi8c+d86kVPa/itoiXQ1BbhIB+Mo28WbC/HyS1mI/KcZd77ZB5d9n4ShBWGIqbIg2G1CfKUV/YpDcMG2BMz4pB9OfzoW8x7Lx1PLMrCnsMq7JmnMnvwqDN5rR2gbms4b4qC2in21KK5SBS7+RwEu0oHYDL50SxEWvVCI6U8l4vqNqUZYN4cjp0dnR+C37/VB0BPAW6tzjL5xaVyup1qOdVhhac1E202wetYRVmpCaalbXRjidxTgIh2IpyUteL8Ap82Nw9jMSIQ0c1pTfTzFaWBRKM5flYCM2dX4ckfxD+fLyk+VVroQVm5qd/O5Dw8EXG5ta/E/CnCRDlLprMWy7xwYPjcM49IjjVBuLYb4JUuS8P6CfKPSlIPFhVvhiHTB3UEJXm2pRbDNhCDN6CJ+RgEu0kF4wYz05VU4cceBqTzb6qjccER8Zca3O0uN2cbkp/rFh2J/SjWqG7k4Rmtlh9Ug6IggxEdbYVJ+i59RgIt0AJ7LvT23EiXr3TjCYfcubRu7J/zP+SYeS9cUobb9GdXj9I4JRlFfJ76PK2/V9aYbsy2mArFHW5AQ1rbT0US6kwJcpANUu+qQsbMKR+4PNwZGtQdbhvsWhCAnswaVTg1maygh3IYJk6OxYpij0UtUthQvZbkurQwpo4M961SAi/9RgIt0AA44y8t3IrU02LukfTj4LS7HikxHtXeJ+FjMQZg4Ihp7x1Xhi17F3qWtw2OstSmlyD6zBscPiIRJ/d/ihxTgIh2E/dUdGQNcl3rAD8bt0ivGhmkXx2PuWXnYHFd+4I4WYnjviazEf0/LxvHTIzAksX1dHiLdRQEu0gEYKvZQMyqsHdPkzZApC3cjKtTiXSL18UpWk4fEYPB0O546PQPrEsuMJvHm8F4OfNvgeezDF+zHUT+PwNQhsQfuFPFDCnCRDmCzBCE1zYY9UR0zi1p+qBO1SXWI1eCqJoXbzLj8hGRM/l0MXrgpE++PysMmTzXuCHah4Rl87CvfEV2JOaNy8dpN2Zjy6xhcMioRdmv7Z3MT6S4KcJEOYDEFoVdyMLJ6VaPYEyDt4Q6qw5KhhThueCSsOrepWTF2C84bFY+rbk7G3vuq8NJvs/Dc1AzMHpGNtwbn4s0hOfj3UZl4dkImZt+Yjey/VeO23/TCucfEI8xzACDizxTgIh2Ag6AGJtthn2TGmsRS79K2qTHX4euBJRg/LApmBfgh8eDp+D6RuP303rj1F2kY+g87Kh51I+ehGuQ95ETQc0DSY1ZcfEci/nBGX/SPD4VZg9akB1CAi3QQnoo0emIEPh5XiP0RbRs9zqbed0fmos+UEAxJ0uCq1mAo948NwXkjE3DdpFTcdHoqbvTcbhqXikuOScKI5LAOHWQo0t0U4CIdhAFy8rBohE4z4f3heSi2ta4p3WWqw4o+Dqy9oBSXTk1CeLCaeNvKZg5CiNWEEIt2cdJz6d0t0oEiQyy49PQkbL+0Au94Kuk9kS0b1Mbw/nRAIeaem4ezL4vHME+1KCLSHAW4SAcblGjHjT9LRe4fnXh06n4s91TVpZ5qnIPTeHoYT2fi11rPzzz16bukUvxj4l58cH0+LrgtEWP7RkJdtCJyKApwkQ7GcWcje4XjprNTcfIforFiRhFmXLkT/zppHxYMzcfqXiX4om8x5h6Zj/tP34OZ1+xC3e11+PV1aZgyKAZ2jY4WkRYIcjgch81kTxs3bsTixYsxc+ZM7xIR/+Z01xnzme/Kq8KijYUoL3Uj11FjhHRyjA1D0sJw5IAwxNmt6vMW6QFmzZqFKVOmYOTIkd4lnUcBLqhy1mJ7fgV2FVQit8yJYIvJGAQUHWrB0MQw9IsN8T5S2oofMnftgY+a7wqhbCbnTac0ifQcXRngbWpCr62tRVVVFTIzM1FeXu7ZITV+DMDlTqfzJze3W1dXOhzwT5ZXVoOXv8zCPXN24d0H87D7zirU/rwO5b90o+B2J76/uxyvPpeFJ5enY1tehXHBDmkbRjTPV+bN6jk44o3fK7xFpK1aXYEzgL/99lssWLAAeXl5CA8Px9lnn40JEybAbP5pE+COHTvwxBNPGIEf5N1RDRs2DJdddhmio6ONn+tTBd41WAmuyyzD/z7NhftD4NS1MRhUaEdspRXhTrMxItoVVIdKSy3So6vw1ZASrD+tDMeeGoGLRych1KqhEyIijTmsK/C9e/fi7bffxtChQ3HnnXfiyCOPxHvvvYc9e/b8pBJnaGdkZKCsrAyTJ0/GtGnTjNvYsWMREqIm2e7CK2atTi/FM89lYMgTYfjDgr6YtDcGfUpCjPAmS20QQtwmxFRbMDInHFd+noyrn07B1/8pwftf56GsWq0oIiLdrVUBzoDeunWrUU2feOKJ6NevH84880zYbDZs2LABLtePE1ewuZyhPnDgQKNCP/XUU43bqFGjFODdaGd+JV54PRPTX0/AJRsSjZA2N7zyQz28h9emHpUVjlve64XVz5di/vp8VLlqDzxARES6RasCvLq6Gunp6YiLi0NERISxLDY2FvHx8di2bRtqamqMZcQwZwVeWFiIF198EY888gg+/PBDlJSUeB/RODbR+/rLuY6m+tel9QoqnHhvRR5GfxCBifujYfNU2S3FkB9eEIbLFiThq7dKsKewY666JSLiz9ja7Mss3roys5rdg/OJ1L/xyZWWlhoVt8l04FdZjbPvu+FgNj42OzvbCHWGfVRUFD7++GPMmTMHlZWV3kcd7JtvvsHtt99u3O655x6sXbvWe4+01978KuTNd+K89Qk/NJe3BkP86LxwHLU0HB99XoCyGjWli0hg+/77741+b19uLV++3HtP5zPPmDHjXu/3P8EwZgBv3rzZqKT5PYN43bp1RmiPHj0awcHBxmO/+OILozrnQDaGOzHgk5OTjc589nuzQ59N54sWLTL6zxMTE43H1Zebm4uKigp4npPRbz5+/HikpaXBYrF4HyFtVemsxYJlBTjiv6EYmxnV6EUdOCtYc83pZPL8ZmKpDe8l5OG4cZ4Ds1D9bUQkcLEVmnk4adIkI7c4TmzIkCGNZlxHa7ICZwXNUeFvvfUW3nzzTcybN89o0o6MjDSqal+1za9cznD3VeU+/fv3R2pqqhH0drvd6A9ntc6BbU2xWq1Gk7zv5jtIkPapcLqxfkMZjs2IQFAjLTyc1rPK0rJ+7YQKG/p8H4yNe8pRW6/VRUQk0DCzfF3JvDHrukqTAc4nxQr4jjvuMEab33rrrUhISEDv3r1RUFBgNKUTv2c/N484WH2zP4C3nJwcvPLKK8agN+Iyh8NhfN+VL1AOcLnrUJDvRFJ54wdEJk/lHVHTsmZ1T6GOxOJgZBRWew7gvAtFRKRLNRngbCbnOd4pKSnGjc0BrJ4HDx5s3PfJJ59g165dxnnbbD5nszgr84ULFxp9AHwszxOfO3cutm/fblTz8+fPx6BBg4zKXLoOM9ZR7oKt2GSMKG8vNrKnOmzILvAE+IFFIiLSxVq9N+/bty/OP/98I7yfeeYZbNq0CT/72c+MU8rYlJ6VlYX8/Hyjqf3qq682mtWfffZZzJ4922hOv+KKKxAWpksldjVW4DZeAquD1FhqYdGELiIi3aZNc6Gz35une/Erq3GGtK//m03lXO6blY2P4zLyjVjn18ZoJrbOwT/w7rxK3PenPXjslcEtbipvCi+L+cqYbFT/rRY3n5oKMy+/JSIih/9c6AxgjgxnPzm/1h+8xu994U38no/zPbap8JbOwy0eZbfA3NsT5NFNn8LXUm5THTaklaF/aoj+niIi3URtoAGCl68cc1ykcR3q9rakr08og+uYOoxICzOufS0iIl1PAR4geHnQkcPCseeEKuyMqvAubT2eK/5N31KMHReJxPAD5/yLiEjXU4AHCPZTH5kSjsQzrfhwdD5Kba2fRY1935+nFmPzGeUYe0ykcd1wERHpHtoDB5CIYDMuGJOIvdOr8eaIHJRbWx7iDO9N8eV4f2oeJl4Qjb6xuiCNiEh3UoAHmN7Rwbj2vGSsv6IMc4/JQ2GI05iFrSmcWZVBv7yfA49cuh/HXB+Bs4fFwWbWW0dEOo/TXYfiKhdyy2qQXVqDvDInCiucKK12a/4JrzadRtZZdBpZ1+D0p1tzK7Dg80Kkz63C6V/GYUBeCKKrLAh1mWGtDUKN2fPhsbmQF16Db4aVYtc5lThtWizG9YuE3dq+09BERJriqHRhT1EVdu+vxNo1ZdixvQJVFbUICzcjKtKClD42jB8bhQFJoUiNDIbVfHiNpO3K08gU4AGKf/QSz9Htkq1FWLOpFHWbgYhdZgTnmWCu9AR4ZC2K+7hReYQbI04Iw5kj4xAfbtOocxHpFO7aOuwsqMQ7y3NRsMCJxG02jNsfhRG5YcbVE0s8BUVRiAvfJ5Zj7fBSuMbWYdTUCEweHIP4MKt3Ld1PAa4A71K8UllmcTX2O6pQ5Dn6rXbVIjzYjKQImzHSvG+M+rtFpPO4POG9cqcDc/6Xg1FzI3DuhniklAc3etVEYpivTyrD/AkFiL7CghsnpyLuMAnxw34iF+lZQq0mHBEfikkDY3DBkQm4dFQSpg2Px5jekQpvEelUrCA3ZJbhjZdzcM6/43H1t8lIbSa8KbLGggnp0bh5QS/UPQO8tiTbaHoPNApwERHpNtklNXh7fi4ufjMRp++Jg93VsjE2HHvbrzgEV65MRuU7bqzc4oA7wC6PqAAXEZFuM/ubbITMNWHcvihjAG1r8NGpZcE489M4zFuQj+zimgN3BAgFuIiIdIssT/VdsMaJs9bEI8zZtrNbTJ6ie2CBHQOWh2L+hgLv0sCgABcRkW7x9f4ShK00YUBxSLN93ofCZvdTNsRgz3eVyCsLnCpcAS4iIl2O3dXZjmqk7AlGdHX7RpCzCo+rsMKSHYSCisAZzKYAFxGRLldW40ZVVi0Syq1GALdXqMuE4AJTQI1GV4CLiEiX48Qtzoo6hLg7JoYstUGwVAYZ81gECgW4iIh0uRCrCSHxnoo5uGMqZk7/7Ayvg90WOLGmABcRkS4XYjHBHmdGcbjLuNphe1VY3ahKqkWc/fCZVrWzKcBFRKRbDEoIReZR1cgLdXqXtA2vqLg3sQr2ESakRAZ7l/Z8CnAREekWQxLsKB7lxrfJJXC1YyRbqc2NlaMdGDU8wpgaOlAowEVEpFvwAiRTJ8ZixUQHcu1tO3+bze9f9ipBwTgnxvWP9C4NDApwERHpFmZTEI4bGIGoaRbMHZ2H/FY2pTO8v48rxwcX5uGCMxMRHRo4/d+kABcRkW6TEGbD1ZOTkXeFEy+PyWpxiNeYa7GqVzHemJ6DS65OwkkDohHUnunc/JACXEREug1DNy02BNf+LAXmXwfhqenp+Lh/AcqtbqPC5vVN2DvOGwerOU11yA6rwXsj8/DO9bk44ddRGDMkElZzgKW3hwJcRES6FUO8T3QIrjsrBUffEY6Fvy7EXT/biecmZGDRoEKsSy7D+pQyLBhWgJln7sKff7ELeX9x4le/SsMZQ+MCauBafUEOh6MDJrHrGBs3bsTixYsxc+ZM7xIREQkkTncdSqtd2J1bhfV7yrArqxJ5xTUI8vzXJyEY/XqF4viBkUiKtCHc1rYrmHWmWbNmYcqUKRg5cqR3SedRgIuIyGHHaDKvqzMuesIbsVLnzeT53+HaYN6VAa4mdBEROewwoM2eoLaYgoz+bd74PZcdruHd1RTgIiIifkgBLiIi4ocU4CIiIn5IAS4iIuKHFOAiIiJ+SAEuIiLihxTgIiKtUOWsxa6CSnyXXor1WWXYV1SF4irXD+cqi3QVBbiIyCFwdrBd+ZV4bmUGZszeiRefyMK8/8vHew/k4dmnMvCH13fgX4v3YnNOuTH5iEhXUICLiDSBWVxQ4cRLy7Lw2L/2I/guE666KxnXPJaM619JxbUvpuDqR5Jx/n0JqPs78Oij+/HvZZnIKW3bta1FWkMBLnKYcdVyLmg3aly13iXSHdye9N6eX4GHXt+Hon858btn++CSr5JwbE4EBjnsSCsNRt+SEAwtDMPpe2Lx65W9ccdzfVDxiBtPf5CBbbkValaXTqUAFzkMMLC/2luC11ZnGxXcS/My8cKSTLz8dRYWbCnA3qIquD3BLl0ns7gaz87JwPDHwnDr0jQjrENdB3aZlZZa1NWbz9Pk+YH3DS6y49qFKQh/zowX3s3EnsJK7yNEOp4CXKQblde4sXhLER54fS8W/KMA2bdXI/xXZvSeEYKo2y2ourUW384sxQP/2YtnlmegoNxpXORBOhf/Lu8tzUP/OaGYviUBETU/veqVkd1N/CFiq6y4/psU9H4zBP/9KgeOSpf3HpGOpQAX6SbZJTV4cVkW3n0gF5P/FoObZ6fiV1/2xtWbknHBjgRcsTkZN32Xip/PT8WFTySi9EEX7n93D1bvK1WIdyI2dCzZXIT9b1Xj0jVJsLsOvmRliKfabu6CGgzx89bGo/w9N77aV+xdKtKxFOAi3YCDnJ6cm46qf7nx+//1wcl7opFaHmwEQ33muiAkVtgwaX80bl2chhGPhuG/b2VjjSfE1aTeOTiKfNHaQpy4NgpxniBuC4Z7cpkNAzeE4uvNJarCpVMowEW6WGGFEy+uzETIayb8amlv9C8ONYK6Oexjjaq24PINyRj/UhTenpuL/UXVqsQ7AVtGKjfVYvy+KM929y5sA5vbhJO2RqNwuUuj0qVTKMBFuhDzYNHmQrheqMPVXyUjxLOTbz66f4oDpaZtj8OIt8Lwzme5cLkV4R3tmz0lGLE5DGHOg5vOWyulPBhBWUC50+1dItJxujTA3W436nRehQQwVmKbP6vAWV/Go09piHdp69g9wTJpfQwyllYbk4tIxyqudCGizGy0erQXD7jshWY4il3q8pAO12UBXlVVhXXr1sHhcHiXiASeDVllCFtlRj9H28LbJ7HCilGfh2P+hnwFQwdjgId5AtzcAZuVXSOmGsDp0t9IOl6XBHhlZSXmz5+PZ599Fjk5Od6lIoGFQbsruxLxm62IrWzb4CgfS20Q+mSHYMfOSpRUaYBUR4oMsaDU7oa7/QW4odpSi2CbCUFBHbRCEa9ODXA2l2dkZODVV1/FvHnzUFJSoiZ0MfBdwNG+DDXOPMYbf+7J7w5O1lK+343Eclur+r0bw+bdXqXBiMmywKEA71DDU8Owo38lqs3tnwkvO6wGFb1rER1pgUn5LR2sUwO8trYWW7duRW5uLi666CJERER472laRUUF8vPzjVthYSGcTqf3HukJGNQ8pWZLZjk++CYfLy/NwtMLMvD4vP2Y6/l5/f5So6LsiUHO1+4sr4O9walibRXsNiHYYUJxlQZIdaTeMcEoTHWi3Nr+7botpgKJo2xICrd5l0hPU11d/UNm8daVmWWeMWPGvd7vOxybjJKTkzFmzBgjvD/77DOMHz8eCQkJ3kf8FIN+9uzZ2LhxI5YtW2b0mSclJRk38X+sQFdsL8LL87Pw+WvFqP2fJ4Q+NSF2kQVRS63Y8WUlln/rwLe5pTB5jvUiQi0ItZnbXa0eLhjg63aWIXKZBYMddu/StssPdWLt+DKMmhCB+LD2NcnLj4KtJmxylKNoswsjssM8VU7b3oFOUx3mDytA2JVmTDgiChaV4D3Shg0b8OKLL+Ljjz82cmvTpk046aSTkJiY6H1E5+mwAGe1zSMPjjTnzWQ60OdjtVoRHByMsrIyrFix4pABzvXcf//9OOOMM3DyyScb4a2+I/+XXlyNVxdlYc2/yzD2f1G4cWUqJu2Mwej0CGMnOSInDOP3RGHS9zGwbAzCZ9uKsS20AslJwYjxBHlPwABfu6sM4YstGFYY5l3adjlhNfhucilOHBdt9NtKxzB59jfR0RZ8lFeA/ltDEV/R+oOjWs8u69vkEqy4sBgXnBmP1Khg7z3S07BIZVYxs3jbuXMnjjjiiC4J8A5py2O/No86Hn/8cTzwwAN48MEHsW/fvh/6u1sTwL7Q9914ICD+i++AfUVVeO6dDFQ+WIs73+uDizcnGlNNciAWR+kaI3U9N/4c7jRj6u5Y/HJeGoKfNOH5tzOwJbfiwMr8XIinsktKsyGrVzWqLO3rX2VAZEbUoCKtFkkRap7tSNxdDUmyY+wFkXj11CzsjmrdqXp8z++NrMJ/T8vB8RdEYGhi+w/W5PDFzLJYLD9kltnc/vkDWqrD0jE8PBz9+vXDwIEDMWjQIISGhqpyFuOKTk/Pz0D8f6y49dtexsQWLRHrqXou+TwRSa/a8PrSbOSX+/9YCLPn8zCyTxh2ja/E3ogq79K2qbC4sfxoB0YMCIPVrM9ZR7NZTDjtqFgMuCIUr52cja2xFS0al+Ey1WFndCVeOj0Tg6+144IjE/T3kU7TIQHOoO7Tpw/OPfdcTJ8+Heeddx7i4+O990qgYpPxko1FSHzFiivWJhtVd0txl8fHX/1dCixvBWHFZgdq3P5/fex+MaEIG2HBt71L2jXKeWN8GXZPqMRZI+K8S6QjGe8/uxUXnZKIPneE4D+XZeKrtGKkh1ejppG/G5ft8xyUfXxEAf552V4ceUc4rh2fArut66oxCTwdVoGzqdtms/1wU9O37HdUYduSCkzaEIP4Np73HFNlwfmrErByiQNl1f4/2jo82IwzJsRixdkObEwqN5rCW4sV3mtnZuPsU+KQGqXm884UbbfggjEJmHxLDN67Kx//vjQDs4/NxptDcrCkTxEW9SnE24Nz8dhx6Xjh+iys/IsDV9yehHNHxyPC87cW6UydOgq9PgZ6XFyc0bweEtL4LFQcxLZ7925jQID4N6e7Dss81XfuyzU4f1MCrLVtP6DjnNRfRZYg5CgT+iWE+H3XTBxHjMcF4T1HHpIyrUgpC27ROGc24WZ5KsDHx+3H4BvtuOKEZFjNOlDubBy7MDDBjlEjIhA5yoLiE1xwnOzC/lHVyJpcg8rz3YiZbsWUs2Nw0dhEDEq0a8R5AFu+fDkGDBjgP4PYWoKnkU2ePBnR0dHeJdKTVblqsXljBU7YGdXo9ZRbw+40YeL6KKzc4EAPaEU3mlVPGxmLsTdE4tGL9uOjgfkos3Lmr8Z7WWs9y3n/9wnlePis/bDfaMb54xIQbFF4dxUeM/JUvYkDonHF+GRcf1oqrrk8BTdcmoKbzuyFa8el4OjUcCPsRbqK3m3SKTirWmmJC/GV7W/iDeKsY45gZBX1nEsysin9ouMScfVtKVj2GweeOi8dy/o5sCO6EhmeKtsR7EKuvcboV13Zqxj/npqBp3+RjqN/E44/nNsXKZE6Lam7WMxBCPUEdYIn0NlPzu81Xle6gwJcOkWNqw652U6klnZM0ITVmOEqqzMq+56CO/6pQ2Jx9/X9cPTMcCy+sxCv3pqFl6/IwgtnZuLFC7Pw0g1ZmPenfPT6awhm3tEfl41LMvpW1UIrIgpw6RQMmODQIFRa2j/wjFll9wR4ZZUnvFtyLo8fYeUWY7fg9JFxuPOavrjy9mRMvTsWI/8RhhPujcIFdybgz9f2wyWeaj050qa+VRH5gQJcOoXZEzSxcVZkh7e/2ZuZvSe2Egm9rAi19cy3rC/IByfYcXyfSJwxNA4nDYjGUanhiNIsayLSCAW4dAr2Eyak2bAlvty7pO3qguqwNakCg1LtbZyVWkSk51GAS6ewW004dkQEtvWvRHFw+y53WRjiwvLBDkwYHgWTmpBFRAwKcOkUvCDE4BQ7TKcCX6YUe5e2Hic6WdKvEEmTbBiUrApcRMRHAS6dJiHcitNPjcPnZ5YYc0m3FsN7fXwZPj+1GOdN0cxWIiL1KcCl0/DiHaP7RiDpIitmT87G7ujKVg0i3xVVgVfHZ2Hkz8JxVO8I71IRESEFuHQqVs2XjUtG7A1WvH1BHj5PK4bT1HyM81KbK9IcePbsTPT+VQimH5tg9KmLiMiPtFeUTsfTo66blIL+vwzBazdm4f8m78WifoXG9KAMc16CkVdzqvD8vDGhHE9NTseC2wow4c4o3HJyL2O2KxER+akgh8Nx2EyNsXHjRixevBgzZ870LpGegm+yiho3dhVUYt2OMny3uhTZW2oQ7bAgvNqMjJhqVIfWolfvYEyZEotRgyKQFt2yi3yIiBwuZs2a5dmHTcHIkSO9SzqPAly6FN9sTren2q6pRWm1C7kOJyqq3egdH4IQmwlWc5DR7G7TVbZExA91ZYBrLyldihU1wzk61ILe0SHGILcJg6PRLy4EyRE2xNmtCm8RkRbQnlK6FacQ1dwsIiKtpwAXERHxQwpwERERP6QAFxER8UMKcBERET+kABcREfFDCnARERE/pAAXERHxQwpwERERP6QAFxER8UMKcBERET+kABcREfFDCnARERE/pAAXERHxQwpwERERP6QAFxER8UMKcBERET+kABcREfFDCnARERE/pAAXERHxQwpwERERP6QAFxER8UMKcBERET+kABcREfFDCnARERE/pAAXERHxQwpwERERP6QAFxER8UMKcBERET+kABcREfFD7Qrwuro61NTUoLa21rtEOpPT6URxcbH3J2lMZWUlKioqvD9JQ9o+h1ZSUmJ81qRx2j6HjzYHOMM7IyMDy5cvR1lZmXfpTxUWFmLevHl47733frh98cUXxk5EWm///v345JNPvD9JY1avXo01a9Z4f5KGtH0ObcGCBca+TRqn7XP4aFOAs+LmH/Dll1/GRx99hPLycu89P2LA79q1Cy+99JKx09i0aZNx27t3L1wul/dR0ho88t2yZYv3J2lMZmamdi7N0PY5tK1bt8LhcHh/koa0fQ4frQ5whvfXX3+Np59+Gps3b26y+ZwhvW/fPgwdOhS33XbbD7dzzjkHYWFh3keJiIhIWwR5jqTqvN+3CPs+3nnnHZhMJkRGRmLhwoW48847kZKS4n3EAexn+/e//218nT59uhHoUVFRSE5OhtVq9T7qp1ihv//++7j00ku9S6S+bdu24fPPP8e1117rXSIN8f1oNptxyimneJdIfdo+h8ZWwwkTJmDw4MHeJVKftk/z/vvf/xqZN3z4cO+SztPqAGfTOEM8KCgI3333Hd58881GA5zNvffcc4/xNSkpyWhm547jwgsvxLhx44zvGyooKDD6ydU80zQeCFksFu9P0hBbhPgebez9Jdo+LeF2u439G4sUOZi2T/Pi4uIwbdo0JCQkeJd0nmYDvLq62hhl7hMeHm784Yg7ATalNxXgDOy33noL8fHxOProo431sL+c/eK/+93v0KdPH+8jRUREpLWaPIRilc0R5n/+859x11134e9//zvy8vK89x5aSEgIzj//fJx++ulGWB9xxBFGsx2DPScnx/soERERaYsmA5xNbMOGDTOavC+++GKce+65Rh92S/F8ZZ6uUlRUZPzsa3LhV18VLyIiIm3TZIAzbNPS0jBx4kTjxn7r4OBg772NY9XOJvI9e/YYAf72229j0aJFxkA29muzyZ0HAampqd7fEBERkbZodhSCr1puqmpmyNcfDMOg/vjjj7FkyRIjqM844wx88803ePDBB/HQQw8Zo8w5Oo8j0UVERKTtWj0KvT72Z+fn5xsVNU8N4+jErKwsY5Q0R+CxIuekEZx5jQcAPO2Mj9UIWBERkfZpV4CLiIhI99CJfCIiIn6o2ytw9pvzHHE2rzc1MQAnL+F55/Wxmb6xfvlAwQk5OMKf5+YfanBhT8UuG9+VkWJiYpqc4Y/4mIYC7T3Umu3Vk/Gzw30OL7bEsTp2u73J9wEfy+1WH7sAA3kSE+6Lue1CQ0ONbRfIuju/ujXA+eI//fRTY6fCwW0Mo4b4wt944w1jClHfBuIHiI/nyPhA3Alxh8JpVT/44ANcdNFFxjn2gaa0tNS40t1XX31lbI/evXvj8ssvN86caIiB9cgjjxhz8/veQ9zxXHXVVcZ0h4EQ4q3ZXj0ZX/u3335rXFGL81pwn3P22WcbU4M2HJvDfc9nn32GOXPm/OS+k08+GWeddZYRYIGGBzTZ2dmYPXs2Jk+ejOOOOy5gC6nDIb+65TCSL4ofHu5QXnvtNeTm5hpvjMZwI/EKXJwM5swzzzSmqOMHrl+/fgE5pSgHBPL8es4zz6/1Z8oLFHyv8EwHhtEVV1xhXCSH24XT8FZVVXkf9SOewrhjxw4ceeSRxnuH7yFOMMSzIQJh59Pa7dWT8WqIPL2VF1niDJJ8T3A78NTXhlUSD/x27txpHOyddtppxvuGt5EjRwZk4cDtsX37drzwwgtYuXJlwF4W+nDKr24JcE7R+vrrrxtHwnxhDT849XGUO88p59EeP0SnnnqqMaMbK4dAO/Ljm4Tzz3OyfM4vH6hN52yS4nXlR4wYgVGjRhkXVeAHY+PGjcblMhviddT5XmHVNHXqVOM9xCoqNjbW+4ierbXbq6fifoaXwuR74cQTTzR2otyp2mw2bNiwwdhO9fEsG55FM2bMGOOAj+8b3rj9Aq144Lbjwc+LL75ovPZAvqLk4ZRf3RLgxKaXn//858aHoznsa2GVyR3QY489ZlzGdO3atQf1SwWKxMREo+mTTTCBGuD8ULD/f8CAAUazFG99+/Y1Pli7d+/2PupHDCl+yDhHwcMPP2xUEJxwqLkPXk/S2u3VU/H1pqenGxebiIiIMJbxII7Xa2CXVMPWLFZP3P+w6uR+5/HHHzeml+Z6AhH7eVk9Xn311cY2C2SHS351SYBzR1n/xuA54YQTjCPgQx2FsO+ORzDcCGzy5M/PPvus0XzcVLNFT9Fwu3HHO3DgQOPNE2j9b/W3A98DrJa4DXzvH24bYtXUEK9yx+Y+/g7nIWBf+JNPPmlUFFxfT1dWVtaq7dVTsQmY7x1W3L7Xz+3BPkluh4bvBXYv8OCHgc15Lfg7bP3iJVkbVus9HbcTtwFn5WzNlNo90eGUX50e4PwQsA+A06jyxsqHDvXCfYYMGYLf//73uP76640BWzfffLPRfLx06dIe3QfDnQkHi3AmO2631atXGzsSbreWbrueggG0bt26H95DPKptzTZgc+kf/vAHY9Ca7z3EbcmBJT39IFAO1tL3Dvczv/zlL3Hrrbca14S47rrrcPzxxxtVOA8KA00g7nsa05rt0Nn51ekBzhF6ixcvNi47yhv7DVq602SIcQAJR1lHR0cbR85s/mK/A9fbk3e+rBbYR8lLsnK7ccAEm/QCEQ9k5s+f/8N7iH97HgXzqNZXNfG9wA9Vw5GgXM5m0v79+xv9dnwPsQpnVwSrq0DApk/2W7Zke/Vk/NtzW9TfDvzKappN6r6q3IeVOfc9bC7m+42PYTcEi5JAbUaXluuK/Or0AOfO87LLLjNGfPLGwSANPyj18UWzf8D3wWKV9M477xgvmPjh4ahiNuM0PO2jJ+Eo1/Hjx+OOO+4wthurgEBtuuIb/qabbvrhPcTtwg8Cm8D5IeCNfbn8gLBZq/57iO+XDz/80Gj29O102VzK91OgbE9uKx6wNLW9AgVDmKfPsXpmUybxe7bosFLi9uC24fuGX9lyyFHGnB6aeFDNfQ+7IgL1HHppXlfnV6cHOI/8uQNJSUkxbjwSaa75gYNteFoHm0yJVRObTVnFczQxv7IZnjtxXnO8p/JVR77txh1wcwc+PRl3rHz9vm3B7cJzKNmtwFOjOMjoo48+wqBBg9CrVy9j5DDPvfSFFHfcDHA+lu+huXPnGh8uvod68kGgD18jX2tT2yuQcAQ5P1uffPKJsR/h/oQHdjytjJU53yfLli0zvmfFzW3F1h+eZsb9EM8L5xgU7tNEGurq/DLPmDHjXu/3XY5HKb6Ln/Da49zZssOfRy2cKYqVF3fYvJ+j+PjB4jl3HAk5duxY4/GBilUkB2ONHj3aOCgKJNwBsx+JR7K8XC3HCbBZnNetZ4sP31PsqmF1ycex6uL2Yt8lz19lJfWzn/3MOK0qEA6KDrW9AgkrHwYzD2T4fmBldN555xnvBYY2tw0P7nhww6Zzbh8e+PA8eh4Q8sCRpwMF8mlU/PzwgIatFoEyl0JjDof86vapVH3NVfUrITZB8E3h27nyfh4lcwfEsGJFFajVaH38IPHNEagfIL5P2BTKr9wp+z4QvmYsvkd87xP+zDEEvPE9xCbQQHsPNbW9Ag3fH779CQO9/v7E14Tu2x/xe37O2MzObcaqKRBabQ6F76H6++hA1d35pauRiYiI+KHAPnwSERHxUwpwERERP6QAFxER8UMKcBERET+kABcREfFDCnARERE/pAAXERHxQwpwERERP6QAFxER8UMKcBERET+kABcREfE7wP8D4XCFNC9742YAAAAASUVORK5CYII=;" vertex="1" parent="2AID36fqUqGkAKmChoYP-27">
          <mxGeometry x="66" y="55.47999999999999" width="328" height="264.52" as="geometry" />
        </mxCell>
        <mxCell id="2AID36fqUqGkAKmChoYP-26" value="Wait for all 16 symbols to arrive" style="text;html=1;strokeColor=none;fillColor=none;align=center;verticalAlign=middle;whiteSpace=wrap;rounded=0;" vertex="1" parent="2AID36fqUqGkAKmChoYP-27">
          <mxGeometry x="148" y="25.480000000000004" width="170" height="30" as="geometry" />
        </mxCell>
        <mxCell id="2AID36fqUqGkAKmChoYP-18" style="edgeStyle=orthogonalEdgeStyle;rounded=0;orthogonalLoop=1;jettySize=auto;html=1;entryX=0.5;entryY=0;entryDx=0;entryDy=0;" edge="1" parent="1" source="2AID36fqUqGkAKmChoYP-8" target="2AID36fqUqGkAKmChoYP-17">
          <mxGeometry relative="1" as="geometry" />
        </mxCell>
        <mxCell id="2AID36fqUqGkAKmChoYP-8" value="Data Generation" style="swimlane;whiteSpace=wrap;html=1;" vertex="1" parent="1">
          <mxGeometry x="-160" y="-160" width="880" height="520" as="geometry" />
        </mxCell>
        <mxCell id="2AID36fqUqGkAKmChoYP-12" value="" style="edgeStyle=orthogonalEdgeStyle;rounded=0;orthogonalLoop=1;jettySize=auto;html=1;" edge="1" parent="2AID36fqUqGkAKmChoYP-8" source="2AID36fqUqGkAKmChoYP-10" target="2AID36fqUqGkAKmChoYP-11">
          <mxGeometry relative="1" as="geometry" />
        </mxCell>
        <mxCell id="2AID36fqUqGkAKmChoYP-10" value="Generate 64 bits" style="shape=process;whiteSpace=wrap;html=1;backgroundOutline=1;" vertex="1" parent="2AID36fqUqGkAKmChoYP-8">
          <mxGeometry x="20" y="229" width="120" height="80" as="geometry" />
        </mxCell>
        <mxCell id="2AID36fqUqGkAKmChoYP-14" value="" style="edgeStyle=orthogonalEdgeStyle;rounded=0;orthogonalLoop=1;jettySize=auto;html=1;" edge="1" parent="2AID36fqUqGkAKmChoYP-8" source="2AID36fqUqGkAKmChoYP-11" target="2AID36fqUqGkAKmChoYP-13">
          <mxGeometry relative="1" as="geometry" />
        </mxCell>
        <mxCell id="2AID36fqUqGkAKmChoYP-11" value="Convert to 16 symbols" style="shape=process;whiteSpace=wrap;html=1;backgroundOutline=1;" vertex="1" parent="2AID36fqUqGkAKmChoYP-8">
          <mxGeometry x="210" y="229" width="120" height="80" as="geometry" />
        </mxCell>
        <mxCell id="2AID36fqUqGkAKmChoYP-13" value="" style="shape=process;whiteSpace=wrap;html=1;backgroundOutline=1;" vertex="1" parent="2AID36fqUqGkAKmChoYP-8">
          <mxGeometry x="400" y="94" width="440" height="350" as="geometry" />
        </mxCell>
        <mxCell id="2AID36fqUqGkAKmChoYP-15" value="" style="shape=image;verticalLabelPosition=bottom;labelBackgroundColor=default;verticalAlign=top;aspect=fixed;imageAspect=0;image=data:image/png,iVBORw0KGgoAAAANSUhEUgAAAfgAAAGVCAYAAAASQuP7AAAAAXNSR0IArs4c6QAAAARnQU1BAACxjwv8YQUAAAAJcEhZcwAADsMAAA7DAcdvqGQAAGetSURBVHhe7d0HYFvVvQbwT9OSLO8VO9vZAwiEEWaAsHcZadmrlJbCo0ABUyCkoaUthdLSlr0JZUMohJ2AISSskAAhO3GW95QlW7Lmu/8TmTqOtxRblr5f332yj2TFPkj67hn3HF1DQ0MIREREFFf04VsiIiKKIwx4IiKiOMSAJyIiikMMeCIiojjEgCciIopDDHgiIqI4xIAnIiKKQwx4IiKiOMSAJyIiikMMeCIiojjEgCeiiAWDQXUQUezgWvREUVJTU4NXXnkF27dvD5fsZLfbMXLkSBxxxBEYOnQodDpd+J6uSWBWVVXBYDAgJycnXNq1UCgEv9+PzZs3Y/To0TCbzeF7ek6e44MPPsAXX3yB6dOn46STTgrfsyuPx4PvvvsOixYtQkVFhSrLzs7GkUceiQMOOAAWi0WVtfL5fPjss8/Uc2dmZuLnP/850tLSwvfutGHDBixYsADa55L6m8855xxVZ4FAQP0+77zzjqqXiRMn4qyzzoLNZgv/JBG1ZygqKpob/pqIIiAh97e//Q1vvvmmCqoffvhBHStWrMAnn3yCkpISFZipqanhn+ichPTHH3+MP//5z8jIyMCECRPC93Strq4Ojz32GP7zn//g6KOP7lMASoC+8MILePzxx1UQy/O019zcjBdffBHz5s1Tf5v8vevWrcPy5cvx6aefqkCePHkykpKSwj8BdbLy97//Hc899xzWrl2r6kJOfNqe8Hz//fe49957sXjxYmzcuBH77LMPxo4dC7fbrX4f+dvk35CfOeGEE3Y7iSCi/2EXPVEUSbAZjUb89re/xb///W/861//Ul9LS/qjjz5SRytpKbtcLpSWlqqTA2kRt6qtrcWrr76qwrO6uhpNTU3q8UL+DWnhSk9BWVnZj/dJMEuL+qWXXlJh29jYiJaWFvUzor6+Xv1bchLQvjtdfl7K5fnkd5J/Q04y2j9OyGOXLl2K++67T/1uF1xwAZ599ll1UnHJJZfA6XTioYcewpIlS3b5eTnBkTKTyaR+NzkR8nq94Xt3kueWf1ceI3WwatUqVSYB/9VXX/34fB39XkS0K7bgiaJEAvStt95SQXnDDTfg0EMPxZgxY7DXXnupFqkEsnx9yCGHqABdtmwZ5s+fr1rLEnyVlZXIyspS3dbSFf3aa6+pVq+EmwSetGQl/KRL/JlnnsHzzz+vWvkSnNKdLc8pISvPKz8jXeLyfNJtLicWTz31lBpCkB4FuW/48OHqeSVkP/zwQ9VClu7xrVu3YsuWLaoFPW3aNMyaNSv8F+4kv8Nf//pXrFy5Ej/5yU9wyy23YNy4cRg2bJhqlcvfIWEsJxfSvS9DDPL7yN8prfvjjz9e1ZGcHMycOXOX4Qf5d99//30MGTJEnQRIXUiXv/xO0nqXHgXpFcjPz8fJJ5/MFjxRF9iCJ4oyCVrpapYxYwlu6ZKWgEpPT1chLS1SaZnffvvtquUr4Sdd3H/6059wzz33qMfKeL4EnLRUpVUtLW/5uW+//RZ//OMfVWBLMDocDtVL8Oijj6pWfXl5uQpW6Q2QbnA56ZDH3nHHHWrsW+YDfPnll/j973+vQl1+V/ld5Hs5OZHeh2+++UaNlbdvXbeSFrr8vtL9L4EuQwjSZS6HDD8cdthhSElJUY+Rv0PIrZy0yEnAueeeq35Oei3kZKUjEuRSVxL4Mp9ATlrkd5MTibbd/kTUOQY8UZRJuP7zn//Etddei2uuuQZ33XWXCufzzz8fRx11lLpfWuDS8pYu7fvvv1+NTUvLXkJWAlfGl/fbbz8VZtIFLo+zWq3Iy8vDpZdeqgL5xhtvVGEprXQJbWntysQzaf3m5ubi1ltvxdSpU1VXuPQeXHzxxfjd736nficJb2nty1i6BP22bdvUhDb5XeWQMX+9vuOPB+k6l5MS+X0ksNuT30da1nKi0TocUFxcrE5cpkyZov4uacVLnciJhJyUtCc/f9BBB6nfW3oSvv76a3VCIWPyRNQzDHiiKJMuaQknaaVKd7YcEspXXHGFCuEdO3aoMXIJwuOOO051lU+aNAmHH364Cly5T8bsk5OTVatYwlq62eVrCXgJbWnZyoS+J598UnV1S+BKC1eeU7rd5edHjBihQlb+PWmpS4hLF710rctJhjyHfC238jMHH3yw6vqW2fcSxFLWEekFaO3alx6CVvI7CJkTIH+z1IOcBMjfJK13CXTpxZCWvfx+cr/0SMgh97UlJzYyPCC9BZ9//jlWr16tfrankw2JiAFPFHUSTpdddhnuvvtuXH311SrIpCtexr7bThKTUJP7hIR320va2geekNCUlrA858svv6xOAKQ1LN3i8vMdkeeRQ8JYWtPSLS5fy9j4qaee+uNJhGj9XURnrXchJxFy6ZoEuQwDyPNJ6/yJJ55QLXIZmpDhBTkZkcdJgK9Zs0aFtfRcnH766bjqqqtUT4C03uVnZGJfW/K7yAx76Y2QkwN5nHTZS8gTUc8w4ImiTAJTAlLGoaXLXLrbZQz9gQceUK1oCS1ptUvrV2ajSwtXxqglGOXkoLCwUHVHy/PIiYAEqLTA5XHyeOnaP++88zB37lx1CZu03OWxbUNeTgZkIp30GEggy/NJoMs4v/QmjB8/XrWQ5Xpy6WaX55ducGmFyyQ5aTHLv9sRCV95LmnF//e//1VDAPL3yRj/9ddfry6fk99buuHlsTIRUP6+Y445Rl3213rIYyWwZRxefr49GYeXSYkyB0F+P7m2vqsTDyLaFd8tRHuQTIST1ry0PmWcXCbcSSDLuLq0vB9++GG14IscEnQyQU3G6WUMunVm/IMPPoi//OUvqltdQk9CToJVwvqRRx5RLWHpipdQl5MKOSSkZSa/nBDIMID8nEzgKyoqUodcxtY6FCD3S0tbxuSld0DG9uUkou0JQ1sS2sceeyzOPvts9e/IiYbMpJdWunS/Sy+BnFTIycOmTZvU3y2/s/zNl19+uaqP1uPAAw/8cRKd/A1tSfhLwMvv0TqhjwFP1HO8TI4oSlq7rKXb+8QTT/xx3FyCWlq70kUu4Sjj2/vuu68aI5eWbWvrVVq4v/nNb9TJgJwESGteJplJS1q6q+WSMgli6c6WngD592TcXHoDZKxbVsqT1rh0j8u/Jfbff3/1u8i4ufyMdKXL73TaaafhwgsvVCcZ8jMyE15ayhLYcmmftL6lB0B+XoK1PfkbpQdA5gdIT4R0v0sIy+I28vMyL0C65uXvkMCXsXPpOZCTD/n3W0Nb/g35N+UERMJefneZEyA9DPL3yN8uPy+T66Q3RHox5H6ZTS8nQ22HNYhoV1yqliiKpBUt3dMSbG1bm1Im90mwScjLfTI2Lq1WCUNpsUt3upwIyGOE3C+Xvkmgy8mChLiUtYaihLYEppDnb/1Z+Xfk+nn5HaQlLf+e3C/hKP+WhLr8W3J/K7lf/h0JWPm35LmkTJ6v7ePak8e0/j7ytQw/yN/07rvvqtb8lVde+eO4uTxne/Iz8vtKfci/I39faz21/V7Iz7e/n4g6F7WAlzeqnMnLh460PDrS9s3aSt7Y8gFERPFD3usypCAnJUQ0MKIS8DJOuH79ejUuKONy0kXXEbmeVa4Pbm0ZCLk8SK7l5exYIiKi6Il4xorMupXLf2Syj9x2NvNWQl3GGqUbUCYRnXLKKeqQ64W53CQREVF0RRTwEtqyrKXMDJZrXjvrmhcyTieTY2QCkawhLROK5JDJRgx4IiKi6Iqoi14CXi6DkYlAMmlHLsO57rrrVLd7ezLj9x//+Icap5frfGXCj4S9bCQhP9sRGceT7n+5JSIiGmwGckJoxGPwreEry2HeeeednQa8nATMmTNH/bGyYIVMwJF9neVSm4suuqjDyTjynLICWNvlMOl/pFdEDrnciDrWuoRrRzO4ifXTE3JlQevlfbQ71k/XJNvkapKCgoJwSf+J2ix6uV63q4CXsXnZq1ouwZH1rqVlLstuyp7X8jNybXB7she0rI4li2/Q7uQ6Y1klTDY1oY69/vrrKsBk5TXaHeune9IzKWsJdPQZRayf7tx3331qWHog6qdfA14Ww5AzvdbFKeQ6WXlxyIpWMtmuPQl4Wd1LWv60O9koRK5cYP107qWXXlK3s2fPVre0K9ZP9+bNm6cWBpLeRtod66drUj+zZs1Sm0T1tz267qOM0csh3fiyEMbTTz+tlsdsvU+67QW7mPtGusTYLdY11k/XWD/d4/K4XWP9xK499l9GFrT56quvVAuzdRlLWUVrwYIFquUurfOFCxeqJSdle0rqvdbNOKhzssSrHNQx1k/39t57b7WUL3WM9RO7ohbwshpd6y5YQsbYZZ1t2eZRvpYXgEymk7M92ehi/vz5atLB+eefr9a1pt6TdcA7Gtqg/5E10GVdc+oY66d78h6T9xp1jPUTu6I2Bi9kRrdM2Gnt9mvtopfwby2TsJcyIWVt72uPY/BdkzW/ZeEgWW+cOia9R6J1zXbaFeune7JbX1dLcCc61k/X4mYMXi61aRvWrRtItC2TQJfHydH+PiIiIooOzo4gIiKKQwx4IiKiOMSAJyIiikMMeCIiojjEgCciIopDDHgiIqI4xIAnIiKKQwx4IiKiOMSAJyIiikMMeCIiojjEgCciIopDDHgiIqI4xIAnIiKKQwx4IiKiOMSAJyIiikMMeCIiojjEgCciIopDDHgiIqI4xIAnIiKKQwx4IiKiOMSAJyKKEaGQdoS/JooUA56IaIAEtESvbfJhXVUzVpQ68fHGBny2yaG+XquV1TX7wo8k6j0GPBFRP5NWeo0W7G+vrkXR86U49w/lOOH6Cpzw6xqcdn01Tr2xEuf9sQx/fKMc76ytRZXLq1r3RL3BgCci6keBYAiryl347Ytbcc0dzXjsD6lY8dRQVL1eCO8HY1G/sBClr47Syobhn3da8cs5Ttz+2g5sqfcgyJSnXmDAExH1Ewn3D9bV4+qHyvHMfcnYujAf2JoJOC2AzxB+kPax7DUCjRb41mZj28IC/Ocfdtz03A58qP2s9hREPcKAJyLqBzLe/n2FC/e8VoPPnshDaE0e4DGF7+1ESAc0m+H6NhsL/52Jxxc2Yl1VE7vrqUcY8ERE/aDS6cVf36jCRy+kIlCRvLOl3lPaY90bMvDmfCse+LCKk++oRxjwRER7mC8QwsdrG/HemwYE1+YA/nB3fG8EdXBvTMcLrwawZEMj/Oyrp24w4ImI9rAmbwAvL21A3ZrUvoV7qyYz6r/NxJtfO9VzEnWFAU9EtIfVNvvw9Q8+hErTwiV9FNIhWGnHF2vdaGphwFPXGPBERHuQ9KSvKXPDVW7p3bh7J0JuEyp36LGjntfGU9cY8EREe1BI+5+EcaDRvHOFmyjwOcwobdACPlpPSHGJAU9EtCdpGRwMajcBXbggcqGgTk3cI+oKA56IaA/S6XQozEmCOcujfRMujJA815gci3puos4w4ImI9iCJ4BSLATpLADBoTflIJfmhs/p3Pme4iKgjDHgioj1IGtkjs5Iwdar2gZvrCpf2nX6oA8cfaEN+mjlcQtQxBjwR0R6Wm2LCJcekwzy2Xkv8CMbOjUFYxzhw2oEpsJn48U1d4yuEiGgPMxv0OGScHQce5YVhZIP2yduHkNd+xjS+BiecEsT0kSkw6NlBT11jwBNRtySOGj1+tYc5Z2/3TWGWFUWzszDxpBog29W7lrxkeY4Tex3vwM2n5WFUhmVnOVEXGPBEtBtZnKXZG8R3ZU2476MduOrFDfjFkyX4xaNbcd0rmzHn7RK8vboO9c1+LrbSQ0atxX3M+Ez88Yos7H1GDQyjetCSl2A3BGEYXYcpZ1XiuvNTMG1oihrXJ+qOoaioaG7465hTVVWFkpISzJw5M1xCbQUCAXi9XthstnAJtSf1I5KSktQt7aqj+mn2BfDpJgduf307HnjZpXYwW/pqOlZ9mIq1n9ix4hMLvig247N1LnzrqoHeFEJBmhkWY3y2F9xuN8xmM4xGY7ik76RbvTA7CRPG6VFqrUZ1sAl+twEhWZ++NbTl1hgETEHocl1IOWwHjjjLhXuuyFMnCEkxVs/RrJ94VFxcjMLCQuTm5oZL+g8DfhBjwHePAd+19vXj8PjxzBeVmPOwA0ufz0TVJ0PQsj1Fu8Oq9iWXI+iwwF9tRd2GZKz9zohlO+rhtrgxOicJaVZj3F26Fe0Ak5AfkZmEaWOTMHySF8GRtTDku2BI80Cf2gJTXjOypzUge3otpp5eg8vOSMbNJxdg7wI7TDE47s6A79pABryuoaEhZjvYVq1ahUWLFmHOnDnhEmqrpaUFLpcLWVlZ4RJqz+l0qtuUFC2kaDdt68fVEsAjn1bgrkddqHt/BEJakMvmJt3RWX3IO6wKZ17UgltPHaq15uPrZKq2thZ2uz3qJ4nywRsMhrSTqgDWVTZjdWUTyh1e1f0+JsuKbLsJ+w23I9ViVCcFsXritKfqJ17MmzcPs2bNwlS5TrKfDVhfT4gDd0QxI6AFzScbHXjgOQ9q3xmJUIPWYu9BuAvZ/KRiSS6ef8aI55dXw+OLwmIuCUBqV4I702bEwaNTcfmMfNx2/EjcetxI/Gx6Lo6ZkKHdZ1Jj97Ea7hTbBiTgg8EgtmzZAofDwaAnigHlTi/ufKkKmz7I0pr1fZihrYV8w5e5ePx5Lz7Z3BAuJKKB1O8BL+PG69evxwMPPIDVq1eHS4looMiM+XdX1eOHT2xARWq4tPdCLjPWfWnBwm8caHD7w6VENFD6NeCbmprw2Wef4dFHH1Xh7vP5wvcQ0UBp9gaw8NsGNK/LiGy/cu1ng9vSUfyFH5XOnZP3iGjg9FvAS1f89u3b8dZbb2HKlCnIzs4O30NEA2lTrRvrVusQqLeGSyLQaMXm9Xq1/3mQw29EA6pfL5OTWZYTJ07E3nvvjWXLlqmgHzlyZKdbHsplcj/88AOmTZuG5uZmeDwe9Vg55IQh0Q/pAZHLnCwWS4f38wip14zcmkym3e7jsbN+Vlc04+2PDKhfnRpZC16EtPdmtgtHHBrCpHyLakF09O8OpkM+e+QSML1e3+H9iX6wfnY95OommV8m9SLH0qVLMXbs2Pi/TE7+eCGXdt1yyy2YPXs2Dj/88E4DXi6Tu/322zFp0iT1fXp6Ok488USMHz9efZ/oJNxl2CMjIyNcQu3Ja03IZTy0O6mf135oxF//lYmqxUMBWXAlQsb9t+MPt3lw/oGpMBsG//zv+vp6JCcnq2u9aXesn13J8PN7772HxsZG9b2s5XLrrbcOyGVyA3IdvFx729OA//DDD/G73/0uXAIYDIZOH59o5ExRAj4zMzNcQu3xOviuSf28u6YeN94bwrY3hmtnjVEI+AN24F93m3DJYTlxEfB1dXUqwHidd8dYP7uShqxcKdbaoP3DH/6A4447LrGug+8pCXPpXm09pBtIynjsPFrriAePvh5DUs2wZvi0T4PonOsb0j2YMDQJZmN8vFdFR+U8dh6sn10PySgZsmjNLGmUDpSYD3gi2rPyUszIyJW1z6NwaVuaG4XjgshOib8la4kGGwY8UYLLsZtwxqF22PeqjawVL4me68RRM0zIT2F3LdFAG5CAl+6LI444Avn5+eESIhooJoMOZ03PxJiDXdBlNIdL+8DqRfYUJ47ex47MZFO4kIgGyoAEvNVqVRPsxo0bp8YsiCIhbU5ZjU2uu47OKHLiGZqehMtPSUHGYeWAvSVc2gvGIJIn1+Gcs3WYOSad3fNEMYBd9DRoefxB1Db5sLHKjeINDixYWYfl25yocnnVtqe+AOO+pywmPc49IAe/vMACy8Hb1Vh6j0iSJ/lh2bsKx5zvxC0nFyCbrXeimMCAp0FHtjX9YlsjHvqkHGf9fRMOu6kE59xcjctuacQJN5fiiNs34JdPbMXzX1djc61Hte6pa5LTEsw3nDQEN1xtxNiTqmAocGrJ38Vy0saA9kMuZB6zDRde04z7LhqO4el92KiGiPaIfl3JrrdkJTtZJGDmzJnhEmpLNu6RxW5sNlu4JP6VN7bgoU/LceODNXj9ZQO2vpcH17KhcK/LRMvmdLh/yEbtygys/l6Hd36oxxpHA3KzjRiRaYPJwPPZ9uT1I1qvYbZqLfn9RtgxaUoIjXnVaDS44fL5VSsdJi3QzdqR6oEuuwnZ+9XhoLMa8Ivzk3DtMfkYFmf7wLdyu91qEReZO0S7Y/10rbi4GIWFhfG/kl1vyUI3ixYtwpw5c8Il1JYsdCMrkWVlZYVL4tu2eg/++FYpXnzWAMdX2pvFoZ3YdPbqlSap1vo0DmtE4awa3HBhKi7YPxc288BdkxqLOlsISPaH3+FowZclTixb7cbWsiAqa4PweELIydJj2BA9jt7figNGpGBkhkVN1ItXtbW1aiVELuTSMdZP1+bNm4dZs2ZxoRuizlQ0ejHv9TLMf9gMxyfDgIYuwl3IfW4T/BszseH1Avz1KZdasc3P/voeMeh1KrjPnJaNOWcV4P4r8/HUjfl47tZ8PHxNPv50fgHO3S8XY7OtcR3uRIMZA55inrQmH11ajlde0KP5q3ygpRddgbL5SZUdJW8NwcMLG7CuKoLLwBKQBH261YihaUkqzCfk2jBCC35OpCOKfQx4inkldR689lEzHF/lAd4+jPNpIR+oSsanryfj6aVVav9zIqJ4x4CnmCb7Nfz3u1psWZIBOCMY4wvq4d6Sio8+92FdNVvxRBT/GPAU03Y4PFj8hReO9SmR7VUuQ+8NFmxaYcXGmh5e401ENIgx4CmmyTXvjgYdQr4ovFT9BjRUGlHZ4EMgvJUjEVG8YsBTTHN4Amis12nhHJ2XaqjJhG0VATRxHJ6I4hwDnmJfNBvbhiCSrToYuQcCEcU5BjzFNItRD7NVS/hovVK1gLcm6dXlX0RE8YwBTzEtL8WMIcMCgMkfLomAPgRLWgBDMg0waycORETxjJ9yFNMybEZMLDTCUtCsWt8RSW7BXgf4MLUgmduZElHcY8BTTJMu+tkHZmHk4fWAOYJWvC4Ec34Tph8UxMScxNmch4gSFwOeYt7U/GScdnQSUvar2blFaV+kejDh2Hqcf2gmN5whooTAgN+D5FJrty+IumYfql0+1DT51PfUOxaTHpcclo3jf9oMw4TqnduW9kayF3nHluLqn9lxwPDUcCERUXxjwO8BHi3Evyt34bnllbj7nVLc9kI5iuaX4dbny3D/h+V4Z20tttZ71CYq1D0ZL5dNTm46LQ+HnOOAabIW8j1pyeu0+s1oRv6xZbj6YgvOOyAHSZxcR0QJwlBUVDQ3/HXMqaqqQklJCWbOnBkuiW2S1yV1bvzj41L84z9NeOpJHd5/PQlfL7JgxSdWLP8kCcWfhvDxCg++3O5ATdCN8blWWM2GPk36CgQC8Hq9sNnif0xZr9NhSJoZ+45Ngi6nCVv8Dnj8QYTcRrXOvCKVKIf2rc7mg3FcLcacWIain9tw+RFDkGrpw0Y1cU5eP4J7eXfO7XbDbDbDaOTrpyOsn64VFxejsLAQubm54ZL+w4CPEm8ghOINDtzxUjmef8iGLe/nwrs5HaixAw4r0GjRDiuC1cloLEnGppUWLF/vwTZzNQoyzChI04Ir/Fw9lUgBLyTkc+1mHDjehoOm65E00olSWzVMBU7oUltgznPDMs4B+36VGHdcHS67wIibz0zB4YV2ZNi1/wa0GwZ89xhgXWP9dG0gA17X0NAQs/3Eq1atwqJFizBnzpxwSWySCvxgXR2ufrAcJQvz4d+iBXtPllY1BWCaWonjLnBh7tn52HeYvVcLsLS0tMDlciErKytckjhkLXmH248NVR7sqG/BmnI3/AEgP82EYZlmTB1qQ1ayCaGWnTvHpaSkqFvaldPpVLesn87V1tbCbrfzJKgTrJ+uzZs3D7NmzcLUqVPDJf2HA5JRsGKHE39dUIXNbw+Bf3NGz9dN9xng+34I3nsmBXe/XYZtDZ6orsoazwxaaz7TZsKBI1Pwk2nZuOWEYbjt5GH4+WF5OHFKBkZmWGDnbHkiSmAM+AjVa63IB5eU4ZOXUhHYlAkEe9nRrp0M+Ffn4qMFNrz0Va3WCmXE94YsKS+dHtLzYdQOuZWufCKiRMeAj9DqiiYs+8gE7/qs3od7K60lX7cyHa8ucWJzLfcqJyKiyDHgI+APhvDVFhfWfZMEuE3h0r4J1lux+WsbPt3kCJcQERH1HQM+ArJwzfJVfvjLk4FAhFWpteId61OxpnLnpDAiIqJIMOAjIAvaVNYEtS8ia70rIR38TUbU1AfV9d1ERESRYMBHQC7V8nhDfR97by+gQ2ODdniisDUqERElNAZ8BKTyTAYt3GVJ1GjQh5Bs1w5e3kVERBFiwEcgOcmAoUO0KrT6wiWRMVgCyMzQMeCJiChiDPgIpCQZMXaEFsb2nct9RsQQROrIZhTmWMIFREREfceAj4DFqMeM8cko3L8JsEUY8lYfCg9swomTMsMFREREfceAj4AsmHbwqFQccwxgGupSY+h9orXerVNqcOpMCwqzuCkKERFFjgEfoRSLARcdkYlpp9fBkKeFfB8m1OvyGzHrLDfO3D8DRpm0R0REFCEGfBTILnDX/zQNI46pgi5v5+5cPaK13PXDHBh5QgVuOD0HU4bY+7QvPBFRW9KXKOt0bK3z4MutjXhzVS1e/KYKX2hfy/LazpYAgtz2Iu4x4KPAZjbglL0ycduVdow+oxSGUfVAkr/zLntjEEj2ImlyDfa/rBT3/DobMwpT1KYpRER9FdI+cmQdje9Km3DPe2X4yd824YJ5Vbhqjgu/ua0FF82rxuy/bsUFj63HqyurUd/s14KeSR+vDEVFRXPDX8ecqqoqlJSUYObMmeGS2GU26jEx34ap4wzwDKlDU5oDLSG/Wq9ehb0poJ0J+ICUFhgnVmPkKdqb75wgfn9OAQ4bk4Yk7ed7KxAIwOv1wmazhUuoPakfwb2qO8b66Z7b7YbZbIbRaAyXxCbJadly+k8LSzH3sXp88Lwd2xYORd23GWhcnwbXplTUrkpD9fep2LjWgMVrHVhV14ghWQYUpCWpnRj7YrDUz0ApLi5GYWEhcnNzwyX9R9fQ0BCzp2+rVq3CokWLMGfOnHBJ7JM3WYPbj6VbHHhvdT3Ky7Xva/VqhTpZxCanIIDhQ/U4ZkIGjtCC3Wo0qMl6fdHS0gKXy4WsrKxwCbXndO4cMklJSVG3tCvWT/dqa2tht9tj+iRI2hGrK124+40qvPaMGU0rtTCRDbBCnXy4SLFM7i10YL+zavGbc9Jx6l6ZfWpoDIb6GUjz5s3DrFmzMHXq1HBJ/2EXfZRJWGfYjDhpUhbuOnU0Hr58JB6+Jh+P3JSDh38zBA9fOhr3nD4GJ0zMhM3U93AnImrV4PbhL29UYv6/rGj6Mh9oNnce7kKadX493BvTsXR+NuY+UYdF6xoQ4MB8XGHA7yES3PYkAzJtJnXp2z4FdozLtiHdym4sIoqeZl8A931QhgUvmBBap7Xc/b1YCTOoQ6gsFesX5uLhD2qwoYa7WcYTBjwR0SD22WYHXnzTB9fXeWrb6V4L6OHbkYLiN6x4/dsaeAPczTJeMOCJiAaxTzc5ULo8dWe3fF/59XCsT8V7XzVjc60nXEiDHQOeiGiQqnB68e3qIJq3J0e2bbWM19ckY+0yG9ZVsZs+XjDgiYgGqc21bmxaYwA8pnBJBAJ6uOqNcLb4wwU02EUt4OVaSL+fLwwiov4iq9V5mrXWdySt91ZawDfXG1BeG4DXz3H4eBBxwDscDnz00UeYP38+Xn/9daxfvx7BYMcvjrq6Orz11lvqca3HsmXL1MkBERH1jsygd7u0cA9EIeA1Ie1EQS6V48Vy8SGigG9qasI777yDd999FxaLBVu3bsXTTz+NzZs3hx/xP6FQSJU/+eSTWL58OVavXq0O+Rm2/ImIek8uu03L0hpUsvx1FOi050m26WDkutlxIaKAr6ysVC1wWaXnZz/7Gc477zy1ZKGUtS6B2UpCfNu2bZg4cSJ+/etf/3iceuqpSE5ODj+KiIh6akSGBSPHBXYuhx0piw95Y1owItPc52VrKbb0ealaaZF/8cUXeO6553D99ddj9OjRquyll15SS8z+5je/2WUJ1ebmZjzyyCPq9swzz1SBn5aWhiFDhsBk6niCiDzPK6+8gosvvlh9L2sd5+XlITU1VX2f6GSpWulFyczMDJdQe7KUr5ClNGl3rJ/uydCiNEJicSnWJm8AN760A0/fmYPAtvSds+H7KqMZR15din9dmYOx2dZwYfdiuX4GgrynysvLf+yZfuKJJ/DTn/50QJaq7XPA+3w+vPnmm1iyZAluuukmFdRCyqTL/ne/+x2GDh2qykRjYyPuuOMOdSshLcFkMBhw1llnYcaMGerr9iTg7777bkyfPl19Lx9CsvHMqFGj1PeJTnpJpB4zMjLCJdSe1I9gL1HHWD/dq6+vV/UjvZOx6IONTbjhHh/K3hypnfX3caVMXQjWqTX4+a01KDoqB0mGnp8oxHr99DcZipZcbN3nYcWKFfjtb387uAJewuWNN97A559/jptvvvnHnXIk4GVcXgJ+2LBhqkzIB4m07rOzs7HPPvuon3/77bdVZUgPwIgRI8KP/J/BuNlMf+JmM93jZipdY/10L9Y3U6lt8mHOa6V46q92NP+gfRb0dka99nB9rhMzLqvEI/+XjylDeneyx81mujYoN5vR6XTqP6h0y7edNS/fS2tc7m9LJuGdccYZOP7441WYjxkzBkcffbQKfhnLJ6LEIlspN3sDav9yh3Y4WwLw+INqZzTqOdnv4pIjsnDQ2fUwjK5TrfEek8emuVFwfBmuOjsFk/PYkxNP+hzwMh4+fPhwNc7Q2s0nX0sXvHTXt9+jXC6nk64K6c4RcgKg1+vVbfuTASKKXy4tyDfVuLFgRR3+/FY5rnt2B656fBtueHY7HlxUicXrGrC13sOdzXpIPj6nDbPjptlZ2H92LayTa3s26U4fgj7fiZFnbcXNl9tx2pRs9VwUPyJqwUu3vLTiv/nmG3Ute0lJiepWnzx5shqTKS0tVdfFt3Ylv/zyy/jwww/VRLuGhgZ8+eWXaqJdQUFB+FmJKF5JYK+vbsbfFu3A5X8vw8U3OvGnOSY8fVcaXvhLFh7/YxpuuiWEn95Yh6sfKcPLK6uxpY7roveEyaDDrHEZuPeKPJz2f3WwHVwKFDg6Dnq5pC7HBcN+pZh2YRnuvSYLlxw0BClJfdiohmKaoaioaG74616TbndphctCN3JtuwS2TPg6+eSTVQt+8eLFarKBjD20zvT+7LPPVEteyisqKtSMerl0rqNWfFVVlTppkIl1tLtAIKDmMrTvLaH/ab1ck+ODHeuv+vEFQije3IBbnq3AC49ZsPH9LPjW5CBYZUeowYpQo0XdBitS4N6chg2rDPhojRNVJgemDrciwxaFpVj7SBovMoFMei1jmVzalp+ahH1H2TBmUgDpY11wpNajOasB+kw39EO0UB9Xg/T9ajHzdA8uu0SHXx6bjaO1EwOrqe9XTA+W+hkoxcXFKCws/HGeWn/q8yS7VvIft6ysTN1K2MsMeQlzGYuvqalR5dJCl0vhPB6PatVLmQS6XO4m93U0g15wkl3XOMmue5xE1rX+qB9puS9aX49bHq3FN69pJ/rbM9SyqN2y+mCfXIeTzvXg9xfmYGLuwJzIDsZJZC3+IOqa/dha50Glw48tVV54/SGMzjNhdG4ScuwmDEkxw2zoe7C34iS7rg3kJLuIA35PYsB3jQHfPQZ81/qjfn6oaMLP/7kDn8/PAXZo4d6bWd5mPyz7VuDSa7yYc9owFUr9bTAHmHy4B7UTLJnQKFMapCs/2qvUMeC7Nihn0RMRdUdmxz/yQQ2+ezW39+EuvEa0fJuHt94E3l5Vx4l3vSS1LV33SUa96obnErSJhQFPRHvMF1sb8eY7ke1XHmoxoXxZFhYsr0e5c9clsImocwx4Itoj5Lr2T39oxtaVWri7I5gkpzXaA9U2fLs0CZ9tcoQLiag7DHgi2iMa3D6sWu9HsM4a2RrpmpDXgPoNyWrSGBH1DAOeiPYIty+I8uog4InC5VNBHdy1ZlQ4feECIuoOA56I9giZue1q0gLeH4WPmZAO/mYjah1BtZwtEXWPAU9Ee4RM2FZLXERp4rbOEILZHFKXehFR9xjwRLRHpCQZMXq4lvDJUZj5LtuZZvhQkGGGgQumE/UIA56I9gh7kgGjh2kBb4tCwBuDyBjnwtR87nZG1FMMeCLaIyTgp09IQvqYJsAUCJf2kb0FeVNcmDEqNVxARN1hwBPRHiFd6YcUpuKw473Q5bjCpX1gCCJlehWO3t+K/NT+X6qWaLBiwBPRHjMq04pfnJCBCSfUQp/hDpf2gj4E3fAGnHByEP935FAutUrUCwx4og7IKmzflrnw6eYGvLW6Bos31GPpFgcquFRqr0geHz4mDVecm4TsI8uBtF6EvNZyx/B67PuzSvzipAwUsPVO1CsMeKIw2WLzu7Im3PfRDvzq6RJccXc1rvy9A1fe3IxfzGnEL+6sx/89XopHl5Zjc61bXedN3Uu3GnHRwbm48VdJmH5BBXRjqwFzoPPL53RavSZ7YZlajcMursGfLsnDEdpJgmyaQkQ9ZygqKpob/jrmVFVVoaSkBDNnzgyXUFuBQABerxc228Dskz0YSP2I7raybHD78fq3tbjh0Qq88aQdy99IR+kXGaj5IQXODamoX5+C6tUpWPd1EpZ968VX9TUIJnkxMS95UF+X3dP6iZTVbMC04ckYMwaoSa+BI7MWPh8QlDXqjVpLXY6kAHQ2H6xjHRh2YimuuMyAuT8dgn2HpkRl3/K+crvdMJvNMBqjsCJfHGL9dK24uBiFhYXIzc0Nl/Qf7gc/iHE/+O71ZL/z2iYf/vFhOR6f70dZcQ5Ql6ydPXURKFoY6XObMOrEchRdkIHZMzKQZhmcH279vV++bPe6vaEFn29pxLvfN2DNVh98bj28Hh2Ss3xItuoxo9CO82fkYGRmkpqJP9C433nXWD9d437wRAOk2RvAY59V4qF/61H23xFAtRZ0XYW78OsRLLdj86vDMPcfzZj/ebV6HuqedLOPyrRg9r65eOzCcfjgpolYeMsY/Pe2kfj45il49zeTMO/0EZicb4uJcCcazBjwlLCk66p4UwMeeM6N6s+zAW8vWuGyO5rDirIlWXj4xWYs2dTIMflekOF0mRGfajGoS98Ks6ywmvSqK17KOdpOFDkGPCWsikYvnvuoEduWZACuPnQvSsjXJmP94gw8vrgGdc3c6YyIYgcDnhLWuspmfLRY+6I0fWdY94X2c95SO775PoiVO5oQDLEVT0SxgQFPCanJG8C737hQ+YMdaIlsglyo2YTyLzKwbINLC/hwIRHRAGPAU0KS8fJt1V6EXFFYPEVrxbdUWbGmvBlswBNRrGDAU0LyB0LYUuVDyBmdS3sCTjPKGrTnU1P3iIgGHgOeElJQO7x+7f8HozNfO6Q9j087aSAiihUMeEpIRp0O+RlG6KKxV7lGb/UhPdkAXuBFRLGCAU8JSZaXnTjcAl26J1wSAS3TzbluTM63QjtvICKKCQx4SkgWkx4HjrPClN+0c3OTSMh+5ZMbcPiEFLUHOhFRLGDAU0KS1dL2Gm7DPgf5gBxX5zub9YAu14VDZ+hwaGEqW/BEFDMY8JSwZE30i05KRvZBNVqTvo+r0Fl9yNy/Buccnop0qylcSEQ08Bjwg1AgFFK7cvm0Q67nltnbcqv9H/WCxajHaftk4fSzArBOrQZMvdwwxhyAbWoNLr/AiBOmpg/qbWOJKP4w4AcRCfIyRwteX1GH+z4sw7UvbsOlz5Xh0qc24PY3tuG/39WipskHj08uAqOeyE8x49pjh2DWz1ywT9NCPsnffXe9jNnbW5B2cDlOv6wJVxyVjUwbW+9EFFsMRUVFc8Nfx5yqqiqUlJRg5syZ4ZLEVa0F98Jv6/HH1yrx7yd9+GihGSveScPGxdlYvcSGLz/X4/0VTny8rRa1nhZkpRq10DFCn+CDwl7vzsvgOturWuonx27CvmOssI9qwpZQHdxNegSkMS/r07fdOtaoFaa2wJjvwrDjKnDl5XrM/ckw5KcmDdp67q5+CHC73TCbzTAaB+ee/3sa66drxcXFKCwsRG5ubrik/zDgB4GVpU7c+24Z/vgPL1YvyIP721y1wUmgwYpQkxnBRgv81TY0b0zD1u8t+Hq9B+vd9cjL0WNUlgW6BA75ngSY1E+23Yzpo5MxbmIIWVMdaMlqRDC1GW5rM5DZDF1BI1InOTD62GqceoEHvz4jHZcckod06+A+iWLAd48B1jXWT9cGMuB1DQ0NMTtyu2rVKixatAhz5swJlyQW+Q/zbakLNz+/HR+/kAbvKu0F0pONUbSWpmFMHaYe58CffpmJEyZnJuzyK06nU92mpKSo255w+4JYVe5CqaMF2+u9aGoOIT1Fj4xkAwq01vreBXakWeLjw6wv9ZNoamtrYbfbeRLUCdZP1+bNm4dZs2Zh6tSp4ZL+wzH4GFbR2ILHF9fio+e0cP92SM93PfMbENiUiVXvZOCe12rUSQL1nNWkxwEjUnHGXjm46rACXHdMAa48pAA/nZaHwwvT4ybciSi+MeBjlDcQxKsravHsCwH41motd38v/1NJyG/JwFdvpuI/n9WhrrmPl4ElOINehySjnte3E9Ggw4CPUU0tQSz4zIXG5TmAp48tRu2kwLkmHQsWebCqokldWkdERImBAR+DZE/xFdtd+Ga59nWdLVzaR01JKFtjxcdrnGiR3dOIiCghMOBjUFBL+CUbnPCUpPW+a769oA7ujWn4crUHHgY8EVHCYMDHIOlIL6nxwF8vs1IjH/wNOS0orfUjwHwnIkoYDPgYJF30dU1+BJtNO9M+Un49XJ6g9lQcgyciShQM+BiVajFCnxSIRgNeBTuXSSciSiwM+Bgkl2SNyEyC0drLzU86oc90Y9KIJHW5FxERJQZ+4scgvRbw+41MRtLIRi3to9Ctnu7GqDyT1opnM56IKFH0e8CHQiG1PKasXyxf0+5kbfR9htuQN8ENXfLOtcL7LMmPgqnNOOOAdNjMhnAhERHFu34NeIfDgQULFuCee+7Bvffei7ffflsFPe1K2tlDUs34yVFWGCdVAcY+Tn/Xnkif68KxM/WYOMSqegaIiCgx9FvA+3w+LF68GEuWLMHhhx+O6dOnq41kZKcdtuR3J63tCw/JxtFneKAfUR8u7R19tgt7n1GDC2alIdvO/cqJiBJJvwW8y+VS4T5jxgwceeSR6th3332xbNky1bKnXUlre2yOFZedkIZ9Tm6AcYRWR71pyee4kH9cOa45147DxqZy/J2IosIfDKGi0YvVlU1YvsOJleVufFvWhLVVzah2+bgkdgzpt4Cvrq5GQ0MDxo0bp/YNtlqt2HvvvVFWVobKysrwo6gts0GPU6dmY+4V6TjyiiqYp2r1lNwSvrcTSX5gdC3GnV2K6y6z4IIDc9XzEBFFQjbAkhB/elklrnu8DOfcUY5jr63A2bc34Se31uK8P5Tj1hdL8Z9vKvFDRZM6EaCB1S/7wUsX/NKlS/HEE0/g5ptvxvjx41X56tWr8ec//xm/+c1vsN9++6mytmQ/eBmvl5a+kD2rDzvsMLV5fiLx+ILa2XIznlvWiA8/NaHihzQEK+wIOZPUFrI6UxA6Lfj1Q1ywjK/DYQf6cMHhNhwzPh3GBB94b2pqUrfJycnqlnbF+ulefX29qh+z2RwuSTxuXwjvrGvCc4t9WLnYBscm7fXSaP3fRliG4M7GRa4LGeOd2OfQFvz6ODsOH2VJuM+gLVu2qKFn6bUWy5cvx0033TQg+8H3e8AXFRWpVrxoDfhrr71Wjcm3JwH/4osv4rLLLlPfS8s/Pz8fdrtdfZ9IZJpCQ0sAJXU+LFnTjE9/aMLmyhbUNPqRmmzEiGwTDhhvxdH7JGNCdhJybEZOqtO0vskS8TXTE6yf7tXV1amAT0qSpaMTz46GFvz74wq8+CpQtnio9kGkBXugk15Buaw3KQBDnhMjZtThvJ8Fce1RBWrhrkTR2NioeqX9fu2ER/P000/j7LPPju+A/+6773D//ffjhhtuwOTJk1W5BLjMpr/++uux1157qbK25H6ZiDdnzpxwCcl/LNkVTlr1LrdH+4BuQmZmxs59yw162Mx6LdiZ7K3kkkwhvT+0O9ZP92pra9UJUCIGfLM3gL+8vwP/fjCE2k/ytTPCHtaBBH2aB0NPLMVfrkvF7P1yYErQ5TTnzZuHWbNmDUjA98vgrFzXXVBQoLq4ampqVFkwGFTj8hkZGcjOzlZl1D15i1iMeqRbjchJNmmHEbl2M7JsJtiTDAx3IooKGXNf+EMdnn0hgNpPh/Q83EVI+xxqtKB0SRYefL0RK3e4OPluAPTb7CubzabG3j/++GOUlpaqcQr5euLEiQx4IqIYU+powRPvOlDyURbgtIRLeyGohXxpOla8k4rHi6vh8kZn6W3quX4LeJk1f+qpp6rW/N13342///3vsFgsOOWUU2Ay8RptIqJYEQiF8H1pMz5bprW6KyMYvtFC3r05Fcu+82J7Qwv3s+xn/Rbwer0eY8aMwXXXXafG1O+44w5cffXVatIcERHFDldLAG995UTT+vTOJ9T1UMiVhC1fJ+ODVQ4E2U3fr/ot4IW03mWySlZWljpkYo+UERFR7JAc3lHtQ6jeGi6JQEgHz3Y71pQ3swXfz/o14ImIKPb5ZFGb0haE5JK4SGmpHvQY0egOqMt9qf8w4ImIaBfSgvf5JZmj08MaaDaiyunXsp4J358Y8EREtAuzQYfCIWboUj3hkgho5wimTA8Kc5J4GW8/Y8ATEdEuJIhz0w3Q2b3hkkiEYMr2YPwQq1rHg/oPA56IiHZhNelx9N52GIY2hksioA8heWwjjp6YqlbcpP7DgCciol2YjXocMs6OsdM8QLo7XNoHWp7r8504/AAjxuVGYcIe9QoDnoiIdiHt7DHZVpxzogX2faq1xN+5cUqv2bwYelQVzjkiBTaTIVxI/YUBT0RxSdY+lwVbfAHO3O4L2dvikkNzccK5zTCNrd+5JWxvWHyw7V+Oa89LxilTsxJ2s5mBxIAnorjg1wLdqQX6B+vqMfedLfjVCxvxi6c347pXNuO2hSX4z/JKbKv3cNOTXhidacFvjsvH7F+4kXxguQrtbslOcvYW2GeU4ZxLvDjnoEwkm9l6HwiGoqKiueGvY05VVRVKSkowc+bMcAm1FQgE4PV61UY+1DGpH5Goe3l3Jx7qJxgKodzpxWNLKnHXG2V46pUWvP9cCr54IxWrFqVgRbEFX35sxiffN+ODjbXY4GrEmBwLMmw92wPD7XarnTCNxsTZ07yt/NQk7DsuCa70BpT4GtDiMiDUotVF2wa5QQt1aeHbfLCOa0D+CaX4xcUmFJ04FMPT+7BRTRwpLi5GYWEhcnNzwyX9hwE/iDHgu8eA79pgrx/pfv96uxNzXy3Dk4/rsPbloWhYmQV/hV1tV4qmJAQdFvhrrHBtTkHpN6lYub0JDYZmDMs1Istu6nZmd6IHvNRPpnYyJJPu9tpLh+b8GoRynTCkeaBPbQFSPbCNaELapEYMO6IG517qx9yf5eEn07KQYzeHnyVxDWTA6xoaGmK2v2rVqlVYtGiR2pyGdtfS0gKXy6XW9aeOOZ1OdSv7HtDuBnv9fLPDiV89WIrlb2QgsD5bS/wedAUn+WEc6cDeP6nG3ZflYdb4jPAdHautrVV7aPAkEWqp2Qa3H2srm7G6sgnlDi9qG5uQk2pFQboVexdoJwEFyTBqJwVc02anefPmYdasWZg6dWq4pP9wDJ6IBiXZfvS+N6ux4vUsBNbm9CzcRYsR/k0ZWLkgC/94uwoldVFYrS1BSGhn2Iw4eHQqLp+Rj9uOH4nbjs7DDUcW4JKDhmC/4XY1mY7hHhsY8EQ06LT4g3jt6zoseMkA34bM3m9pqj0+WJKJj16z4anPqtRse6J4w4AnokFHZsM/874Dru+zAX8fZ2h7DXCtysLrH3qwuc7NbVAo7jDgiWhQCYRCeH91AzYstwL1EU4wbbRg+zozvtjsgtffy+u8iWIcA56IBhWZ6PXl5iZ4NqVFvp1pQA/nxhQsW+NW3f5E8YQBT0SDigR8rcuPYHN0LsEKaa340mqfWiiHKJ4w4IloUAlp/6tv8iPgjs7qaCG3CVWOAAJswFOcYcAT0aCTZNJDJ6unRYPZj4xkAwz8NKQ4w5c0EQ0qOu1/wzLMMKZ6d10utY90di8Ksrpf0Y5osGHAE9GgIjm874hkJI1q1NI5wla89ly6bBcmjTDDzCY8xRm+ooloUNFrCX/0pDRkjWvq+z7lraxeZE1swtFTU2A18eOQ4gtf0UQ0qEhH+uisJJx6VBIMY+u0T7E+tuJl97ORdTj9GDPGZlvDhUTxgwFPNAAkkuSqrChNE0s4KUlG/GpWLg47sxEocIRLe0EXgi67CdNOaMT5R2Qg05aYO8VRfGPAE/UT2drU4fGj0unF6vJmFK9vwDfbnKhyeVHX7ONCK70gm5mMz7PiurMzMOWkWuhyXSq0e0Ra/NrjRx9XjWtnp+GQUWmcYEdxiQFP1A/KGlvwyopq/N/T23HU3A04+qatOLuoBsffXIrDb9+A8/5VgoeLK/FDRRM3Pukh2ZL06HEZuOPKVEy/tBSGwnrAJjPrOwl6yXCzH8bCOux90Q787pc2nLNfttr9jCgeGYqKiuaGv445VVVVKCkpwcyZM8Ml1FYgEIDX64XNFuF63HFM6kcM1F7e0mpfvsOJu16twt0PerFiQQaqi/PRtDIX7nWZcP+QjdoVGdj8fRI+WtmMj7fUITkzgIla69TUD7O6B7p+IpVk1GNCng2jhunhzatHk6UJDT6flv7aSZJJO2Sc3aZ9n+6BYWQDCg5swE8ubsFtP8vFSVMyYTV1v1iO2+2G2WyG0chu/I6wfrpWXFyMwsJC5Obmhkv6j66hoSFmhwFXrVqFRYsWYc6cOeESaqulpQUulwtZWVnhEmrP6XSq25SUFHXbn5q8AbzxfQ3ufboJq97JgHdzetdrp0vLM8eFUTPr8ZOzgrj2uCEYkWGJxqXenRrI+okmtXxtsw9Ltzjw8XdN2Lo9hMraIByNQdisOgzJ1WOvyXocPNaOg0amIjvZFP7J7tXW1sJutw/ak6A9jfXTtXnz5mHWrFmYOnVquKT/sIueaA8IBEP4eL0DRQ/W45sXcuDd1E24i5B2f7UdW94egkcfNOAvb5exu76HZExeQvvkSVmYc8ZQ3H9lPp66MR8vzs3H/Fvy8e9fFaDohGE4eXJWr8KdaDBjwBPtAasrm/D3V+qx482hQI19Z3j3hDyuyQzXV3l4+RVg/pdV8HKR9B6TyXLpViOGpiWpS98m5yVjXI4Nw7Tv7eborF1PNFgw4ImiTHYle+iTCix5Nwmh3oR7W24Taj7Pxvz3nFhX1RwuJCLqOQY8UZRtrHbjyy+Blh9y+r5fuZwU1CZjzZcWfL3dya1MiajXGPBEUfblNie2f29FyBPhWK/fgMbNyShe4UFNky9cSETUMwx4oihbXdGEhq1WINDH1nsrrdEeaExCRSW4CA4R9RoDnijK6pv9aHEa+jb23p4rCZu2BuDkbHoi6iUGPFEUSUu7xa0Fe1/H3jsRkgu9iYh6gQFPFEWyfGp2mgHmFH/nS6b2RpIPedn6Hq24RkTUFgOeKIrkOuwRmWbY8jzaN1EIeJsPQ4foYDPzrUpEvcNPDaIo239EKrImu3auhx4JYxC2kS4ctLcJGVauvkZEvcOAJ4qyvQqSse8+Wj7nNUfWTW9vwcSDmnH4+FRYTXyrElHv8FODKMqSzQb8clYuhh5erYX0zt3aes2gtd5HN+Kow4zYK98eLiQi6jkGPO0iEAqpXdBkYRU53D5ef91beh0wozAFV19sQc4RFYCll4vU6EPQjarDzPMbcMmhObAY+TYlot7jJwcpcp21bLX54Kdl+NNbZbj1+XLtKMO975Xhma8r8MXWRm560gvSir94Ri4uuxTIPrJcdbf3aN/XJD90E6pw8s8b8adzh2JyHlvvRNQ3hqKiornhr/ssGAyqvcmrqqqg1+thMpmgk/0b25Fref1+v3p86yHkZzoiz1dSUoKZM2eGS6itQCAAr9cLm80WLuk9aa0Xb3Dgb+9U4MFnW/DMY0Z88k4Sln9kxfLiJHy0WIf3Pvbjiy1OVMEFu1WPIalJanvOwUDqRwzEXtUWkx6TC6woGOfF965auAJaS95jVEvQKlKHcsjL3xiEfmQDkmeU4aeXeHHHT/MwdYhd9QbsSQNZP4OF2+2G2WyG0aj9t6PdsH66VlxcjMLCQuTm5oZL+o+uoaEhomt5JGS+/vprvPPOO6iurlYb/5988sk49NBDYTDseu3uxo0b8c9//lMFe+sJwKRJk3DuueciPT1dfd/WqlWrsGjRIsyZMydcQm3JSZXL5UJWVla4pHeqnF48uawKD7zQhLKPc+GvTAaazeF725Au41QPbKOcGHdUA66enYLzpucNiolfTqdT3aakpKjbgSAnUUs2OvH2Nw4s+daDzWuNaCnT6tpngM4UhDHVC+tIJyZMBC45KhMnT8lETrK5X06iYqF+Yl1tba36XONJUMdYP12bN28eZs2ahalTp4ZL+k/ELfgtW7bg6aefxt57742f/vSnKnQWL16M8ePHIyMj48cgl1CXwP7qq69w3HHHqT9WHiNHfn5+h2d/bMF3LZIWfHWTD/e8XY77/xlC5aICBCvtWuB0cgYuS656TPDVWFG5w4CVdfXIyvdjUr5NLewSy2KhhWo26DE6OwlHTEzB8fsnY8b+Bkw6oAX7H+HFUceEMPvkJPzm9Cz8fGYuDhiRgjSLsd96SNiC7x5bqF1j/XRtIFvwETXBpMt93bp1KsQPO+wwjBo1CieeeKL6j/3999+r7vhWPp9PnQyMHTtWtfCPOeYYdey7776wWCzhR1F/aNZalDLW/tCjITR8NBxwWHu2brpfj9C2DGx/cyj+9LQDn5c4EeQSqj1i0N4j9iQDxufY8JN9snHLCcPw+9NGoOjEobjo4BzsPzwFeXYzkjihjoiiJKJPE2mt79ixQ3URt3bxZWZmIjs7G+vXr/+xdSAk7EtLS1FXV4cnnngC9913H9588000NjaGH9ExaaXKyYEcreP3cmLBY+chOirv6vh0swNPveSF86s8rYJ7/xII1dmwZVEO/vpqNUobWjr8N3h0fugQUmPrhvCx879Ax4/lMfCH+q/TQTmPnQfrZ9dDMqo1s+SQsoHSqzH49r+ojP8++uij6usrrrjix5D/29/+BofDgRtvvFGNzQjt31Fj6dLaP+CAA+DxeLB8+XJMmzYNF110EaxWrRXZjnTp//GPf8To0aPV96mpqTj++OMxefJk9X2ikxOopqYmNRTSU/5gCL9/vwZP3JkP/8bMcGkfJPmRe2Qp7izy44zJsTt+K69R0fo6pF2xfrpXX1+P5ORk1TNJu2P97EoatzInTTJPrFmzBnfeeeeAjMH3OOAl3CsqKrB9+3b1tUygky75Z555RoX2z3/+8y4DXsLou+++U617GXOXlrmMTbz66qu47rrrMGXKFPW4tiTg3333XVx77bXhEvCF1Ib0oEjAS69JT31X7sKv/laDL54o2Nk131e6EMxj6/GrO+vxh9NHxOyEO04i6xrrp3vS6yifO5yn0DHWz66k1d7c3PzjVWL33HMPTj311AEJ+B5/KssvLYH70ksv4cUXX8Rbb72lusylVS3h3dq6l1splw+M9pe/SUu8oKBAvRBkYpiMx8uJQmsroiNyyZ2cFLQe0tKXn+Gx85A67qi8s2NdtQdrvjN2PFtellU19PBa95AO3moLvv4uhG0Ob4f/Fg8e8XD09j2WaAfrZ9dD5pS1DlXLEcllzJHqccBL0B588MG44YYbVMv8qquuQk5ODoYPH64uk2htCcjXckY3YcIE1dKWsxg5Kisr1Wx7mZQnpKy1C2MgKyDRyMp07gYt4P1RaHF7TKjYrB2N/5trQUREsaHHn/LSDS/d7dK9LodM+ZezFbnMTe577733sHnzZnXdunQdT5w4UbXsP/jgA9UVL4+V6+QXLFiADRs2qN6AhQsXYty4cT+OsdOeJddjbyn3w+fQWu9aC3w3UtabSXdBHTxNOu2kIcJd04iIKOoibsaNHDkSZ5xxhgr3Bx98EKtXr8Y555yjxuelq768vBw1NTWqK18m00l3zkMPPYT58+er7vrzzz9fjd/Qnmcy6JFs1UI80m1MWxlCsKVoh3nXBY2IiGjgRbySnZBxd5k0J7fSmpcQl0NIV3zrpDwhj2udfCCPlXK57Yi08rmSXef6spLd/OUVuPIaP5q/GKpa4BGxt2Da+eV45HeZOGBEargwtnASWddYP93jSm1dY/10bSBXsovCQOzOoJZVjGScXm5bw120TsBoJV/L41of21m4054xKtOCkVO8gC3ycXOd1YdR4wMYkcGFioiIYk1UAp4Gj4m5ydhrWlBrsrWES/rIEETmBBeO3s+KbLspXEhERLGCAZ9gspJNOGbfZGTtU68Wq+mzNA/GHOTCMZPS1TKsREQUWxjwCUai+KxpOTjtzCCSJtRpBX2YgmHxIfvwClxymg3jcyJYLIeIiPYYBnwCyrAaccOpuZh1UQOMU6oAUy9m1Vt9MO9fhovP1+PiGXkwxPhuckQ0OAS1toarJYByhxdfbG3E26vr1O3qiiY4W/zc2KoPGPAJSHrUJ+ba8Ptz8nHK5Y2wHLwDSHN3voqdtPK1kwB9VjPyjivFr64J4OpjhvDyOCKKmOyPUd7oxacbHfi/+Vtx0rwtuHBuDX55hxMXzavG7D+W4rwHNuPhTyuwpc6DgJwJUI9EvB/8nsT94LsWyX7wei3l89OSMHNyCowFTtTa69Ci96PFq6W/2a+ucYdFu7V5YcxrRu7Btdj79Fpcf5Ed1xxdgJxkszpRiHVSP4KX8HSM9dM97nfetUjqR7au/mBtPX712DY88qIHy1/NROniPNR9n47GtWmoXZWG6hXp2Pi1DUvXNGNFXT2s2sfdsMydWysPhv7DgdwPPirXwe8pvA6+a325Dr4jDrcfqyqa8PE6B77d6EV9jR4VO/SwWENIzwpi7FgdjpqSgsPHpCHHboJxEHXL8zrvrrF+usfrvLvW1/qpa/bhqaVV+Pd8D0o+zEaoUnsNBrTPlo5W2RSGIHSZzcg8tBJX/9yIq48sQHZy7F/BM+ivg6fBLc1qxKGj01B0/HA8dNlIPHxNPh69PQOPFGXjkf8rwL2zR2L2vjnIT9XO0jnmTkQR8gVC+HS9E396sBmbXxuKUGnazv0xOgt3EdAjVG1H7UcF+PcDwCOfVMIb6OHmWAmKAU8/ksvdMm0mFGZZMWNkGvYdmoLRmVaOtRNR1Mhcuc9KGnDni5WoWZYLOHu5UJbDitolQ/DIMz688W2dmpxHHWPAExFRv2nxB/H0Z9X47s0soKpvQ0Mhpxlbl2Tg2fec2N7gCZdSewx4IiLqN9+Vu/D58iB8mzN6t3tlW9KVX23Hyi8NWFPZFC6k9hjwRETUbxata0Dp51q4t0R4VYLXgIqNSVhZ4oHHz7H4jjDgiYioX8j4+/b6FrjKLZHvZqm14n21VqxY41Mz8ml3DHgiIuoXjS1+1NVq2eyNUvR4jKisCcLjYwu+Iwx4IiLqF3J5nK9Fa7lH2npvQ2bRcyJ9xxjwRETUL9IsRqRlaXFsjFKLW3seu1XH9Tk6wYAnIqJ+YTLokJ9hhDmvufO9L3rD4sPQPAOsJkZZR1grRETUb2TJ67y9XJG34vUhWPKbccg+5kGxZO1AYMATEVG/OXBkKibuFYAhS2vFR9KznuLBXoe0YJ/hyWrzLNodA56IiPpNmsWAy2dlIn1GFZDcx1XoTAGkT6/GibMMmJjT+900EwUDnoioB2Smtmxu0uQNwNUSgFM7ZIEVroXeOwa9DsdNysAlPzPCtp8W8r0di9fC3bJXFU4914tfHpHPvTK6wIAnIupCQAvwCqcXX29rxH++qMEfFpThdy/uwI3P7cCDiyqxeF0DNtQ0o9HjD/8EdSfDZsTVs4bgZ5d5YT+kFEh3A7rwmZJeu+2ox13KrD5Yp1XixIua8NuThmBIqnnnfdQhQ1FR0dzw1zGnqqoKJSUlmDlzZriE2goEAvB6vbDZ2EXVGakfwb28O8b66ZpDC+0F31XjX2824q/PNOPFl0P47F0LvvrIguXFSfjwMz/eXObEZyWNqAu4MTwzSYVXInG73TCbzTAae/d3p1uN2Gu4FeaCJpSb6uFwBxDyaq1xWZ9e1ppvu3WsOQDkNyL7iApceFkA884eivE5NgyGoffi4mIUFhYiNzc3XNJ/GPCDGAO+ewywrrF+OlfmaME/Fpfjb0+34KtXcuD6egiCWzMQqklGqM6GUIMVwYoUuEvSsH11Ej7/oQXrnQ5k54UwPN2iuqITQV8DXmTYTDh4bAr2nWJAwVQ3aq0NaLA5oM/wQJ/bBH1BI4yTqpF7YB1Om+3Dby+x45JD8lCQmjQowl0MZMDrGhoaYnYEadWqVVi0aBHmzJkTLqG2Wlpa4HK5kJWVFS6h9pxOp7pNSenbtpTxjvXTsYpGL25/dQdeetqMxuU5QJN51xZlR0wBGIY7sPdZ1bjx3HSctXcOzIb4HwWtra2F3W6P6CRRQqipJYC1lc0orfdhS5UXTZ4grGYdJgxLQkGGGfkpZuRpx2Azb948zJo1C1OnTg2X9B+OwRMRtSGT6B76pAIvP2dA47IhgEsLru7CXfgMCJRk4NsX8nDv8w6sq3CrzVWoe1K79iQDpo9IwSl7ZeCXR+XiuhOG4FdH5+H4SRmYVmAflOE+0BjwRERtfLCuHk8/74fjswLA28tuZ+1EIFiahlULM3HPm1Wo5S5nvSJBL0MbSUa9Wp3Ooh2JMtSxJzDgiYjCZLb8fz6px/YlmUBLH1dHC+rQsiUViz/Q4fOSxnAhUf9jwBMRha2vbsaqr0wI1Np2Dgz3VYsRtevs+GKLk9fJ04BhwBMRhW3QAn7D92agOcK1zQ1BuCstWPF9QM3GJxoIDHgiIo2sUlffGITfrX0s9mRSXVdk7N5jQkWpAVWunZciEvU3BjwRkcbjC6KqNqi616NCO0locevUcrZEA4EBT0SkkWvWU+3aR6IpEC6JkC4Ek1k7DJwFTgODAU9EpNHrdUi26mBI0lrcreuiR0I7UUjP0Q5rlHoEiHqJAU9EpDFrLe3ReWZkjW8CLBFevy6N9hQPcob7kZPMBVpoYDDgiYjCphWkYNr+Wgs+OcKJccYAMic7cdgEO1vwNGAY8EREYcPTk3DMdBvse9UCSRFs/5rZjLEHNeGkyZnhAqL+x4AnIgqTZVHP3T8HR5zghXF0fd/G4rXWf94Rlbj82AyMzLSEC4n6HwOeKA64WgJqFbblO5xYvKFeHUu3OLC9wQNfgEup9UZBmhlFZ+Vi2ul10A91aJ+Svai/FA9sh2/Dleebcd7+uTByHXUaQAx4okFKYkeC/bPNDtz0egmu+Hs5rvxzLa6c04hfyHFnPf7v8VL8/eMd+Hq7k9dj95Bep8NBo1Iw98JsTL+wEvq9ywCbt/PWvJQbgtBnN2HoCWX47a9NuOaYfLU7GtFAMhQVFc0Nfx1zqqqqUFJSgpkzZ4ZLqK1AIACv1wubzRYuofakfkQke1XHokAwhA3VbvzlrXL85ckmfPxMJko+zkT5ilTUrU5F/boUVK9OwYZvLPjqm6Bq0Zf5nZiQb0GqxagmeYt4rZ9ISVf96CwrZkyywJjfgIrkGngNfvjdWmhL5Rm0UJfr5c0B6Ec4kH5kKQ441Ymii1Nx6SFDkJFAE+vcbjfMZjOMRk4m7EhxcTEKCwuRm5sbLuk/uoaGhl70P/WvVatWYdGiRZgzZ064hNpqaWmBy+VCVlZWuITaczqd6jYlJUXdxgN5w368sR53vVSNpa+movmHbC2pteDpbHlVrXWJNDfs+9TgvAtC+O1puSjUwsugtVTjsX6iSep6R0UNypv1eGe1C++sbIS3yYCmGhOMlgCsmX7kaNV/5vRMnDQlE9nJJrXVaSKpra2F3W7nSWIn5s2bh1mzZmHq1Knhkv7DLnqiQWbFDifueq4OxU9mo3ll3s6lVbtaOz2gvc3rkuFaMgzPPmDB3NdKUenk+ug9IbVqM+mw99Bk3HbScLz/20l4q2gM/jMnD6/eNhwf3DwBb1w1GZfNGIKhaUkJF+4U2/hqJBpEttR58OcFFfjk+TT4NmWovcd7zGeAe1U2/jvfgic/qVHj99Qzqlder0OqxaAm4U0fnoKJeTZk2IxqgRy5jyjWDGjAyxhyKBSzIwREMSWovVe+3OLE4oVJ8JZo4d6XHc+01n7Td9l44iUPlm9zae+/cDkRxZ0BC3iPx4Nvv/0WDQ0N4RIi6kql04e3PmtG3aq0nWPufRRyWlD+TRre/b4BASY8UdwakICXWZcLFy7EQw89hMrKynApEXWl0uVF8Zc+hKqTwyV9FNShpSwZX6z1oMEdwWptRBTT+jXgpTu+tLQUzzzzDN566y00Njayi56oB4La26Ta4UN5mS4q+5UHm03YscmAzTWecAkRxZt+vQ4+GAxi+fLlWLt2rbpsQK5xP/jgg5GTkxN+xK7kOvgffvgB06ZNQ3Nzs+rW1+l06pATg0Q/fD6fuo7ZYrF0eD+PkHrNyK3JZNrtvsF0tPgCeP+7Rry30IBgeWr4HRIBQwi24U04aD8fxmVbBn397MlDPnvkGm+9Xt/h/Yl+sH52PeTyZYfDoepFjqVLl2Ls2LHxfx28/PHSPS/BVF9fj7vuugvXXXcdJk2aFH7EruQ6+Ntvv/3H+9PT03HiiSdi/Pjx6vtEJ+He1NSEjIyMcAm1J+sECLlOdzCT5WZfWO5E0bwk+L8aHi6NgDGI3FnbUXRNA06flDLo62dPks+q5ORktZgL7Y71s6vVq1fjvffeUz3UQhqyt95664BcB7/HAl5a637//8b3pIUgLW8hQb9jxw7ceeed3Qb8hx9+iN/97nfhEq3hYTD8+DyJTs4UJeAzM7ljVWfiZSEXCfiXvq7BZTdoJ8hLR4ZLI5Dkx5hztuPv1xtxxJg0LnTThbq6OhVgXMilY6yfXUm+Sf7JrfjDH/6A4447Ln4WupE/TM5i7r//ftx999245557sG3bth//4N4EtDxWTg5aD+kGkjIeO4/WOuIR34fJoMfQLDP0me7ItjFtpQ/BlunDkFRzh/8ej/8doqNyHjsP1s+uh2SUDFm0ZpY0SgfKHptkJ11+o0aNUmMP48aNg9VqVX88EfWevHWGZyRh2l7aWzZVC/lIaM9lGu7AvnvruJ0pURzbIwEvQT5ixAicdtppOPPMM3H66acjOzs7fC8R9cWI9CSccYQN5uEu1QLvM2MAtnGNOG2/DCQZ+vVCGiLqR3vs3S3dFDLpovWQ74mo78xGPY6ZkoqpRzmBXO3obPvSbuhG1uGoYwM4ekK66hkgovg0YKkrM+LPPfdc5Ofnh0soXkkMyfamcshkMTn88n0opO6jntunIAW/PCMVeTMrgFSP6m7vMe2xOu3EYPrpDtx8eh7SEmhLU6JENGABL7N2jzrqKBX0FJ9kcZZmbwCbqt2Y/3k1/vJeKS5/eiMufWoDbl2wFY8sqcA3253c9KQXTAYdzp6ejasvsmLoCWXQ57h61pI3BmEY0YDRZ5Ti/2anqM1SuD8KUXzr14VueksWupFrCGfOnBkuobZksx65Ft5ms4VLYofXH8TKMheeXlqN3z9bi+ef0+HTd834dmE6fihOxlefG7BoRTPeWFWNzfVupCTrkJtiUrPFo0nqR8TTJTxWkx77jbBj8iQdNgdrUdcYhN+n3SE7y8nWsK0kwM1+IKMZ5gm1OOTCGvzhwjycPDXrx21N47F+ok3W7pBhRpkZTbtj/XStuLgYhYWFA7LQDQN+EIvVgHf7gpj/dSVuebQGrz9nQvmifLSsz4S3PBnBRguCDgv81TZ4t6ShcWMKVq4EPt5Rg9QcPwrSzUhJit4HRbwGmIzHF+ZYsN8UE2xjHUCBA16bG82W5p1d91rL3jCsEQX7O3D4efU4e3YIRScXYMaoVPWzrRjw3WOAdY3107WBDPh+Xcmut2Shm0WLFmHOnDnhEmpLFrqRldqysrLCJQOvWQv3Rz8rx70PeLGjOAehqh6skCZjw1og5R9ci6uuAq46fCgyojQ+HC8L3XRFTqg21jRjU60b2+u8qKoNwpKkQ26mHkPTkrB3gR35KeYO9yxPhPqJVG1trbrslydBHWP9dG3evHlqafa4WeiGEpNMnPtkYwP+9ZgP29/L71m4C+0UUx5b/lEeHnnGh5dXVKkufuoZ6bLfK9+OM6bm4KrDClRL/YbjCnDFjAKcNCkLw7SQ7yjciSi+MeApajZrLci7XqlCyafpWtOw9wuohBot2L4oF/980YnvyprUJD3qHQnyZLMBljbd8ESUmPgpQFERDIXwww43vlyUhMD2tJ3XxvVBqMaOdZ+m4O0VjfD4OLueiKivGPAUFc6WAJ77pB7ezRlaSkfQHezXI7A1HYtWutR4PhER9Q0DnqKi0RPAl2s9CFVGvu2ozLRfv1aPDZVudtMTEfURA54iJpsEri1vhqvcorXAo7BzUlAHb6MR1S7ZNY0JT0TUFwx4ipgsOFujhXGwyRQuiZCW6d76JJRUt6iTByIi6j0GPEVFisUAfVL0JsXptOeyW2Tv/3ABERH1CgOeIqbT/jcsIwnGNK/2TRSa3FqoG1O92nOa1XMTEVHvMeApYtLKzk01ImOIH7qUlnBpBMx+ZOcHMCIzSYU9ERH1HgOeoiLVYsRZh6TCMLIhXNJ3suvZ6TOtKuCZ70REfcOAp6hINhlw+vR0FOzbCKR5wqV9YPEhfbIDx++bAqv2nERE1DcMeIoK6aafnJ+MK89MQeo+NTu3Ke0tUwDWqTU45xwdpg1P5n7lREQRYMBT1KQkGXDxEVk49bwWmCZpIW/vxXi8Maj9TDXOvsiLohOHItMWpUvuiIgSFAOeokq2J73upFxcdp0bWUfvADKatVdZFzPr5b70ZqQeUobZ1zpw7RmZGJFhYeudiChCDHiKuunDU/CHs4eh6GoL9r+wAsb9d0A3pBGweQFDUB06mw/6PBdM00sx/dIy3HG7Hn85a5T6WWY7EVHkGPC0R2Qlm/CrmUPw6I25uP/PZvzkpmpMvWoj8i5ejSEXr8HkX23AideX4+4/GvD8LQX45RF5qvVPRETRwYCnPUJa4bIv+T7D7Lj8iBw8/suRWHzHOCy7e6x2jMHiuWPxzNWjcOWReRiXY4NNeywREUUPA572KAl6s0GPdKsROXYTRmdZMEo7cu1mNZHOauJLkIhoT+CnKxERURxiwBMREcUhBjwREVEcYsATERHFIQY8ERFRHGLAExERxSEGPBERURxiwBMREcUhBjwREVEcYsATERHFIQY8ERFRHGLAExERxSEGPBERURxiwBMREcUhBjwREVEcYsATERHFIQY8ERFRHGLAExERxSEGPBERURxiwBMREcUhBjwREVEcYsATERHFoagGfCgUgtfrRTAYDJfQnuT3++FyucLfUUdaWlrg8XjC31F7rJ/uNTU1qfcadYz1E7uiFvAS7qWlpSguLu40dOrq6vDWW2/h9ddf//FYtmwZ3G53+BHUG+Xl5fj000/D31FHVq1ahdWrV4e/o/ZYP92Tz7TKysrwd9Qe6yd2RSXgpcUu4f7UU0/h7bffVmd07ckJwObNm/Hkk09i+fLl6kNFjq1bt/Lsr4/kRErqlDpXVVXFD58usH66V1JSgsbGxvB31B7rJ3ZFHPAS7l9++SUeeOABrFmzptPueQnxbdu2YeLEifj1r3/943HqqaciOTk5/CgiIiKKBl1DQ0Mo/HWf+Hw+vPLKK9Dr9UhNTcUHH3yAG2+8Efn5+eFH7NTc3IxHHnlE3Z555pkq8NPS0jBkyBCYTKbwo3YlLfw33ngDP/vZz8Il1Nb69euxdOlSXHLJJeESak9ejwaDAUcffXS4hNpi/XRPeh0PPfRQjB8/PlxCbbF+uvbcc8+pzJs8eXK4pP9EHPDS9S4hr9Pp8M033+DFF1/sMOClC+eOO+5Qt3l5eaobXz5YzjrrLMyYMUN93V5tba0ap9d+x3AJtScnSkajMfwdtSc9SvIa7ej1RayfnggEAurzTRoxtDvWT9eysrJwyimnICcnJ1zSf3oV8DLjVmbJt7Lb7eo/rJAPCemq7yzgJdBfeuklZGdnY5999lHPI+P1MoZ8/fXXY8SIEeFHEhERUaR6fMolrXSZLXnbbbfhlltuwV133YXq6urwvd2zWCw444wzcPzxx6swHzNmjOoWlODnJB8iIqLo6nHASxfepEmTVJf67Nmzcdppp6kx9J5yOBxYsWIF6uvr1fetXTpy29oLQERERNHR44CXMB42bBgOP/xwdci4eVJSUvjejkmrX7rgt2zZogL+5Zdfxocffqgm2sm4unTpy0lCQUFB+CeIiIgoGno1K6K1td1Zq1tOAtpO1pEgf/fdd7F48WIV5CeccAK++uor3HPPPbj33nvVLHmZXSgz6YmIiCh6Ip5F35aMp9fU1KgWuVz6JrMrZbU1meUtMwilRS8L4sjKdXKCIJfVyWM5g5eIiCi6ohrwREREFBt44SIREVEcirkWvIzbyzXy0n3f2cIJsriLXHfflgwDdDQvIFHIgiVyhYKsTdDd5Md4JUNCspCSDAVlZGR0ukKikMe0l2ivod7UVzyT94585shmWDJXyGazdfo6kMdKvbUlQ4yJvMiLfBZL3VmtVlV3iSzW8iumAl4q5/3331cfOjL5TsKqPamY559/Xi3R2lqB8gaTx8vM/kT8kJIPHFm29r///S/OPvtstcZAonE6nWqnwi+++ELVx/Dhw3HeeeepKz/ak0C777771N4Ira8h+WC68MIL1XKSiRDyvamveCZ/+9dff4133nlHreshnzknn3yyWnq1/dwg+exZsmQJXnjhhV3umzlzJk466SQVcIlGTngqKiowf/58HHXUUdh///0TtqEVi/kVE6ed8kfLm0s+cJ599lm1w5W8cDoilbh27Vq1WM6JJ56olgCUN+SoUaMScslWmbAo6wvIOv9y23alwUQhrxW5UkPC6vzzz1ebGEm9yDLHHe11Lpdobty4EXvttZd67chrSBZgkqs5EuHDqbf1Fc9kN0u5fFc2wZIVOOU1IfUgl/a2b2XJieGmTZvUyeBxxx2nXjdyTJ06NSEbFlIfGzZswGOPPaa2rU7Ubb9jOb9iIuBlCdz//Oc/6kxa/vD2b6y2ZJa+XFMvZ4vyJjvmmGPUinjS8ki0M0d5Ecn6/7KZgazvn6hd89LltWzZMkyZMgX77ruv2vRC3jiy13lZWVn4Uf+zfft29VqRVtexxx6rXkPSCsvMzAw/Ir71tr7ilXzOrFu3Tr0WDjvsMPUhKx+6ZrMZ33//vaqntuQqIbkK6IADDlAnhPK6kUPqL9EaF1J3cnL0xBNPqL89kXcEjeX8iomAF9K1c+WVV6o3T1dkrEdaqfIB9Y9//ENtU7ty5crdxsUSRW5urupalS6eRA14edPI/IPCwkLV7SXHyJEj1RtP9qpuT0JM3oSyRsPf/vY31QKRBZm6emPGk97WV7ySv3fHjh1qM5CUlBRVJid5sl+GDHm17w2T1pd8/kirVT537r//frV8tzxPIpJxZml9XnTRRarOElms5teABLx8kLY9JJgOOeQQdQbd3VmMjB3KGZBUknSpyvcPPfSQ6p7urFskXrSvN/lgHjt2rHpxJdr4X9t6kNeAtLakDlpfP1I3Qlpd7ckuhdKdKD8j6zDIWPy//vUv1SKR54t3LperV/UVr6SLWV470mJv/fulPmRMVOqh/WtBhi/k5EgCXdb1kJ+R3jPZcrd9az/eST1JHciqpr1ZsjwexXJ+9XvAy5tExiBkmVo5pOUkuquYVhMmTMBvf/tbXHbZZWpC2S9+8QvVPf3RRx/F9RiQfNjIZBZZCVDqbfny5eqDRuqtp3UXLySgvv322x9fQ3JW3Js6kO7Ym266SU2qa30NSV3KxJd4P0mk3fX0tSOfM1dffTWuuuoqtSfHpZdeigMPPFC14uWkMdEk4mdPR3pTD/2dX/0e8DLDcNGiRWpbWTlk3KKnH6oScjLBRWaJp6enqzNv6V6TcQ953nj+cJbWhoyRypa7Um8yoUO6DBORnOgsXLjwx9eQ/LeXs2g5K25tdclrQd507WeySrl0w44ePVqNG8prSFrxMtQhrbNEIF2rMm7ak/qKZ/LfXuqibT3IrbTGpcu+tVXfSlr28tkj3dHyepPHyDCHNFoStZueem4g8qvfA14+XM8991w1Y1UOmazS/o3UllSKjE+0vvGklfXKK6+oChHy5pJZ0dJN1P6ylngis3QPPvhg3HDDDarepBWRqF1j8oa44oorfnwNSb3IG0W62OVNIoeMJcsbSLrN2r6G5PXy5ptvqm7V1g9l6Y6V11Oi1KfUlZzQdFZfiUJCWi4PlNa3dJUK+Vp6hKSlJfUhdSOvG7mVnkeZJS3Lbws56ZbPHhnqSNQ1BKhrA51f/R7w0nKQD5j8/Hx1yJlMV90bMhlILluRLlkhrS7plpVeAJkNLbfSzS8f8rLnfLxqbV211pt8QHd1YhTP5INX/v7WupB6kWtIZdhCLv2SSVBvv/02xo0bh6FDh6qZz3LtaWuIyQe7BLw8Vl5DCxYsUG8+eQ3F80liK/kb5W/trL4SicyAl/fWe++9pz5H5PNETvzksjlp2cvr5OOPP1ZfS4td6kp6j+QyOvkckuviZQ6MfKYRtTfQ+WUoKiqaG/56wMlZTuvmNLL3vHwYy4QEOeuRlbak5SYf6HK/zEKUN55ccygzOQ866CD1+EQlrVCZLLbffvupk6ZEIh/QMo4lZ8KyHbHMU5Bu99mzZ6seI3lNyVCQtE7lcdJqk/qSsVO5fldaYuecc466bCwRTpq6q69EIi0nCW450ZHXg7SsTj/9dPVakFCXupGTPzn5ka55qR85MZJ1BOSEUU4s5XKnRL5MTN4/csIjvR6JspZER2Ixv2JuqdrW7rC2LSnp4pAXTeuHr9wvZ9nyASVhJi2yRG3NtiVvNHnxJOobTF4n0tUqt/Kh3fqGae0mk9dI6+tEvpc5DHLIa0i6WBPtNdRZfSUaeX20fp5I4Lf9PGntom/9PJKv5X0m3fhSZ9LqSoRen+7Ia6jtZ3SiirX84m5yREREcSixT7eIiIjiFAOeiIgoDjHgiYiI4hADnoiIKA4x4ImIiOIQA56IiCgOMeCJiIjiEAOeiIgoDjHgiYiI4hADnoiIKA4x4ImIiOIQA56IiCjuAP8PiI8Ed00INtIAAAAASUVORK5CYII=;" vertex="1" parent="2AID36fqUqGkAKmChoYP-8">
          <mxGeometry x="450" y="153.89" width="340" height="273.21" as="geometry" />
        </mxCell>
        <mxCell id="2AID36fqUqGkAKmChoYP-16" value="Rotate the constellation" style="text;html=1;strokeColor=none;fillColor=none;align=center;verticalAlign=middle;whiteSpace=wrap;rounded=0;" vertex="1" parent="2AID36fqUqGkAKmChoYP-8">
          <mxGeometry x="550" y="117" width="140" height="30" as="geometry" />
        </mxCell>
      </root>
    </mxGraphModel>
  </diagram>
</mxfile>
